# 3ds Max Wavefront OBJ Exporter v0.99 - (c)2007 guruware
# File Created: 05.02.2026 23:28:53

mtllib mailbox.mtl

#
# object mailbox
#

v  19.6144 -0.2675 16.8125
v  19.6144 9.8013 16.8125
v  19.6144 20.0446 16.8125
v  14.1768 -0.2675 16.8125
v  14.1768 9.8013 16.8125
v  14.1768 20.0446 16.8125
v  19.6144 35.5382 16.8125
v  14.1768 35.5382 16.8125
v  14.2575 38.1437 16.8125
v  9.6903 47.1636 13.8802
v  6.9658 50.4098 13.1479
v  19.6144 38.0435 16.8125
v  13.6477 47.3427 13.8802
v  11.1110 50.3536 13.1479
v  19.6144 9.8013 0.1090
v  14.1768 -0.2675 0.1090
v  14.0352 47.5653 0.1090
v  19.6144 -0.2675 -16.5945
v  19.6144 -0.2675 0.1090
v  19.6144 9.8013 -16.5945
v  19.6144 20.0446 0.1090
v  19.6144 20.0446 -16.5945
v  14.1768 -0.2675 -16.5945
v  14.1768 9.8013 -16.5945
v  14.1768 20.0446 -16.5945
v  19.6144 35.5382 -16.5945
v  14.1768 35.5382 -16.5945
v  19.6144 35.5382 0.1090
v  14.1768 38.1721 -16.5945
v  9.6534 47.1351 -13.8584
v  6.9658 50.4561 -13.4194
v  19.6144 38.0435 -16.5945
v  13.6477 47.3427 -13.8584
v  11.1110 50.3999 -13.4194
v  19.6144 38.0857 0.1090
v  11.9115 50.4597 0.1049
v  11.3932 50.4692 -6.9942
v  13.7843 47.4212 -8.3964
v  19.6144 38.0583 -10.7051
v  19.6144 35.5382 -10.7051
v  19.6144 20.0446 -10.7051
v  19.6144 9.8013 -10.7051
v  19.6144 -0.2675 -10.7051
v  14.1768 -0.2675 -10.7051
v  11.2850 50.3059 11.1366
v  13.7319 47.3911 10.3482
v  19.6144 38.0526 10.3482
v  19.6144 35.5382 10.3482
v  19.6144 20.0446 10.3482
v  19.6144 9.8013 10.3482
v  19.6144 -0.2675 10.3482
v  14.1768 -0.2675 10.3482
v  5.3270 55.1041 -4.5374
v  5.3276 54.9991 7.8549
v  5.3272 55.0054 0.3767
v  19.6144 -21.4378 -16.5945
v  19.6144 -21.4378 -10.7051
v  14.1768 -21.4378 -10.7051
v  14.1768 -21.4378 -16.5945
v  19.6144 -21.4378 16.8125
v  14.1768 -21.4378 16.8125
v  14.1768 -21.4378 10.3482
v  19.6145 -21.4378 10.3482
v  14.2575 41.2282 7.3779
v  9.6903 47.1636 7.3779
v  5.3265 55.0804 9.2295
v  8.1597 55.0420 9.2295
v  8.2787 55.0093 7.8549
v  8.7069 55.1145 0.3148
v  8.3526 55.1210 -4.5374
v  8.1597 55.0736 -8.9289
v  5.3265 55.1120 -8.9289
v  -0.1216 9.8013 16.8125
v  -0.1216 50.4098 13.1479
v  -0.1216 -0.2675 0.1090
v  -0.1216 -0.2675 -16.5945
v  -0.1216 9.8013 -16.5945
v  -0.1216 50.4561 -13.4194
v  -0.1216 -0.2675 -10.7051
v  -0.1216 54.9802 7.8549
v  -0.1216 54.9472 0.3509
v  -0.1216 41.2282 7.3779
v  -0.1216 55.0804 9.2295
v  -0.1216 55.1120 -8.9289
v  -19.8577 -0.2675 16.8125
v  -19.8577 -0.2675 10.3482
v  -19.8577 9.8013 10.3482
v  -19.8577 9.8013 16.8125
v  -19.8577 20.0446 10.3482
v  -19.8577 20.0446 16.8125
v  -14.4201 -0.2675 16.8125
v  -14.4201 9.8013 16.8125
v  -14.4201 20.0446 16.8125
v  -19.8577 35.5382 16.8125
v  -14.4201 35.5382 16.8125
v  -19.8577 35.5382 10.3482
v  -19.8577 38.0435 16.8125
v  -14.5008 38.1437 16.8125
v  -19.8577 38.0526 10.3482
v  -19.8577 -0.2675 0.1090
v  -14.4201 -0.2675 10.3482
v  -14.4201 -0.2675 0.1090
v  -0.1216 -0.2675 10.3482
v  -19.8577 -0.2675 -16.5945
v  -19.8577 9.8013 -16.5945
v  -19.8577 9.8013 -10.7051
v  -19.8577 -0.2675 -10.7051
v  -19.8577 20.0446 -16.5945
v  -19.8577 20.0446 -10.7051
v  -14.4201 -0.2675 -16.5945
v  -14.4201 9.8013 -16.5945
v  -14.4201 20.0446 -16.5945
v  -14.4201 35.5382 -16.5945
v  -19.8577 35.5382 -16.5945
v  -19.8577 35.5382 -10.7051
v  -14.4201 38.1721 -16.5945
v  -19.8577 38.0435 -16.5945
v  -19.8577 38.0583 -10.7051
v  -14.4201 -0.2675 -10.7051
v  -19.8577 9.8013 0.1090
v  -19.8577 20.0446 0.1090
v  -19.8577 35.5382 0.1090
v  -19.8577 38.0857 0.1090
v  -14.4201 -21.4378 -10.7051
v  -14.4201 -21.4378 -16.5945
v  -19.8577 -21.4378 -16.5945
v  -19.8577 -21.4378 -10.7051
v  -19.8577 -21.4378 10.3482
v  -19.8577 -21.4378 16.8125
v  -14.4201 -21.4378 16.8125
v  -14.4201 -21.4378 10.3482
v  -0.1216 -0.2675 16.8125
v  -9.9336 47.1636 13.8802
v  -0.1216 47.1636 13.8802
v  -0.1216 47.1636 7.3779
v  -9.9336 47.1636 7.3779
v  -13.8910 47.3427 13.8802
v  -11.3543 50.3536 13.1479
v  -7.2091 50.4098 13.1479
v  -9.8966 47.1351 -13.8584
v  -13.8910 47.3427 -13.8584
v  -7.2091 50.4561 -13.4194
v  -11.3543 50.3999 -13.4194
v  -13.9752 47.3911 10.3482
v  -11.5283 50.3059 11.1366
v  -14.0276 47.4212 -8.3964
v  -11.6365 50.4692 -6.9942
v  -8.4030 55.0420 9.2295
v  -8.5220 55.0093 7.8549
v  -5.5708 54.9991 7.8549
v  -5.5698 55.0804 9.2295
v  -14.2784 47.5653 0.1090
v  -12.1548 50.4597 0.1049
v  -8.4030 55.0736 -8.9289
v  -5.5698 55.1120 -8.9289
v  -5.5702 55.1041 -4.5374
v  -8.5959 55.1210 -4.5374
v  -8.9501 55.1145 0.3148
v  -5.5705 55.0054 0.3767
v  -0.1216 55.0738 -5.8706
v  -14.5008 41.2282 7.3779
v  -0.1216 20.0446 16.8125
v  -0.1216 35.5382 16.8125
v  -0.1216 38.1437 16.8125
v  -0.1216 20.0446 -16.5945
v  -0.1216 35.5382 -16.5945
v  -0.1216 38.1721 -16.5945
v  -0.1216 47.1351 -13.8584
# 168 vertices

vt 0.3461 0.1117 0.0000
vt 0.4012 0.1117 0.0000
vt 0.4012 0.1643 0.0000
vt 0.3461 0.1643 0.0000
vt 0.3984 0.5089 0.0000
vt 0.4733 0.5089 0.0000
vt 0.4733 0.5598 0.0000
vt 0.9990 0.1055 0.0000
vt 0.4012 0.2179 0.0000
vt 0.3461 0.2179 0.0000
vt 0.4012 0.2989 0.0000
vt 0.3461 0.2989 0.0000
vt 0.4012 0.3120 0.0000
vt 0.3984 0.5598 0.0000
vt 0.9727 0.4019 0.0000
vt 0.9990 0.0415 0.0000
vt 0.3469 0.3125 0.0000
vt 0.9648 0.3692 0.0000
vt 0.8859 0.3692 0.0000
vt 0.8859 0.2110 0.0000
vt 0.9648 0.2110 0.0000
vt 0.3461 0.0010 0.0000
vt 0.4012 0.0010 0.0000
vt 0.4733 0.6116 0.0000
vt 0.3984 0.6116 0.0000
vt 0.4733 0.6899 0.0000
vt 0.9702 0.0415 0.0000
vt 0.3984 0.6899 0.0000
vt 0.4733 0.7026 0.0000
vt 0.3984 0.7025 0.0000
vt 0.9702 0.1055 0.0000
vt 0.7853 0.5089 0.0000
vt 0.7853 0.5598 0.0000
vt 0.7171 0.5598 0.0000
vt 0.7171 0.5089 0.0000
vt 0.7853 0.6116 0.0000
vt 0.7171 0.6116 0.0000
vt 0.7853 0.6899 0.0000
vt 0.7171 0.6899 0.0000
vt 0.7853 0.7025 0.0000
vt 0.7171 0.7026 0.0000
vt 0.3429 0.5116 0.0000
vt 0.3429 0.5637 0.0000
vt 0.3975 0.5637 0.0000
vt 0.3975 0.5116 0.0000
vt 0.3429 0.6168 0.0000
vt 0.3975 0.6168 0.0000
vt 0.3429 0.6970 0.0000
vt 0.3975 0.6970 0.0000
vt 0.5919 0.5598 0.0000
vt 0.5919 0.5089 0.0000
vt 0.3429 0.7106 0.0000
vt 0.3975 0.7100 0.0000
vt 0.3975 0.4019 0.0000
vt 0.3429 0.4019 0.0000
vt 0.5013 0.9480 0.0000
vt 0.5802 0.9480 0.0000
vt 0.5802 0.7897 0.0000
vt 0.5013 0.7897 0.0000
vt 0.2974 0.7571 0.0000
vt 0.5919 0.6116 0.0000
vt 0.5919 0.6899 0.0000
vt 0.5919 0.7027 0.0000
vt 0.7171 0.4019 0.0000
vt 0.7853 0.4019 0.0000
vt 0.3376 0.7581 0.0000
vt 0.8945 0.0415 0.0000
vt 0.2704 0.7743 0.0000
vt 0.8945 0.1055 0.0000
vt 0.9702 0.1732 0.0000
vt 0.3984 0.4019 0.0000
vt 0.4733 0.4019 0.0000
vt 0.4733 0.7498 0.0000
vt 0.4324 0.7495 0.0000
vt 0.4641 0.7645 0.0000
vt 0.4408 0.7647 0.0000
vt 0.7536 0.7495 0.0000
vt 0.9990 0.1732 0.0000
vt 0.6904 0.7499 0.0000
vt 0.8945 0.1732 0.0000
vt 0.7485 0.7650 0.0000
vt 0.6741 0.7653 0.0000
vt 0.5919 0.7506 0.0000
vt 0.5919 0.7653 0.0000
vt 0.5021 0.7883 0.0000
vt 0.4862 0.7884 0.0000
vt 0.5895 0.7888 0.0000
vt 0.6155 0.0458 0.0000
vt 0.6457 0.7888 0.0000
vt 0.6155 0.0826 0.0000
vt 0.9733 0.4105 0.0000
vt 0.9577 0.4105 0.0000
vt 0.9577 0.4019 0.0000
vt 0.6443 0.0826 0.0000
vt 0.6443 0.0458 0.0000
vt 0.6961 0.4423 0.0000
vt 0.6961 0.4019 0.0000
vt 0.6674 0.4019 0.0000
vt 0.6674 0.4423 0.0000
vt 0.9702 0.0010 0.0000
vt 0.8945 0.0010 0.0000
vt 0.9727 0.5153 0.0000
vt 0.6900 0.0010 0.0000
vt 0.9577 0.5153 0.0000
vt 0.9577 0.4879 0.0000
vt 0.9737 0.4879 0.0000
vt 0.9756 0.4576 0.0000
vt 0.9577 0.4572 0.0000
vt 0.9289 0.5153 0.0000
vt 0.9289 0.4962 0.0000
vt 0.6379 0.0010 0.0000
vt 0.3407 0.3606 0.0000
vt 0.3006 0.3596 0.0000
vt 0.3150 0.3763 0.0000
vt 0.2730 0.3766 0.0000
vt 0.9289 0.4105 0.0000
vt 0.6379 0.0417 0.0000
vt 0.2851 0.4008 0.0000
vt 0.6900 0.0417 0.0000
vt 0.8945 0.2101 0.0000
vt 0.9702 0.2101 0.0000
vt 0.3121 0.7740 0.0000
vt 0.2540 0.7984 0.0000
vt 0.2824 0.7982 0.0000
vt 0.1992 0.7743 0.0000
vt 0.1992 0.7984 0.0000
vt 0.1992 0.5637 0.0000
vt 0.1992 0.5116 0.0000
vt 0.1992 0.6168 0.0000
vt 0.7899 0.1055 0.0000
vt 0.8187 0.1055 0.0000
vt 0.9289 0.4019 0.0000
vt 0.9289 0.4574 0.0000
vt 0.5564 0.4019 0.0000
vt 0.6368 0.4019 0.0000
vt 0.8187 0.0415 0.0000
vt 0.6368 0.4643 0.0000
vt 0.5564 0.4643 0.0000
vt 0.7899 0.3601 0.0000
vt 0.8850 0.3601 0.0000
vt 0.8850 0.2110 0.0000
vt 0.7899 0.2110 0.0000
vt 0.3984 0.9355 0.0000
vt 0.5004 0.9355 0.0000
vt 0.2564 0.4010 0.0000
vt 0.2011 0.1117 0.0000
vt 0.2011 0.1643 0.0000
vt 0.2011 0.2179 0.0000
vt 0.2011 0.2989 0.0000
vt 0.2011 0.3125 0.0000
vt 0.5864 0.4652 0.0000
vt 0.6968 0.4652 0.0000
vt 0.5004 0.7897 0.0000
vt 0.3984 0.7897 0.0000
vt 0.6617 0.4887 0.0000
vt 0.5864 0.4887 0.0000
vt 0.4797 0.0458 0.0000
vt 0.5124 0.0898 0.0000
vt 0.7899 0.0415 0.0000
vt 0.7899 0.1732 0.0000
vt 0.8187 0.1732 0.0000
vt 0.6146 0.0458 0.0000
vt 0.5859 0.0458 0.0000
vt 0.5859 0.0826 0.0000
vt 0.5850 0.0898 0.0000
vt 0.5850 0.0609 0.0000
vt 0.4021 0.1080 0.0000
vt 0.4021 0.1589 0.0000
vt 0.4770 0.1589 0.0000
vt 0.4770 0.1080 0.0000
vt 0.1992 0.6970 0.0000
vt 0.1992 0.7106 0.0000
vt 0.1992 0.7571 0.0000
vt 0.0556 0.5116 0.0000
vt 0.0010 0.5116 0.0000
vt 0.0010 0.5637 0.0000
vt 0.0556 0.5637 0.0000
vt 0.0010 0.6168 0.0000
vt 0.4021 0.2106 0.0000
vt 0.4770 0.2106 0.0000
vt 0.0556 0.6168 0.0000
vt 0.0010 0.6970 0.0000
vt 0.4021 0.2889 0.0000
vt 0.4770 0.2889 0.0000
vt 0.6146 0.0826 0.0000
vt 0.6377 0.4423 0.0000
vt 0.6665 0.4423 0.0000
vt 0.6665 0.4019 0.0000
vt 0.6377 0.4019 0.0000
vt 0.8187 0.0010 0.0000
vt 0.4021 0.3016 0.0000
vt 0.4770 0.3017 0.0000
vt 0.7890 0.1080 0.0000
vt 0.7208 0.1080 0.0000
vt 0.7208 0.1589 0.0000
vt 0.5859 0.0010 0.0000
vt 0.5859 0.0417 0.0000
vt 0.8187 0.2101 0.0000
vt 0.6965 0.7886 0.0000
vt 0.7890 0.1589 0.0000
vt 0.7208 0.2106 0.0000
vt 0.7890 0.2106 0.0000
vt 0.7208 0.2889 0.0000
vt 0.7890 0.2889 0.0000
vt 0.7862 0.5511 0.0000
vt 0.7862 0.4019 0.0000
vt 0.8813 0.4019 0.0000
vt 0.8813 0.5511 0.0000
vt 0.0010 0.9451 0.0000
vt 0.0010 0.7993 0.0000
vt 0.0556 0.6970 0.0000
vt 0.1030 0.7993 0.0000
vt 0.2011 0.3596 0.0000
vt 0.1030 0.9451 0.0000
vt 0.4797 0.0010 0.0000
vt 0.5850 0.0160 0.0000
vt 0.5850 0.0449 0.0000
vt 0.2011 0.3766 0.0000
vt 0.2011 0.4010 0.0000
vt 0.0561 0.1117 0.0000
vt 0.0561 0.1643 0.0000
vt 0.0010 0.7100 0.0000
vt 0.0556 0.7106 0.0000
vt 0.0556 0.4019 0.0000
vt 0.0010 0.4019 0.0000
vt 0.7208 0.3017 0.0000
vt 0.7890 0.3016 0.0000
vt 0.5956 0.1080 0.0000
vt 0.5956 0.1589 0.0000
vt 0.5956 0.2106 0.0000
vt 0.5956 0.2889 0.0000
vt 0.1828 0.9576 0.0000
vt 0.5956 0.3018 0.0000
vt 0.8851 0.4019 0.0000
vt 0.9001 0.4019 0.0000
vt 0.9001 0.4105 0.0000
vt 0.8845 0.4105 0.0000
vt 0.7890 0.0010 0.0000
vt 0.7208 0.0010 0.0000
vt 0.8851 0.5153 0.0000
vt 0.8841 0.4879 0.0000
vt 0.9001 0.4879 0.0000
vt 0.9001 0.5153 0.0000
vt 0.4770 0.0010 0.0000
vt 0.4021 0.0010 0.0000
vt 0.8822 0.4576 0.0000
vt 0.9001 0.4572 0.0000
vt 0.4760 0.4643 0.0000
vt 0.4760 0.4019 0.0000
vt 0.5124 0.0449 0.0000
vt 0.4361 0.3486 0.0000
vt 0.4770 0.3488 0.0000
vt 0.4446 0.3638 0.0000
vt 0.4679 0.3636 0.0000
vt 0.0010 0.1643 0.0000
vt 0.7574 0.3486 0.0000
vt 0.6941 0.3490 0.0000
vt 0.1828 0.7993 0.0000
vt 0.0010 0.1117 0.0000
vt 0.0561 0.2179 0.0000
vt 0.0010 0.2179 0.0000
vt 0.0561 0.2989 0.0000
vt 0.7523 0.3641 0.0000
vt 0.6779 0.3644 0.0000
vt 0.0010 0.2989 0.0000
vt 0.1039 0.7993 0.0000
vt 0.1039 0.9576 0.0000
vt 0.0609 0.7581 0.0000
vt 0.1011 0.7571 0.0000
vt 0.0864 0.7740 0.0000
vt 0.1281 0.7743 0.0000
vt 0.1161 0.7982 0.0000
vt 0.1445 0.7984 0.0000
vt 0.0553 0.3125 0.0000
vt 0.0010 0.3120 0.0000
vt 0.5956 0.3497 0.0000
vt 0.5956 0.3644 0.0000
vt 0.4900 0.3875 0.0000
vt 0.5059 0.3873 0.0000
vt 0.5932 0.3879 0.0000
vt 0.6494 0.3879 0.0000
vt 0.7003 0.3877 0.0000
vt 0.7862 0.7103 0.0000
vt 0.7862 0.5520 0.0000
vt 0.8651 0.5520 0.0000
vt 0.8651 0.7103 0.0000
vt 0.0010 0.0010 0.0000
vt 0.0561 0.0010 0.0000
vt 0.1016 0.3596 0.0000
vt 0.0615 0.3606 0.0000
vt 0.1293 0.3766 0.0000
vt 0.0872 0.3763 0.0000
vt 0.1459 0.4010 0.0000
vt 0.1171 0.4008 0.0000
vt 0.5110 0.4887 0.0000
vt 0.4760 0.4652 0.0000
# 296 texture coords

o mailbox
g mailbox
usemtl wire_006135058
f 1/5 51/6 50/7 2/14 
f 2/14 50/7 49/24 3/25 
f 4/1 1/2 2/3 5/4 
f 5/4 2/3 3/9 6/10 
f 6/10 3/9 7/11 8/12 
f 3/25 49/24 48/26 7/28 
f 8/12 7/11 12/13 9/17 
f 7/28 48/26 47/29 12/30 
f 19/8 51/16 52/27 16/31 
f 16/31 52/27 103/67 75/69 
f 18/32 20/33 42/34 43/35 
f 20/33 22/36 41/37 42/34 
f 23/42 24/43 20/44 18/45 
f 24/43 25/46 22/47 20/44 
f 25/46 27/48 26/49 22/47 
f 22/36 26/38 40/39 41/37 
f 27/48 29/52 32/53 26/49 
f 26/38 32/40 39/41 40/39 
f 19/8 16/31 44/70 43/78 
f 16/31 75/69 79/80 44/70 
f 42/34 15/50 19/51 43/35 
f 41/37 21/61 15/50 42/34 
f 40/39 28/62 21/61 41/37 
f 39/41 35/63 28/62 40/39 
f 58/88 59/90 56/94 57/95 
f 51/6 19/51 15/50 50/7 
f 50/7 15/50 21/61 49/24 
f 49/24 21/61 28/62 48/26 
f 48/26 28/62 35/63 47/29 
f 63/96 60/97 61/98 62/99 
f 52/27 4/100 132/101 103/67 
f 18/32 43/35 57/64 56/65 
f 43/18 44/19 58/20 57/21 
f 44/139 23/140 59/141 58/142 
f 23/42 18/45 56/54 59/55 
f 1/2 4/1 61/22 60/23 
f 4/143 52/144 62/153 61/154 
f 52/56 51/57 63/58 62/59 
f 51/6 1/5 60/71 63/72 
f 10/103 134/111 135/117 65/119 
f 9/17 12/13 13/112 10/113 
f 10/113 13/112 14/114 11/115 
f 29/52 30/60 33/66 32/53 
f 30/60 31/68 34/122 33/66 
f 47/29 46/73 13/74 12/30 
f 46/73 45/75 14/76 13/74 
f 33/77 38/79 39/41 32/40 
f 34/81 37/82 38/79 33/77 
f 67/15 68/91 54/92 66/93 
f 38/79 17/83 35/63 39/41 
f 37/82 36/84 17/83 38/79 
f 71/102 72/104 53/105 70/106 
f 35/63 17/83 46/73 47/29 
f 17/83 36/84 45/75 46/73 
f 69/107 55/108 54/92 68/91 
f 72/104 84/109 160/110 53/105 
f 54/92 80/116 83/132 66/93 
f 69/107 70/106 53/105 55/108 
f 55/108 53/105 160/110 81/133 
f 9/157 10/158 65/165 64/166 
f 11/115 14/114 67/118 66/145 
f 14/76 45/75 68/85 67/86 
f 45/75 36/84 69/87 68/85 
f 36/84 37/82 70/89 69/87 
f 37/82 34/81 71/199 70/89 
f 34/122 31/68 72/123 71/124 
f 31/68 78/125 84/126 72/123 
f 132/146 4/1 5/4 73/147 
f 73/147 5/4 6/10 162/148 
f 162/148 6/10 8/12 163/149 
f 163/149 8/12 9/17 164/150 
f 82/151 64/152 65/155 135/156 
f 134/213 10/113 11/115 74/218 
f 77/127 24/43 23/42 76/128 
f 165/129 25/46 24/43 77/127 
f 166/171 27/48 25/46 165/129 
f 167/172 29/52 27/48 166/171 
f 168/173 30/60 29/52 167/172 
f 78/125 31/68 30/60 168/173 
f 76/120 23/121 44/70 79/80 
f 164/134 9/135 64/137 82/138 
f 80/116 54/92 55/108 81/133 
f 74/218 11/115 66/145 83/219 
f 85/167 88/168 87/169 86/170 
f 88/168 90/179 89/180 87/169 
f 91/220 92/221 88/255 85/259 
f 92/221 93/260 90/261 88/255 
f 93/260 95/262 94/265 90/261 
f 90/179 94/183 96/184 89/180 
f 95/262 98/274 97/275 94/265 
f 94/183 97/191 99/192 96/184 
f 100/130 102/131 101/136 86/159 
f 102/131 75/69 103/67 101/136 
f 104/193 107/194 106/195 105/200 
f 105/200 106/195 109/201 108/202 
f 110/174 104/175 105/176 111/177 
f 111/177 105/176 108/178 112/181 
f 112/181 108/178 114/182 113/211 
f 108/202 109/201 115/203 114/204 
f 113/211 114/182 117/222 116/223 
f 114/204 115/203 118/226 117/227 
f 100/130 107/160 119/161 102/131 
f 102/131 119/161 79/80 75/69 
f 106/195 107/194 100/228 120/229 
f 109/201 106/195 120/229 121/230 
f 115/203 109/201 121/230 122/231 
f 118/226 115/203 122/231 123/233 
f 124/162 127/163 126/164 125/185 
f 86/170 87/169 120/229 100/228 
f 87/169 89/180 121/230 120/229 
f 89/180 96/184 122/231 121/230 
f 96/184 99/192 123/233 122/231 
f 128/186 131/187 130/188 129/189 
f 101/136 103/67 132/101 91/190 
f 104/193 126/238 127/239 107/194 
f 107/283 127/284 124/285 119/286 
f 119/205 124/206 125/207 110/208 
f 110/174 125/224 126/225 104/175 
f 85/259 129/287 130/288 91/220 
f 91/209 130/210 131/212 101/214 
f 101/232 131/258 128/266 86/267 
f 86/170 128/244 129/245 85/167 
f 133/196 136/197 135/117 134/111 
f 98/274 133/289 137/290 97/275 
f 133/289 139/291 138/292 137/290 
f 116/223 117/222 141/268 140/269 
f 140/269 141/268 143/270 142/271 
f 99/192 97/191 137/251 144/252 
f 144/252 137/251 138/253 145/254 
f 141/256 117/227 118/226 146/257 
f 143/263 141/256 146/257 147/264 
f 148/234 151/235 150/236 149/237 
f 146/257 118/226 123/233 152/276 
f 147/264 146/257 152/276 153/277 
f 154/240 157/241 156/242 155/243 
f 123/233 99/192 144/252 152/276 
f 152/276 144/252 145/254 153/277 
f 158/246 149/237 150/236 159/247 
f 155/243 156/242 160/110 84/109 
f 150/236 151/235 83/132 80/116 
f 158/246 159/247 156/242 157/241 
f 159/247 81/133 160/110 156/242 
f 98/215 161/216 136/217 133/250 
f 139/291 151/293 148/294 138/292 
f 138/253 148/278 149/279 145/254 
f 145/254 149/279 158/280 153/277 
f 153/277 158/280 157/281 147/264 
f 147/264 157/281 154/282 143/263 
f 143/270 154/272 155/273 142/271 
f 142/271 155/273 84/126 78/125 
f 132/146 73/147 92/221 91/220 
f 73/147 162/148 93/260 92/221 
f 162/148 163/149 95/262 93/260 
f 163/149 164/150 98/274 95/262 
f 82/151 135/156 136/295 161/296 
f 134/213 74/218 139/291 133/289 
f 77/127 76/128 110/174 111/177 
f 165/129 77/127 111/177 112/181 
f 166/171 165/129 112/181 113/211 
f 167/172 166/171 113/211 116/223 
f 168/173 167/172 116/223 140/269 
f 78/125 168/173 140/269 142/271 
f 76/120 79/80 119/161 110/198 
f 164/134 82/138 161/248 98/249 
f 80/116 81/133 159/247 150/236 
f 74/218 83/219 151/293 139/291 
# 166 polygons

