# 3ds Max Wavefront OBJ Exporter v0.99 - (c)2007 guruware
# File Created: 07.02.2026 09:40:21

mtllib plyon.mtl

#
# object pylon
#

v  -0.0991 0.0000 13.1814
v  14.9653 0.0000 13.1814
v  -0.0991 0.0000 -1.8831
v  14.9653 0.0000 -1.8831
v  -0.0991 111.4767 13.1814
v  14.9653 111.4767 13.1814
v  -0.0991 111.4767 -1.8831
v  14.9653 111.4767 -1.8831
# 8 vertices

vt 0.5781 0.8451 0.0000
vt 0.4233 0.8451 0.0000
vt 0.4233 1.0000 0.0000
vt 0.5781 1.0000 0.0000
vt 0.7345 0.8451 0.0000
vt 0.7345 1.0000 0.0000
vt 0.5796 1.0000 0.0000
vt 0.5796 0.8451 0.0000
vt 0.8446 0.0000 0.0000
vt 0.4233 0.0000 0.0000
vt 0.4233 0.4213 0.0000
vt 0.8446 0.4213 0.0000
vt 0.4233 0.4226 0.0000
vt 0.8446 0.4226 0.0000
vt 0.8446 0.8439 0.0000
vt 0.4233 0.8439 0.0000
vt 0.0000 0.8439 0.0000
vt 0.0000 0.4226 0.0000
vt 0.4213 0.4226 0.0000
vt 0.4213 0.8439 0.0000
vt 0.0000 -0.0000 0.0000
vt 0.0000 0.4213 0.0000
vt 0.4213 0.4213 0.0000
vt 0.4213 0.0000 0.0000
# 24 texture coords

o pylon
g pylon
usemtl wire_153228153
f 1/1 3/2 4/3 2/4 
f 5/5 6/6 8/7 7/8 
f 1/21 2/22 6/23 5/24 
f 2/9 4/10 8/11 6/12 
f 4/17 3/18 7/19 8/20 
f 3/13 1/14 5/15 7/16 
# 6 polygons

