# 3ds Max Wavefront OBJ Exporter v0.99 - (c)2007 guruware
# File Created: 05.02.2026 23:31:44

mtllib trafficcone.mtl

#
# object Cylinder001
#

v  42.9511 5.3663 -2.1028
v  40.1495 5.3663 -17.9916
v  32.0825 5.3663 -31.9640
v  19.7232 5.3663 -42.3347
v  4.5623 5.3663 -47.8528
v  -11.5716 5.3663 -47.8528
v  -26.7326 5.3663 -42.3347
v  -39.0919 5.3663 -31.9640
v  -47.1588 5.3663 -17.9916
v  -49.9605 5.3663 -2.1028
v  -47.1588 5.3663 13.7860
v  -39.0919 5.3663 27.7584
v  -26.7326 5.3663 38.1291
v  -11.5717 5.3663 43.6472
v  4.5623 5.3663 43.6472
v  19.7232 5.3663 38.1291
v  32.0825 5.3663 27.7584
v  40.1495 5.3663 13.7860
v  35.1766 36.2617 -2.1028
v  32.8438 36.2617 -15.3326
v  26.1269 36.2617 -26.9666
v  15.8359 36.2617 -35.6017
v  3.2122 36.2617 -40.1964
v  -10.2216 36.2617 -40.1964
v  -22.8453 36.2617 -35.6017
v  -33.1362 36.2617 -26.9666
v  -39.8531 36.2617 -15.3326
v  -42.1859 36.2617 -2.1028
v  -39.8531 36.2617 11.1269
v  -33.1362 36.2617 22.7610
v  -22.8453 36.2617 31.3961
v  -10.2216 36.2617 35.9908
v  3.2122 36.2617 35.9908
v  15.8359 36.2617 31.3961
v  26.1268 36.2617 22.7610
v  32.8438 36.2617 11.1270
v  27.0079 72.5234 -2.1028
v  25.1678 72.5234 -11.4948
v  19.8693 72.5234 -19.7540
v  11.7516 72.5234 -25.8842
v  1.7938 72.5234 -29.1460
v  -8.8031 72.5234 -29.1460
v  -18.7610 72.5234 -25.8842
v  -26.8787 72.5234 -19.7540
v  -32.1772 72.5234 -11.4948
v  -34.0173 72.5234 -2.1028
v  -32.1772 72.5234 7.2892
v  -26.8787 72.5234 15.5484
v  -18.7610 72.5234 21.6785
v  -8.8031 72.5234 24.9403
v  1.7938 72.5234 24.9404
v  11.7516 72.5234 21.6786
v  19.8693 72.5234 15.5484
v  25.1678 72.5234 7.2892
v  18.3217 108.7851 -2.1028
v  17.0054 108.7851 -9.5679
v  13.2153 108.7851 -16.1325
v  7.4085 108.7851 -21.0050
v  0.2854 108.7851 -23.5976
v  -7.2948 108.7851 -23.5976
v  -14.4178 108.7851 -21.0050
v  -20.2246 108.7851 -16.1325
v  -24.0147 108.7851 -9.5679
v  -25.3310 108.7851 -2.1028
v  -24.0147 108.7851 5.3622
v  -20.2246 108.7851 11.9269
v  -14.4179 108.7851 16.7994
v  -7.2948 108.7851 19.3920
v  0.2854 108.7851 19.3920
v  7.4085 108.7851 16.7994
v  13.2153 108.7851 11.9269
v  17.0054 108.7851 5.3623
v  10.1261 145.0467 -2.1028
v  9.3040 145.0467 -6.7648
v  6.9371 145.0467 -10.8645
v  3.3107 145.0467 -13.9074
v  -1.1377 145.0467 -15.5265
v  -5.8716 145.0467 -15.5265
v  -10.3200 145.0467 -13.9074
v  -13.9464 145.0467 -10.8645
v  -16.3134 145.0467 -6.7648
v  -17.1354 145.0467 -2.1028
v  -16.3134 145.0467 2.5592
v  -13.9464 145.0467 6.6589
v  -10.3200 145.0467 9.7017
v  -5.8716 145.0467 11.3208
v  -1.1377 145.0467 11.3208
v  3.3107 145.0467 9.7018
v  6.9371 145.0467 6.6589
v  9.3040 145.0467 2.5592
v  1.3051 181.3084 -2.1028
v  1.0150 181.3084 -3.7478
v  0.1798 181.3084 -5.1945
v  -1.0998 181.3084 -6.2682
v  -2.6695 181.3084 -6.8395
v  -4.3399 181.3084 -6.8395
v  -5.9096 181.3084 -6.2682
v  -7.1892 181.3084 -5.1945
v  -8.0244 181.3084 -3.7478
v  -8.3144 181.3084 -2.1028
v  -8.0244 181.3084 -0.4578
v  -7.1892 181.3084 0.9888
v  -5.9096 181.3084 2.0626
v  -4.3399 181.3084 2.6339
v  -2.6695 181.3084 2.6339
v  -1.0998 181.3084 2.0626
v  0.1798 181.3084 0.9888
v  1.0150 181.3084 -0.4578
v  0.2896 181.3084 -2.1028
v  0.0608 181.3084 -3.4005
v  -0.5981 181.3084 -4.5417
v  -1.6075 181.3084 -5.3888
v  -2.8458 181.3084 -5.8395
v  -4.1636 181.3084 -5.8395
v  -5.4018 181.3084 -5.3888
v  -6.4113 181.3084 -4.5417
v  -7.0702 181.3084 -3.4005
v  -7.2990 181.3084 -2.1028
v  -7.0702 181.3084 -0.8051
v  -6.4113 181.3084 0.3361
v  -5.4018 181.3084 1.1832
v  -4.1636 181.3084 1.6339
v  -2.8458 181.3084 1.6339
v  -1.6075 181.3084 1.1832
v  -0.5981 181.3084 0.3361
v  0.0608 181.3084 -0.8051
v  -4.5677 181.3084 -4.3947
v  -3.8341 181.3084 -3.5204
v  -2.9999 181.3084 -2.5263
v  -2.1658 181.3084 -1.5322
v  -1.4322 181.3084 -0.6580
v  -2.4417 181.3084 0.1891
v  -3.1752 181.3084 -0.6852
v  -4.0094 181.3084 -1.6793
v  -4.8436 181.3084 -2.6734
v  -5.5771 181.3084 -3.5476
v  55.6576 0.0000 57.0595
v  59.3225 0.0000 46.0647
v  59.0935 0.0000 49.5006
v  58.4063 0.0000 52.4783
v  57.2610 0.0000 54.9980
v  44.6629 0.0000 60.7244
v  48.0987 0.0000 60.4954
v  51.0765 0.0000 59.8082
v  53.5961 0.0000 58.6629
v  55.6576 7.9581 57.0595
v  44.6629 7.9581 60.7244
v  48.0987 7.9581 60.4954
v  51.0765 7.9581 59.8082
v  53.5961 7.9581 58.6629
v  59.3225 7.9581 46.0647
v  59.0935 7.9581 49.5006
v  58.4063 7.9581 52.4783
v  57.2610 7.9581 54.9980
v  -62.6670 7.9581 57.0595
v  -66.3319 7.9581 46.0647
v  -66.1028 7.9581 49.5006
v  -65.4157 7.9581 52.4783
v  -64.2704 7.9581 54.9980
v  -51.6722 7.9581 60.7244
v  -55.1081 7.9581 60.4954
v  -58.0858 7.9581 59.8082
v  -60.6055 7.9581 58.6629
v  -62.6670 0.0000 57.0595
v  -51.6722 0.0000 60.7244
v  -55.1081 0.0000 60.4954
v  -58.0858 0.0000 59.8082
v  -60.6055 0.0000 58.6629
v  -66.3319 0.0000 46.0647
v  -66.1028 0.0000 49.5006
v  -65.4157 0.0000 52.4783
v  -64.2704 0.0000 54.9980
v  55.6576 0.0000 -61.2651
v  44.6629 0.0000 -64.9300
v  48.0987 0.0000 -64.7010
v  51.0765 0.0000 -64.0138
v  53.5961 0.0000 -62.8685
v  59.3225 0.0000 -50.2703
v  59.0935 0.0000 -53.7062
v  58.4063 0.0000 -56.6840
v  57.2610 0.0000 -59.2036
v  55.6576 7.9581 -61.2651
v  59.3225 7.9581 -50.2703
v  59.0935 7.9581 -53.7062
v  58.4063 7.9581 -56.6840
v  57.2610 7.9581 -59.2036
v  44.6629 7.9581 -64.9300
v  48.0987 7.9581 -64.7010
v  51.0765 7.9581 -64.0138
v  53.5961 7.9581 -62.8685
v  -62.6670 0.0000 -61.2651
v  -66.3319 0.0000 -50.2703
v  -66.1028 0.0000 -53.7062
v  -65.4157 0.0000 -56.6840
v  -64.2704 0.0000 -59.2036
v  -51.6722 0.0000 -64.9300
v  -55.1081 0.0000 -64.7010
v  -58.0858 0.0000 -64.0138
v  -60.6055 0.0000 -62.8685
v  -62.6670 7.9581 -61.2651
v  -51.6722 7.9581 -64.9300
v  -55.1081 7.9581 -64.7010
v  -58.0858 7.9581 -64.0138
v  -60.6055 7.9581 -62.8685
v  -66.3319 7.9581 -50.2703
v  -66.1028 7.9581 -53.7062
v  -65.4157 7.9581 -56.6840
v  -64.2704 7.9581 -59.2036
# 208 vertices

vt 0.7217 0.3242 0.0000
vt 0.7828 0.3242 0.0000
vt 0.7726 0.3859 0.0000
vt 0.7217 0.3859 0.0000
vt 0.2926 0.3905 0.0000
vt 0.2452 0.3905 0.0000
vt 0.2303 0.4529 0.0000
vt 0.2698 0.4529 0.0000
vt 0.1872 0.3905 0.0000
vt 0.1820 0.4529 0.0000
vt 0.1254 0.3905 0.0000
vt 0.1306 0.4529 0.0000
vt 0.0673 0.3905 0.0000
vt 0.0822 0.4529 0.0000
vt 0.0200 0.3905 0.0000
vt 0.0428 0.4529 0.0000
vt 0.5368 0.6283 0.0000
vt 0.4831 0.6283 0.0000
vt 0.4728 0.6901 0.0000
vt 0.5176 0.6901 0.0000
vt 0.4220 0.6283 0.0000
vt 0.4220 0.6901 0.0000
vt 0.0200 0.0200 0.0000
vt 0.0673 0.0200 0.0000
vt 0.0822 0.0825 0.0000
vt 0.0428 0.0825 0.0000
vt 0.1254 0.0200 0.0000
vt 0.1306 0.0825 0.0000
vt 0.1872 0.0200 0.0000
vt 0.1820 0.0825 0.0000
vt 0.2452 0.0200 0.0000
vt 0.2303 0.0825 0.0000
vt 0.2926 0.0200 0.0000
vt 0.2698 0.0825 0.0000
vt 0.8365 0.3242 0.0000
vt 0.8173 0.3859 0.0000
vt 0.6070 0.3242 0.0000
vt 0.6607 0.3242 0.0000
vt 0.2147 0.5263 0.0000
vt 0.2458 0.5263 0.0000
vt 0.1766 0.5263 0.0000
vt 0.1360 0.5263 0.0000
vt 0.0979 0.5263 0.0000
vt 0.0668 0.5263 0.0000
vt 0.3609 0.6283 0.0000
vt 0.3711 0.6901 0.0000
vt 0.3072 0.6283 0.0000
vt 0.0979 0.1558 0.0000
vt 0.0668 0.1558 0.0000
vt 0.1360 0.1558 0.0000
vt 0.1766 0.1558 0.0000
vt 0.2147 0.1558 0.0000
vt 0.2458 0.1558 0.0000
vt 0.6709 0.3859 0.0000
vt 0.6262 0.3859 0.0000
vt 0.7578 0.4584 0.0000
vt 0.1981 0.5996 0.0000
vt 0.2203 0.5996 0.0000
vt 0.1708 0.5996 0.0000
vt 0.1418 0.5996 0.0000
vt 0.1145 0.5996 0.0000
vt 0.0923 0.5996 0.0000
vt 0.3264 0.6901 0.0000
vt 0.4581 0.7626 0.0000
vt 0.4898 0.7626 0.0000
vt 0.1145 0.2291 0.0000
vt 0.0923 0.2291 0.0000
vt 0.1418 0.2291 0.0000
vt 0.1708 0.2291 0.0000
vt 0.1981 0.2291 0.0000
vt 0.2203 0.2291 0.0000
vt 0.7217 0.4584 0.0000
vt 0.7896 0.4584 0.0000
vt 0.6857 0.4584 0.0000
vt 0.1824 0.6729 0.0000
vt 0.1963 0.6729 0.0000
vt 0.1653 0.6729 0.0000
vt 0.1472 0.6729 0.0000
vt 0.1302 0.6729 0.0000
vt 0.1163 0.6729 0.0000
vt 0.4220 0.7626 0.0000
vt 0.3859 0.7626 0.0000
vt 0.3541 0.7626 0.0000
vt 0.1302 0.3025 0.0000
vt 0.1163 0.3025 0.0000
vt 0.1472 0.3025 0.0000
vt 0.1653 0.3025 0.0000
vt 0.1824 0.3025 0.0000
vt 0.1963 0.3025 0.0000
vt 0.6539 0.4584 0.0000
vt 0.8101 0.5642 0.0000
vt 0.8078 0.5661 0.0000
vt 0.8027 0.5618 0.0000
vt 0.8046 0.5595 0.0000
vt 0.8144 0.5585 0.0000
vt 0.8137 0.5623 0.0000
vt 0.8116 0.5615 0.0000
vt 0.8121 0.5585 0.0000
vt 0.8118 0.5657 0.0000
vt 0.8089 0.5681 0.0000
vt 0.8054 0.5695 0.0000
vt 0.8050 0.5671 0.0000
vt 0.8016 0.5695 0.0000
vt 0.8020 0.5671 0.0000
vt 0.7980 0.5681 0.0000
vt 0.7992 0.5661 0.0000
vt 0.7951 0.5657 0.0000
vt 0.7969 0.5642 0.0000
vt 0.7932 0.5623 0.0000
vt 0.7954 0.5615 0.0000
vt 0.7926 0.5585 0.0000
vt 0.7949 0.5585 0.0000
vt 0.7932 0.5547 0.0000
vt 0.7954 0.5555 0.0000
vt 0.7951 0.5514 0.0000
vt 0.7969 0.5529 0.0000
vt 0.7980 0.5489 0.0000
vt 0.7992 0.5510 0.0000
vt 0.8016 0.5476 0.0000
vt 0.8020 0.5499 0.0000
vt 0.8054 0.5476 0.0000
vt 0.8050 0.5499 0.0000
vt 0.8089 0.5489 0.0000
vt 0.8078 0.5510 0.0000
vt 0.8118 0.5514 0.0000
vt 0.8101 0.5529 0.0000
vt 0.8137 0.5547 0.0000
vt 0.8116 0.5555 0.0000
vt 0.8082 0.5552 0.0000
vt 0.8065 0.5572 0.0000
vt 0.8011 0.5638 0.0000
vt 0.7988 0.5619 0.0000
vt 0.8004 0.5599 0.0000
vt 0.8023 0.5576 0.0000
vt 0.8042 0.5553 0.0000
vt 0.8059 0.5533 0.0000
vt 0.3405 0.0200 0.0000
vt 0.3327 0.0205 0.0000
vt 0.3259 0.0221 0.0000
vt 0.3202 0.0247 0.0000
vt 0.3155 0.0284 0.0000
vt 0.3119 0.0332 0.0000
vt 0.3093 0.0390 0.0000
vt 0.3077 0.0459 0.0000
vt 0.3072 0.0538 0.0000
vt 0.3072 0.2757 0.0000
vt 0.3077 0.2836 0.0000
vt 0.3093 0.2905 0.0000
vt 0.3119 0.2963 0.0000
vt 0.3155 0.3011 0.0000
vt 0.3202 0.3048 0.0000
vt 0.3259 0.3074 0.0000
vt 0.3327 0.3090 0.0000
vt 0.3405 0.3095 0.0000
vt 0.5591 0.3095 0.0000
vt 0.5669 0.3090 0.0000
vt 0.5736 0.3074 0.0000
vt 0.5793 0.3048 0.0000
vt 0.5840 0.3011 0.0000
vt 0.5876 0.2963 0.0000
vt 0.5902 0.2905 0.0000
vt 0.5918 0.2836 0.0000
vt 0.5923 0.2757 0.0000
vt 0.5923 0.0538 0.0000
vt 0.5918 0.0459 0.0000
vt 0.5902 0.0390 0.0000
vt 0.5876 0.0332 0.0000
vt 0.5840 0.0284 0.0000
vt 0.5793 0.0247 0.0000
vt 0.5736 0.0221 0.0000
vt 0.5669 0.0205 0.0000
vt 0.5591 0.0200 0.0000
vt 0.3072 0.3579 0.0000
vt 0.3077 0.3500 0.0000
vt 0.3093 0.3432 0.0000
vt 0.3119 0.3374 0.0000
vt 0.3155 0.3326 0.0000
vt 0.3202 0.3289 0.0000
vt 0.3259 0.3263 0.0000
vt 0.3327 0.3247 0.0000
vt 0.3405 0.3242 0.0000
vt 0.5591 0.3242 0.0000
vt 0.5669 0.3247 0.0000
vt 0.5736 0.3263 0.0000
vt 0.5793 0.3289 0.0000
vt 0.5840 0.3326 0.0000
vt 0.5876 0.3374 0.0000
vt 0.5902 0.3432 0.0000
vt 0.5918 0.3500 0.0000
vt 0.5923 0.3579 0.0000
vt 0.5923 0.5799 0.0000
vt 0.5918 0.5878 0.0000
vt 0.5902 0.5947 0.0000
vt 0.5876 0.6005 0.0000
vt 0.5840 0.6052 0.0000
vt 0.5793 0.6089 0.0000
vt 0.5736 0.6116 0.0000
vt 0.5669 0.6131 0.0000
vt 0.5591 0.6137 0.0000
vt 0.3405 0.6137 0.0000
vt 0.3327 0.6131 0.0000
vt 0.3259 0.6116 0.0000
vt 0.3202 0.6089 0.0000
vt 0.3155 0.6052 0.0000
vt 0.3119 0.6005 0.0000
vt 0.3093 0.5947 0.0000
vt 0.3077 0.5878 0.0000
vt 0.3072 0.5799 0.0000
vt 0.7504 0.5309 0.0000
vt 0.7217 0.5309 0.0000
vt 0.7757 0.5309 0.0000
vt 0.6931 0.5309 0.0000
vt 0.6678 0.5309 0.0000
vt 0.7397 0.6034 0.0000
vt 0.7217 0.6034 0.0000
vt 0.7554 0.6034 0.0000
vt 0.7038 0.6034 0.0000
vt 0.6881 0.6034 0.0000
vt 0.7281 0.6758 0.0000
vt 0.7217 0.6758 0.0000
vt 0.7336 0.6758 0.0000
vt 0.7154 0.6758 0.0000
vt 0.7099 0.6758 0.0000
vt 0.6380 0.0464 0.0000
vt 0.9094 0.0464 0.0000
vt 0.9094 0.0581 0.0000
vt 0.6380 0.0581 0.0000
vt 0.9191 0.0464 0.0000
vt 0.9191 0.0581 0.0000
vt 0.9275 0.0464 0.0000
vt 0.9275 0.0581 0.0000
vt 0.9346 0.0464 0.0000
vt 0.9346 0.0581 0.0000
vt 0.9404 0.0464 0.0000
vt 0.9404 0.0581 0.0000
vt 0.6283 0.0581 0.0000
vt 0.6283 0.0464 0.0000
vt 0.6199 0.0581 0.0000
vt 0.6199 0.0464 0.0000
vt 0.6128 0.0581 0.0000
vt 0.6128 0.0464 0.0000
vt 0.6070 0.0581 0.0000
vt 0.6070 0.0464 0.0000
vt 0.4507 0.8350 0.0000
vt 0.4759 0.8350 0.0000
vt 0.4220 0.8350 0.0000
vt 0.3933 0.8350 0.0000
vt 0.3681 0.8350 0.0000
vt 0.4399 0.9075 0.0000
vt 0.4557 0.9075 0.0000
vt 0.4220 0.9075 0.0000
vt 0.4041 0.9075 0.0000
vt 0.3883 0.9075 0.0000
vt 0.4283 0.9800 0.0000
vt 0.4339 0.9800 0.0000
vt 0.4220 0.9800 0.0000
vt 0.4157 0.9800 0.0000
vt 0.4101 0.9800 0.0000
vt 0.9094 0.7169 0.0000
vt 0.6380 0.7169 0.0000
vt 0.6380 0.7286 0.0000
vt 0.9094 0.7286 0.0000
vt 0.6283 0.7169 0.0000
vt 0.6283 0.7286 0.0000
vt 0.6199 0.7169 0.0000
vt 0.6199 0.7286 0.0000
vt 0.6128 0.7169 0.0000
vt 0.6128 0.7286 0.0000
vt 0.6070 0.7169 0.0000
vt 0.6070 0.7286 0.0000
vt 0.9191 0.7286 0.0000
vt 0.9191 0.7169 0.0000
vt 0.9275 0.7286 0.0000
vt 0.9275 0.7169 0.0000
vt 0.9346 0.7286 0.0000
vt 0.9346 0.7169 0.0000
vt 0.9404 0.7286 0.0000
vt 0.9404 0.7169 0.0000
vt 0.1655 0.7463 0.0000
vt 0.1704 0.7463 0.0000
vt 0.1595 0.7463 0.0000
vt 0.1531 0.7463 0.0000
vt 0.1471 0.7463 0.0000
vt 0.1422 0.7463 0.0000
vt 0.9083 0.0200 0.0000
vt 0.6378 0.0200 0.0000
vt 0.6378 0.0318 0.0000
vt 0.9083 0.0318 0.0000
vt 0.6282 0.0200 0.0000
vt 0.6282 0.0318 0.0000
vt 0.6198 0.0200 0.0000
vt 0.6198 0.0318 0.0000
vt 0.6128 0.0200 0.0000
vt 0.6128 0.0318 0.0000
vt 0.6070 0.0200 0.0000
vt 0.6070 0.0318 0.0000
vt 0.9179 0.0318 0.0000
vt 0.9179 0.0200 0.0000
vt 0.9263 0.0318 0.0000
vt 0.9263 0.0200 0.0000
vt 0.9334 0.0318 0.0000
vt 0.9334 0.0200 0.0000
vt 0.9392 0.0318 0.0000
vt 0.9392 0.0200 0.0000
vt 0.1471 0.3758 0.0000
vt 0.1422 0.3758 0.0000
vt 0.1531 0.3758 0.0000
vt 0.1595 0.3758 0.0000
vt 0.1655 0.3758 0.0000
vt 0.1704 0.3758 0.0000
vt 0.6378 0.6905 0.0000
vt 0.9083 0.6905 0.0000
vt 0.9083 0.7023 0.0000
vt 0.6378 0.7023 0.0000
vt 0.9179 0.6905 0.0000
vt 0.9179 0.7023 0.0000
vt 0.9263 0.6905 0.0000
vt 0.9263 0.7023 0.0000
vt 0.9334 0.6905 0.0000
vt 0.9334 0.7023 0.0000
vt 0.9392 0.6905 0.0000
vt 0.9392 0.7023 0.0000
vt 0.6282 0.7023 0.0000
vt 0.6282 0.6905 0.0000
vt 0.6198 0.7023 0.0000
vt 0.6198 0.6905 0.0000
vt 0.6128 0.7023 0.0000
vt 0.6128 0.6905 0.0000
vt 0.6070 0.7023 0.0000
vt 0.6070 0.6905 0.0000
# 330 texture coords

o Cylinder001
g Cylinder001
usemtl wire_138008110
f 1/1 2/2 20/3 19/4 
f 2/2 3/35 21/36 20/3 
f 3/5 4/6 22/7 21/8 
f 4/6 5/9 23/10 22/7 
f 5/9 6/11 24/12 23/10 
f 6/11 7/13 25/14 24/12 
f 7/13 8/15 26/16 25/14 
f 8/17 9/18 27/19 26/20 
f 9/18 10/21 28/22 27/19 
f 10/21 11/45 29/46 28/22 
f 11/45 12/47 30/63 29/46 
f 12/23 13/24 31/25 30/26 
f 13/24 14/27 32/28 31/25 
f 14/27 15/29 33/30 32/28 
f 15/29 16/31 34/32 33/30 
f 16/31 17/33 35/34 34/32 
f 17/37 18/38 36/54 35/55 
f 18/38 1/1 19/4 36/54 
f 19/4 20/3 38/56 37/72 
f 20/3 21/36 39/73 38/56 
f 21/8 22/7 40/39 39/40 
f 22/7 23/10 41/41 40/39 
f 23/10 24/12 42/42 41/41 
f 24/12 25/14 43/43 42/42 
f 25/14 26/16 44/44 43/43 
f 26/20 27/19 45/64 44/65 
f 27/19 28/22 46/81 45/64 
f 28/22 29/46 47/82 46/81 
f 29/46 30/63 48/83 47/82 
f 30/26 31/25 49/48 48/49 
f 31/25 32/28 50/50 49/48 
f 32/28 33/30 51/51 50/50 
f 33/30 34/32 52/52 51/51 
f 34/32 35/34 53/53 52/52 
f 35/55 36/54 54/74 53/90 
f 36/54 19/4 37/72 54/74 
f 37/72 38/56 56/209 55/210 
f 38/56 39/73 57/211 56/209 
f 39/40 40/39 58/57 57/58 
f 40/39 41/41 59/59 58/57 
f 41/41 42/42 60/60 59/59 
f 42/42 43/43 61/61 60/60 
f 43/43 44/44 62/62 61/61 
f 44/65 45/64 63/244 62/245 
f 45/64 46/81 64/246 63/244 
f 46/81 47/82 65/247 64/246 
f 47/82 48/83 66/248 65/247 
f 48/49 49/48 67/66 66/67 
f 49/48 50/50 68/68 67/66 
f 50/50 51/51 69/69 68/68 
f 51/51 52/52 70/70 69/69 
f 52/52 53/53 71/71 70/70 
f 53/90 54/74 72/212 71/213 
f 54/74 37/72 55/210 72/212 
f 55/210 56/209 74/214 73/215 
f 56/209 57/211 75/216 74/214 
f 57/58 58/57 76/75 75/76 
f 58/57 59/59 77/77 76/75 
f 59/59 60/60 78/78 77/77 
f 60/60 61/61 79/79 78/78 
f 61/61 62/62 80/80 79/79 
f 62/245 63/244 81/249 80/250 
f 63/244 64/246 82/251 81/249 
f 64/246 65/247 83/252 82/251 
f 65/247 66/248 84/253 83/252 
f 66/67 67/66 85/84 84/85 
f 67/66 68/68 86/86 85/84 
f 68/68 69/69 87/87 86/86 
f 69/69 70/70 88/88 87/87 
f 70/70 71/71 89/89 88/88 
f 71/213 72/212 90/217 89/218 
f 72/212 55/210 73/215 90/217 
f 73/215 74/214 92/219 91/220 
f 74/214 75/216 93/221 92/219 
f 75/76 76/75 94/279 93/280 
f 76/75 77/77 95/281 94/279 
f 77/77 78/78 96/282 95/281 
f 78/78 79/79 97/283 96/282 
f 79/79 80/80 98/284 97/283 
f 80/250 81/249 99/254 98/255 
f 81/249 82/251 100/256 99/254 
f 82/251 83/252 101/257 100/256 
f 83/252 84/253 102/258 101/257 
f 84/85 85/84 103/305 102/306 
f 85/84 86/86 104/307 103/305 
f 86/86 87/87 105/308 104/307 
f 87/87 88/88 106/309 105/308 
f 88/88 89/89 107/310 106/309 
f 89/218 90/217 108/222 107/223 
f 90/217 73/215 91/220 108/222 
f 111/91 112/92 128/93 129/94 
f 91/95 92/96 110/97 109/98 
f 92/96 93/99 111/91 110/97 
f 93/99 94/100 112/92 111/91 
f 94/100 95/101 113/102 112/92 
f 95/101 96/103 114/104 113/102 
f 96/103 97/105 115/106 114/104 
f 97/105 98/107 116/108 115/106 
f 98/107 99/109 117/110 116/108 
f 99/109 100/111 118/112 117/110 
f 100/111 101/113 119/114 118/112 
f 101/113 102/115 120/116 119/114 
f 102/115 103/117 121/118 120/116 
f 103/117 104/119 122/120 121/118 
f 104/119 105/121 123/122 122/120 
f 105/121 106/123 124/124 123/122 
f 106/123 107/125 125/126 124/124 
f 107/125 108/127 126/128 125/126 
f 108/127 91/95 109/98 126/128 
f 131/129 109/98 110/97 130/130 
f 113/102 114/104 115/106 127/131 
f 128/93 112/92 113/102 127/131 
f 110/97 111/91 129/94 130/130 
f 125/126 126/128 109/98 131/129 
f 116/108 117/110 118/112 136/132 
f 136/132 118/112 119/114 135/133 
f 135/133 119/114 120/116 134/134 
f 134/134 120/116 121/118 133/135 
f 133/135 121/118 122/120 132/136 
f 132/136 122/120 123/122 124/124 
f 124/124 125/126 131/129 132/136 
f 132/136 131/129 130/130 133/135 
f 133/135 130/130 129/94 134/134 
f 134/134 129/94 128/93 135/133 
f 135/133 128/93 127/131 136/132 
f 136/132 127/131 115/106 116/108 
f 165/137 166/138 167/139 168/140 164/141 172/142 171/143 170/144 169/145 192/146 193/147 194/148 195/149 191/150 199/151 198/152 197/153 196/154 174/155 175/156 176/157 177/158 173/159 181/160 180/161 179/162 178/163 138/164 139/165 140/166 141/167 137/168 145/169 144/170 143/171 142/172 
f 156/173 157/174 158/175 159/176 155/177 163/178 162/179 161/180 160/181 147/182 148/183 149/184 150/185 146/186 154/187 153/188 152/189 151/190 183/191 184/192 185/193 186/194 182/195 190/196 189/197 188/198 187/199 201/200 202/201 203/202 204/203 200/204 208/205 207/206 206/207 205/208 
f 165/311 142/312 147/313 160/314 
f 138/224 178/225 183/226 151/227 
f 174/285 196/286 201/287 187/288 
f 192/259 169/260 156/261 205/262 
f 147/313 142/312 143/315 148/316 
f 148/316 143/315 144/317 149/318 
f 149/318 144/317 145/319 150/320 
f 150/320 145/319 137/321 146/322 
f 165/311 160/314 161/323 166/324 
f 166/324 161/323 162/325 167/326 
f 167/326 162/325 163/327 168/328 
f 168/328 163/327 155/329 164/330 
f 183/226 178/225 179/228 184/229 
f 184/229 179/228 180/230 185/231 
f 185/231 180/230 181/232 186/233 
f 186/233 181/232 173/234 182/235 
f 138/224 151/227 152/236 139/237 
f 139/237 152/236 153/238 140/239 
f 140/239 153/238 154/240 141/241 
f 141/241 154/240 146/242 137/243 
f 201/287 196/286 197/289 202/290 
f 202/290 197/289 198/291 203/292 
f 203/292 198/291 199/293 204/294 
f 204/294 199/293 191/295 200/296 
f 174/285 187/288 188/297 175/298 
f 175/298 188/297 189/299 176/300 
f 176/300 189/299 190/301 177/302 
f 177/302 190/301 182/303 173/304 
f 156/261 169/260 170/263 157/264 
f 157/264 170/263 171/265 158/266 
f 158/266 171/265 172/267 159/268 
f 159/268 172/267 164/269 155/270 
f 192/259 205/262 206/271 193/272 
f 193/272 206/271 207/273 194/274 
f 194/274 207/273 208/275 195/276 
f 195/276 208/275 200/277 191/278 
# 164 polygons

