# 3ds Max Wavefront OBJ Exporter v0.99 - (c)2007 guruware
# File Created: 07.02.2026 09:58:26

mtllib drone.mtl

#
# object drone
#

v  3.5090 -6.2302 26.4568
v  11.9035 -0.6608 26.4568
v  20.2979 4.6061 21.0223
v  3.5090 53.3752 26.4568
v  11.9035 53.3752 26.4568
v  24.5537 53.3752 21.0223
v  3.5090 53.3752 7.0316
v  11.9035 53.3752 7.0316
v  24.5537 53.3752 7.0316
v  3.5090 53.3752 -6.9592
v  11.9035 53.3752 -6.9592
v  24.5537 53.3752 -6.9592
v  3.5090 53.3752 -7.6961
v  11.9035 53.3752 -7.6961
v  24.5537 53.3752 -11.2098
v  3.5090 13.3438 26.4568
v  11.9035 13.3438 26.4568
v  20.2979 13.3438 21.0223
v  3.5090 26.6876 26.4568
v  11.9035 26.6876 26.4568
v  20.2979 26.6876 21.0223
v  3.5090 40.0314 26.4568
v  11.9035 40.0314 26.4568
v  22.1751 40.0314 21.0223
v  22.1751 40.0314 -6.9592
v  22.1751 40.0314 -11.2098
v  11.9035 40.0314 -7.6961
v  3.5090 40.0314 -7.6961
v  3.5090 -6.2302 12.7922
v  11.9035 -0.6608 12.7922
v  20.2979 4.6061 7.3578
v  3.5090 2.2344 12.7922
v  11.9035 7.8039 12.7922
v  20.2979 13.3438 7.3578
v  3.5090 15.5516 12.7922
v  11.9035 21.1211 12.7922
v  20.2979 26.6876 7.3578
v  3.5090 29.0872 12.7922
v  11.9035 34.6567 12.7922
v  22.1751 40.0314 7.0316
v  -0.6882 -6.2302 26.4568
v  -0.6882 53.3752 26.4568
v  -0.6882 53.3752 7.0316
v  -0.6882 53.3752 -3.8169
v  -0.6882 13.3438 26.4568
v  -0.6882 26.6876 26.4568
v  -0.6882 40.0314 26.4568
v  -0.6882 15.5516 12.7922
v  -0.6882 29.0872 12.7922
v  -4.8854 53.3752 26.4568
v  -13.2799 53.3752 26.4568
v  -13.2799 53.3752 7.0316
v  -4.8854 53.3752 7.0316
v  -25.9300 53.3752 21.0223
v  -25.9300 53.3752 7.0316
v  -13.2799 53.3752 -6.9592
v  -4.8854 53.3752 -6.9592
v  -25.9300 53.3752 -6.9592
v  -13.2799 53.3752 -7.6961
v  -4.8854 53.3752 -7.6961
v  -25.9300 53.3752 -11.2098
v  -4.8854 -6.2302 26.4568
v  -13.2799 -0.6608 26.4568
v  -13.2799 13.3438 26.4568
v  -4.8854 13.3438 26.4568
v  -21.6743 4.6061 21.0223
v  -21.6743 13.3438 21.0223
v  -13.2799 26.6876 26.4568
v  -4.8854 26.6876 26.4568
v  -21.6743 26.6876 21.0223
v  -13.2799 40.0314 26.4568
v  -4.8854 40.0314 26.4568
v  -23.5515 40.0314 21.0223
v  -23.5515 40.0314 7.0316
v  -23.5515 40.0314 -6.9592
v  -23.5515 40.0314 -11.2098
v  -13.2799 40.0314 -7.6961
v  -4.8854 40.0314 -7.6961
v  -0.6882 40.0314 -7.6961
v  -0.6882 53.3752 -7.6961
v  -0.6882 -6.2302 12.7922
v  -4.8854 -6.2302 12.7922
v  -13.2799 -0.6608 12.7922
v  -21.6743 4.6061 7.3578
v  -21.6743 13.3438 7.3578
v  -21.6743 26.6876 7.3578
v  -0.6882 2.2344 12.7922
v  -4.8854 2.2344 12.7922
v  -13.2799 7.8039 12.7922
v  -4.8854 15.5516 12.7922
v  -13.2799 21.1211 12.7922
v  -4.8854 29.0872 12.7922
v  -13.2799 34.6567 12.7922
v  4.9038 36.5728 25.3684
v  6.0561 38.6076 25.3684
v  6.4430 40.9138 25.3684
v  6.0178 43.2132 25.3684
v  4.8317 45.2286 25.3684
v  3.0279 46.7167 25.3684
v  0.8239 47.4982 25.3684
v  -1.5145 47.4787 25.3684
v  -3.7051 46.6606 25.3684
v  -5.4839 45.1426 25.3684
v  -6.6362 43.1078 25.3684
v  -7.0231 40.8016 25.3684
v  -6.5978 38.5021 25.3684
v  -5.4118 36.4868 25.3684
v  -3.6080 34.9987 25.3684
v  -1.4040 34.2172 25.3684
v  0.9344 34.2367 25.3684
v  3.1251 35.0548 25.3684
v  4.9038 36.5728 30.2525
v  6.0561 38.6076 30.2525
v  6.4430 40.9138 30.2525
v  6.0178 43.2132 30.2525
v  4.8317 45.2286 30.2525
v  3.0279 46.7167 30.2525
v  0.8239 47.4982 30.2525
v  -1.5145 47.4787 30.2525
v  -3.7051 46.6606 30.2525
v  -5.4839 45.1426 30.2525
v  -6.6362 43.1078 30.2525
v  -7.0231 40.8016 30.2525
v  -6.5978 38.5021 30.2525
v  -5.4118 36.4868 30.2525
v  -3.6080 34.9987 30.2525
v  -1.4040 34.2172 30.2525
v  0.9344 34.2367 30.2525
v  3.1251 35.0548 30.2525
v  4.9038 36.5728 35.1365
v  6.0561 38.6076 35.1365
v  6.4430 40.9138 35.1365
v  6.0178 43.2132 35.1365
v  4.8317 45.2286 35.1365
v  3.0279 46.7167 35.1365
v  0.8239 47.4982 35.1365
v  -1.5145 47.4787 35.1365
v  -3.7051 46.6606 35.1365
v  -5.4839 45.1426 35.1365
v  -6.6362 43.1078 35.1365
v  -7.0231 40.8016 35.1365
v  -6.5978 38.5021 35.1365
v  -5.4118 36.4868 35.1365
v  -3.6080 34.9987 35.1365
v  -1.4040 34.2172 35.1365
v  0.9344 34.2367 35.1365
v  3.1251 35.0548 35.1365
v  4.9038 36.5728 40.0205
v  6.0561 38.6076 40.0205
v  6.4430 40.9138 40.0205
v  6.0178 43.2132 40.0205
v  4.8317 45.2286 40.0205
v  3.0279 46.7167 40.0205
v  0.8239 47.4982 40.0205
v  -1.5145 47.4787 40.0205
v  -3.7051 46.6606 40.0205
v  -5.4839 45.1426 40.0205
v  -6.6362 43.1078 40.0205
v  -7.0231 40.8016 40.0205
v  -6.5978 38.5021 40.0205
v  -5.4118 36.4868 40.0205
v  -3.6080 34.9987 40.0205
v  -1.4040 34.2172 40.0205
v  0.9344 34.2367 40.0205
v  3.1251 35.0548 40.0205
v  1.8914 29.3727 25.3684
v  2.3754 30.2273 25.3684
v  2.5379 31.1959 25.3684
v  2.3593 32.1617 25.3684
v  1.8611 33.0081 25.3684
v  1.1035 33.6331 25.3684
v  0.1778 33.9613 25.3684
v  -0.8043 33.9532 25.3684
v  -1.7244 33.6096 25.3684
v  -2.4714 32.9720 25.3684
v  -2.9554 32.1174 25.3684
v  -3.1179 31.1488 25.3684
v  -2.9393 30.1830 25.3684
v  -2.4412 29.3366 25.3684
v  -1.6836 28.7115 25.3684
v  -0.7579 28.3833 25.3684
v  0.2242 28.3915 25.3684
v  1.1443 28.7351 25.3684
v  1.8914 29.3727 28.6896
v  2.3754 30.2273 28.6896
v  2.5379 31.1959 28.6896
v  2.3592 32.1617 28.6896
v  1.8611 33.0081 28.6896
v  1.1035 33.6331 28.6896
v  0.1778 33.9613 28.6896
v  -0.8043 33.9532 28.6896
v  -1.7244 33.6096 28.6896
v  -2.4714 32.9720 28.6896
v  -2.9554 32.1174 28.6896
v  -3.1179 31.1488 28.6896
v  -2.9393 30.1830 28.6896
v  -2.4412 29.3366 28.6896
v  -1.6836 28.7115 28.6896
v  -0.7579 28.3833 28.6896
v  0.2242 28.3915 28.6896
v  1.1443 28.7351 28.6896
v  1.8914 29.3727 32.0107
v  2.3754 30.2273 32.0107
v  2.5379 31.1959 32.0107
v  2.3592 32.1617 32.0107
v  1.8611 33.0081 32.0107
v  1.1035 33.6331 32.0107
v  0.1778 33.9613 32.0107
v  -0.8043 33.9532 32.0107
v  -1.7244 33.6096 32.0107
v  -2.4714 32.9720 32.0107
v  -2.9554 32.1174 32.0107
v  -3.1179 31.1488 32.0107
v  -2.9393 30.1830 32.0107
v  -2.4412 29.3366 32.0107
v  -1.6836 28.7115 32.0107
v  -0.7579 28.3833 32.0107
v  0.2242 28.3915 32.0107
v  1.1443 28.7351 32.0107
v  1.8914 29.3727 35.3319
v  2.3754 30.2273 35.3319
v  2.5378 31.1959 35.3319
v  2.3592 32.1617 35.3319
v  1.8611 33.0081 35.3319
v  1.1035 33.6331 35.3319
v  0.1778 33.9613 35.3319
v  -0.8043 33.9532 35.3319
v  -1.7244 33.6096 35.3319
v  -2.4714 32.9720 35.3319
v  -2.9554 32.1174 35.3319
v  -3.1179 31.1488 35.3319
v  -2.9393 30.1830 35.3319
v  -2.4412 29.3366 35.3319
v  -1.6836 28.7115 35.3319
v  -0.7579 28.3833 35.3319
v  0.2242 28.3915 35.3319
v  1.1443 28.7351 35.3319
v  2.8612 38.2580 40.0205
v  3.5603 39.4925 40.0205
v  3.7950 40.8917 40.0205
v  3.5370 42.2868 40.0205
v  2.8174 43.5096 40.0205
v  1.7230 44.4124 40.0205
v  0.3858 44.8866 40.0205
v  -1.0329 44.8747 40.0205
v  -2.3620 44.3784 40.0205
v  -3.4412 43.4574 40.0205
v  -4.1403 42.2229 40.0205
v  -4.3750 40.8237 40.0205
v  -4.1171 39.4285 40.0205
v  -3.3975 38.2058 40.0205
v  -2.3031 37.3029 40.0205
v  -0.9659 36.8288 40.0205
v  0.4528 36.8406 40.0205
v  1.7820 37.3370 40.0205
v  1.0335 30.0804 35.3319
v  1.3271 30.5990 35.3319
v  1.4257 31.1866 35.3319
v  1.3173 31.7726 35.3319
v  1.0151 32.2861 35.3319
v  0.5554 32.6653 35.3319
v  -0.0062 32.8645 35.3319
v  -0.6020 32.8595 35.3319
v  -1.1603 32.6510 35.3319
v  -1.6135 32.2642 35.3319
v  -1.9072 31.7457 35.3319
v  -2.0057 31.1580 35.3319
v  -1.8974 30.5721 35.3319
v  -1.5951 30.0585 35.3319
v  -1.1355 29.6793 35.3319
v  -0.5739 29.4802 35.3319
v  0.0220 29.4852 35.3319
v  0.5802 29.6936 35.3319
v  -0.5928 31.7567 35.3319
v  0.0030 31.7616 35.3319
v  0.0079 31.1748 35.3319
v  -0.5880 31.1698 35.3319
v  -0.5831 30.5830 35.3319
v  0.0128 30.5880 35.3319
v  0.0171 30.0720 35.3319
v  -0.5788 30.0670 35.3319
v  -0.5971 32.2727 35.3319
v  -0.0013 32.2776 35.3319
v  -1.0110 42.2489 40.0205
v  0.4077 42.2608 40.0205
v  0.4193 40.8636 40.0205
v  -0.9994 40.8518 40.0205
v  -0.9877 39.4546 40.0205
v  0.4310 39.4664 40.0205
v  -2.3209 39.4435 40.0205
v  -2.3325 40.8407 40.0205
v  -2.3442 42.2378 40.0205
v  1.7408 42.2719 40.0205
v  1.7525 40.8747 40.0205
v  1.7641 39.4775 40.0205
v  57.7344 40.5001 8.8186
v  56.0756 40.5001 -0.5888
v  51.2994 40.5001 -8.8615
v  43.9817 40.5001 -15.0017
v  35.0053 40.5001 -18.2689
v  25.4528 40.5001 -18.2689
v  16.4764 40.5001 -15.0017
v  9.1587 40.5001 -8.8615
v  4.3825 40.5001 -0.5888
v  2.7237 40.5001 8.8186
v  4.3825 40.5001 18.2260
v  9.1587 40.5001 26.4987
v  16.4764 40.5001 32.6389
v  25.4528 40.5001 35.9061
v  35.0053 40.5001 35.9061
v  43.9817 40.5001 32.6389
v  51.2994 40.5001 26.4987
v  56.0756 40.5001 18.2260
v  57.7344 43.0608 8.8186
v  56.0756 43.0608 -0.5888
v  51.2994 43.0608 -8.8615
v  43.9817 43.0608 -15.0017
v  35.0053 43.0608 -18.2689
v  25.4528 43.0608 -18.2689
v  16.4764 43.0608 -15.0017
v  9.1587 43.0608 -8.8615
v  4.3825 43.0608 -0.5888
v  2.7237 43.0608 8.8186
v  4.3825 43.0608 18.2260
v  9.1587 43.0608 26.4987
v  16.4764 43.0608 32.6389
v  25.4528 43.0608 35.9061
v  35.0053 43.0608 35.9061
v  43.9817 43.0608 32.6389
v  51.2994 43.0608 26.4987
v  56.0756 43.0608 18.2260
v  44.6415 41.5853 3.5729
v  45.5665 41.5853 8.8186
v  44.6415 41.5853 14.0643
v  41.9782 41.5853 18.6773
v  37.8978 41.5853 22.1012
v  32.8924 41.5853 23.9230
v  27.5657 41.5853 23.9230
v  22.5604 41.5853 22.1012
v  18.4799 41.5853 18.6773
v  15.8166 41.5853 14.0643
v  14.8917 41.5853 8.8186
v  15.8166 41.5853 3.5729
v  18.4799 41.5853 -1.0401
v  22.5604 41.5853 -4.4640
v  27.5657 41.5853 -6.2858
v  32.8924 41.5853 -6.2858
v  37.8978 41.5853 -4.4640
v  41.9782 41.5853 -1.0401
v  45.5665 42.0898 8.8186
v  44.6415 42.0898 3.5729
v  41.9782 42.0898 -1.0401
v  37.8978 42.0898 -4.4640
v  32.8924 42.0898 -6.2858
v  27.5657 42.0898 -6.2858
v  22.5604 42.0898 -4.4640
v  18.4799 42.0898 -1.0401
v  15.8166 42.0898 3.5729
v  14.8917 42.0898 8.8186
v  15.8166 42.0898 14.0643
v  18.4799 42.0898 18.6773
v  22.5604 42.0898 22.1012
v  27.5657 42.0898 23.9230
v  32.8924 42.0898 23.9230
v  37.8978 42.0898 22.1012
v  41.9782 42.0898 18.6773
v  44.6415 42.0898 14.0643
v  56.0756 38.0602 -0.5888
v  57.7344 38.0602 8.8186
v  56.0756 38.0602 18.2260
v  51.2994 38.0602 26.4987
v  43.9817 38.0602 32.6389
v  35.0053 38.0602 35.9061
v  25.4528 38.0602 35.9061
v  16.4764 38.0602 32.6389
v  9.1587 38.0602 26.4987
v  4.3825 38.0602 18.2260
v  2.7237 38.0602 8.8186
v  4.3825 38.0602 -0.5888
v  9.1587 38.0602 -8.8615
v  16.4764 38.0602 -15.0017
v  25.4528 38.0602 -18.2689
v  35.0053 38.0602 -18.2689
v  43.9817 38.0602 -15.0017
v  51.2994 38.0602 -8.8615
v  45.5665 39.1454 8.8186
v  44.6415 39.1454 3.5729
v  41.9782 39.1454 -1.0401
v  37.8978 39.1454 -4.4640
v  32.8924 39.1454 -6.2858
v  27.5657 39.1454 -6.2858
v  22.5604 39.1454 -4.4640
v  18.4799 39.1454 -1.0401
v  15.8166 39.1454 3.5729
v  14.8917 39.1454 8.8186
v  15.8166 39.1454 14.0643
v  18.4799 39.1454 18.6773
v  22.5604 39.1454 22.1012
v  27.5657 39.1454 23.9230
v  32.8924 39.1454 23.9230
v  37.8978 39.1454 22.1012
v  41.9782 39.1454 18.6773
v  44.6415 39.1454 14.0643
v  57.7344 45.5007 8.8186
v  56.0756 45.5007 -0.5888
v  51.2994 45.5007 -8.8615
v  43.9817 45.5007 -15.0017
v  35.0053 45.5007 -18.2689
v  25.4528 45.5007 -18.2689
v  16.4764 45.5007 -15.0017
v  9.1587 45.5007 -8.8615
v  4.3825 45.5007 -0.5888
v  2.7237 45.5007 8.8186
v  4.3825 45.5007 18.2260
v  9.1587 45.5007 26.4987
v  16.4764 45.5007 32.6389
v  25.4528 45.5007 35.9061
v  35.0053 45.5007 35.9061
v  43.9817 45.5007 32.6389
v  51.2994 45.5007 26.4987
v  56.0756 45.5007 18.2260
v  44.6415 44.5298 3.5729
v  45.5665 44.5298 8.8186
v  44.6415 44.5298 14.0643
v  41.9782 44.5298 18.6773
v  37.8978 44.5298 22.1012
v  32.8924 44.5298 23.9230
v  27.5657 44.5298 23.9230
v  22.5604 44.5298 22.1012
v  18.4799 44.5298 18.6773
v  15.8166 44.5298 14.0643
v  14.8917 44.5298 8.8186
v  15.8166 44.5298 3.5729
v  18.4799 44.5298 -1.0401
v  22.5604 44.5298 -4.4640
v  27.5657 44.5298 -6.2858
v  32.8924 44.5298 -6.2858
v  37.8978 44.5298 -4.4640
v  41.9782 44.5298 -1.0401
v  38.6008 42.0898 8.8186
v  38.0959 42.0898 5.9553
v  36.6422 42.0898 3.4374
v  34.4149 42.0898 1.5685
v  31.6828 42.0898 0.5741
v  28.7753 42.0898 0.5741
v  26.0432 42.0898 1.5685
v  23.8160 42.0898 3.4374
v  22.3622 42.0898 5.9553
v  21.8573 42.0898 8.8186
v  22.3622 42.0898 11.6819
v  23.8160 42.0898 14.1998
v  26.0432 42.0898 16.0687
v  28.7753 42.0898 17.0631
v  31.6828 42.0898 17.0631
v  34.4149 42.0898 16.0687
v  36.6422 42.0898 14.1998
v  38.0959 42.0898 11.6819
v  30.9559 42.0898 7.5596
v  29.5022 42.0898 10.0776
v  32.3220 42.0898 5.1935
v  27.0225 42.0898 8.6459
v  28.4762 42.0898 6.1280
v  29.8423 42.0898 3.7619
v  34.8017 42.0898 6.6252
v  33.4356 42.0898 8.9913
v  31.9819 42.0898 11.5092
v  34.1625 42.0898 12.7682
v  35.6162 42.0898 10.2502
v  36.9823 42.0898 7.8841
v  24.8419 42.0898 7.3869
v  26.2956 42.0898 4.8690
v  27.6617 42.0898 2.5029
v  37.3106 41.5853 6.2411
v  37.7650 41.5853 8.8186
v  37.3106 41.5853 11.3961
v  36.0020 41.5853 13.6626
v  33.9970 41.5853 15.3449
v  31.5377 41.5853 16.2401
v  28.9205 41.5853 16.2401
v  26.4611 41.5853 15.3449
v  24.4562 41.5853 13.6626
v  23.1476 41.5853 11.3960
v  22.6931 41.5853 8.8186
v  23.1476 41.5853 6.2411
v  24.4562 41.5853 3.9746
v  26.4611 41.5853 2.2922
v  28.9205 41.5853 1.3971
v  31.5377 41.5853 1.3971
v  33.9971 41.5853 2.2922
v  36.0020 41.5853 3.9746
v  29.5748 41.5853 11.6342
v  31.2315 41.5853 9.6597
v  32.8883 41.5853 7.6853
v  30.8834 41.5853 6.0030
v  29.2266 41.5853 7.9774
v  27.5699 41.5853 9.9519
v  32.3403 41.5853 4.2667
v  34.3452 41.5853 5.9490
v  26.1129 41.5853 11.6882
v  28.1178 41.5853 13.3705
v  -36.0020 41.5853 13.6626
v  -33.9970 41.5853 15.3449
v  -29.5747 41.5853 11.6342
v  -31.2315 41.5853 9.6597
v  -57.7344 40.5001 8.8186
v  -56.0756 40.5001 -0.5888
v  -56.0756 43.0608 -0.5888
v  -57.7344 43.0608 8.8186
v  -51.2994 40.5001 -8.8615
v  -51.2994 43.0608 -8.8615
v  -43.9817 40.5001 -15.0017
v  -43.9817 43.0608 -15.0017
v  -35.0053 40.5001 -18.2689
v  -35.0053 43.0608 -18.2689
v  -25.4528 40.5001 -18.2689
v  -25.4528 43.0608 -18.2689
v  -16.4764 40.5001 -15.0017
v  -16.4764 43.0608 -15.0017
v  -9.1587 40.5001 -8.8615
v  -9.1587 43.0608 -8.8615
v  -4.3825 40.5001 -0.5888
v  -4.3825 43.0608 -0.5888
v  -2.7237 40.5001 8.8186
v  -2.7237 43.0608 8.8186
v  -4.3825 40.5001 18.2260
v  -4.3825 43.0608 18.2260
v  -9.1587 40.5001 26.4987
v  -9.1587 43.0608 26.4987
v  -16.4764 40.5001 32.6389
v  -16.4764 43.0608 32.6389
v  -25.4528 40.5001 35.9061
v  -25.4528 43.0608 35.9061
v  -35.0053 40.5001 35.9061
v  -35.0053 43.0608 35.9061
v  -43.9817 40.5001 32.6389
v  -43.9817 43.0608 32.6389
v  -51.2994 40.5001 26.4987
v  -51.2994 43.0608 26.4987
v  -56.0756 40.5001 18.2260
v  -56.0756 43.0608 18.2260
v  -28.7753 42.0898 0.5741
v  -26.0432 42.0898 1.5685
v  -27.6617 42.0898 2.5029
v  -56.0756 38.0602 -0.5888
v  -57.7344 38.0602 8.8186
v  -45.5665 39.1454 8.8186
v  -44.6415 39.1454 3.5729
v  -56.0756 38.0602 18.2260
v  -44.6415 39.1454 14.0643
v  -51.2994 38.0602 26.4987
v  -41.9782 39.1454 18.6773
v  -43.9817 38.0602 32.6389
v  -37.8978 39.1454 22.1012
v  -35.0053 38.0602 35.9061
v  -32.8924 39.1454 23.9230
v  -25.4528 38.0602 35.9061
v  -27.5657 39.1454 23.9230
v  -16.4764 38.0602 32.6389
v  -22.5604 39.1454 22.1012
v  -9.1587 38.0602 26.4987
v  -18.4799 39.1454 18.6773
v  -4.3825 38.0602 18.2260
v  -15.8166 39.1454 14.0643
v  -2.7237 38.0602 8.8186
v  -14.8917 39.1454 8.8186
v  -4.3825 38.0602 -0.5888
v  -15.8166 39.1454 3.5729
v  -9.1587 38.0602 -8.8615
v  -18.4799 39.1454 -1.0401
v  -16.4764 38.0602 -15.0017
v  -22.5604 39.1454 -4.4640
v  -25.4528 38.0602 -18.2689
v  -27.5658 39.1454 -6.2858
v  -35.0053 38.0602 -18.2689
v  -32.8924 39.1454 -6.2858
v  -43.9817 38.0602 -15.0017
v  -37.8978 39.1454 -4.4640
v  -51.2994 38.0602 -8.8615
v  -41.9782 39.1454 -1.0401
v  -57.7344 45.5007 8.8186
v  -56.0756 45.5007 -0.5888
v  -44.6415 44.5298 3.5729
v  -45.5665 44.5298 8.8186
v  -51.2994 45.5007 -8.8615
v  -41.9782 44.5298 -1.0401
v  -43.9817 45.5007 -15.0017
v  -37.8978 44.5298 -4.4640
v  -35.0053 45.5007 -18.2689
v  -32.8924 44.5298 -6.2858
v  -25.4528 45.5007 -18.2689
v  -27.5658 44.5298 -6.2858
v  -16.4764 45.5007 -15.0017
v  -22.5604 44.5298 -4.4640
v  -9.1587 45.5007 -8.8615
v  -18.4799 44.5298 -1.0401
v  -4.3825 45.5007 -0.5888
v  -15.8166 44.5298 3.5729
v  -2.7237 45.5007 8.8186
v  -14.8917 44.5298 8.8186
v  -4.3825 45.5007 18.2260
v  -15.8166 44.5298 14.0643
v  -9.1587 45.5007 26.4987
v  -18.4799 44.5298 18.6773
v  -16.4764 45.5007 32.6389
v  -22.5604 44.5298 22.1012
v  -25.4528 45.5007 35.9061
v  -27.5657 44.5298 23.9230
v  -35.0053 45.5007 35.9061
v  -32.8924 44.5298 23.9230
v  -43.9817 45.5007 32.6389
v  -37.8978 44.5298 22.1012
v  -51.2994 45.5007 26.4987
v  -41.9782 44.5298 18.6773
v  -56.0756 45.5007 18.2260
v  -44.6415 44.5298 14.0643
v  -45.5665 41.5853 8.8186
v  -44.6415 41.5853 3.5729
v  -41.9782 41.5853 -1.0401
v  -37.8978 41.5853 -4.4640
v  -32.8924 41.5853 -6.2858
v  -27.5658 41.5853 -6.2858
v  -22.5604 41.5853 -4.4640
v  -18.4799 41.5853 -1.0401
v  -15.8166 41.5853 3.5729
v  -14.8917 41.5853 8.8186
v  -15.8166 41.5853 14.0643
v  -18.4799 41.5853 18.6773
v  -22.5604 41.5853 22.1012
v  -27.5657 41.5853 23.9230
v  -32.8924 41.5853 23.9230
v  -37.8978 41.5853 22.1012
v  -41.9782 41.5853 18.6773
v  -44.6415 41.5853 14.0643
v  -44.6415 42.0898 3.5729
v  -45.5665 42.0898 8.8186
v  -44.6415 42.0898 14.0643
v  -41.9782 42.0898 18.6773
v  -37.8978 42.0898 22.1012
v  -32.8924 42.0898 23.9230
v  -27.5657 42.0898 23.9230
v  -22.5604 42.0898 22.1012
v  -18.4799 42.0898 18.6773
v  -15.8166 42.0898 14.0643
v  -14.8917 42.0898 8.8186
v  -15.8166 42.0898 3.5729
v  -18.4799 42.0898 -1.0401
v  -22.5604 42.0898 -4.4640
v  -27.5658 42.0898 -6.2858
v  -32.8924 42.0898 -6.2858
v  -37.8978 42.0898 -4.4640
v  -41.9782 42.0898 -1.0401
v  -38.0959 42.0898 5.9553
v  -38.6008 42.0898 8.8186
v  -36.6422 42.0898 3.4374
v  -34.4149 42.0898 1.5685
v  -31.6828 42.0898 0.5741
v  -23.8160 42.0898 3.4374
v  -22.3622 42.0898 5.9553
v  -21.8573 42.0898 8.8186
v  -22.3622 42.0898 11.6819
v  -23.8159 42.0898 14.1998
v  -26.0432 42.0898 16.0687
v  -28.7753 42.0898 17.0631
v  -31.6828 42.0898 17.0631
v  -34.4149 42.0898 16.0687
v  -36.6422 42.0898 14.1998
v  -38.0959 42.0898 11.6819
v  -34.8017 42.0898 6.6252
v  -36.9823 42.0898 7.8841
v  -24.8419 42.0898 7.3869
v  -26.2956 42.0898 4.8690
v  -31.9819 42.0898 11.5092
v  -34.1625 42.0898 12.7682
v  -35.6162 42.0898 10.2502
v  -33.4356 42.0898 8.9913
v  -29.5022 42.0898 10.0776
v  -27.0225 42.0898 8.6459
v  -30.9559 42.0898 7.5596
v  -28.4762 42.0898 6.1280
v  -32.3220 42.0898 5.1935
v  -29.8423 42.0898 3.7619
v  -37.7650 41.5853 8.8186
v  -37.3106 41.5853 6.2411
v  -37.3106 41.5853 11.3961
v  -31.5377 41.5853 16.2401
v  -28.9204 41.5853 16.2401
v  -26.4611 41.5853 15.3449
v  -24.4562 41.5853 13.6626
v  -23.1476 41.5853 11.3960
v  -22.6931 41.5853 8.8186
v  -23.1476 41.5853 6.2411
v  -24.4562 41.5853 3.9746
v  -26.4611 41.5853 2.2922
v  -28.9205 41.5853 1.3971
v  -31.5377 41.5853 1.3971
v  -33.9970 41.5853 2.2922
v  -36.0020 41.5853 3.9746
v  -32.8883 41.5853 7.6853
v  -28.1178 41.5853 13.3705
v  -34.3452 41.5853 5.9490
v  -26.1129 41.5853 11.6882
v  -27.5699 41.5853 9.9519
v  -29.2266 41.5853 7.9774
v  -30.8834 41.5853 6.0030
v  -32.3403 41.5853 4.2667
v  30.8937 11.6970 -10.5845
v  30.8937 11.6970 -5.5895
v  30.8937 11.6970 -0.5944
v  30.8937 11.6970 4.4006
v  30.8937 11.6970 9.3957
v  30.8937 11.6970 14.3907
v  30.8937 20.9207 -10.5845
v  30.8937 20.9207 -5.5895
v  30.8937 20.9207 -0.5944
v  30.8937 20.9207 4.4006
v  30.8937 20.9207 9.3957
v  30.8937 20.9207 14.3907
v  30.8937 30.1444 -10.5845
v  30.8937 30.1444 -5.5895
v  30.8937 30.1444 -0.5944
v  30.8937 30.1444 4.4006
v  30.8937 30.1444 9.3957
v  30.8937 30.1444 14.3907
v  30.8937 39.3682 -10.5845
v  30.8937 39.3682 -5.5895
v  30.8937 39.3682 -0.5944
v  30.8937 39.3682 4.4006
v  30.8937 39.3682 9.3957
v  30.8937 39.3682 14.3907
v  -30.8937 11.6970 -10.5845
v  -30.8937 11.6970 -5.5895
v  -30.8937 11.6970 -0.5944
v  -30.8937 11.6970 4.4006
v  -30.8937 11.6970 9.3957
v  -30.8937 11.6970 14.3907
v  -30.8937 20.9207 -10.5845
v  -30.8937 20.9207 -5.5895
v  -30.8937 20.9207 -0.5944
v  -30.8937 20.9207 4.4006
v  -30.8937 20.9207 9.3957
v  -30.8937 20.9207 14.3907
v  -30.8937 30.1444 -10.5845
v  -30.8937 30.1444 -5.5895
v  -30.8937 30.1444 -0.5944
v  -30.8937 30.1444 4.4006
v  -30.8937 30.1444 9.3957
v  -30.8937 30.1444 14.3907
v  -30.8937 39.3682 -10.5845
v  -30.8937 39.3682 -5.5895
v  -30.8937 39.3682 -0.5944
v  -30.8937 39.3682 4.4006
v  -30.8937 39.3682 9.3957
v  -30.8937 39.3682 14.3907
v  15.4468 11.6970 -10.5845
v  15.4468 11.6970 -5.5895
v  15.4468 11.6970 -0.5944
v  15.4468 11.6970 4.4006
v  15.4468 11.6970 9.3957
v  15.4468 11.6970 14.3907
v  15.4468 20.9207 14.3907
v  15.4468 30.1444 14.3907
v  15.4468 39.3682 14.3907
v  15.4468 39.3682 9.3957
v  15.4468 39.3682 4.4006
v  15.4468 39.3682 -0.5944
v  15.4468 39.3682 -5.5895
v  15.4468 39.3682 -10.5845
v  15.4468 30.1444 -10.5845
v  15.4468 20.9207 -10.5845
v  0.0000 11.6970 -10.5845
v  0.0000 11.6970 -5.5895
v  0.0000 11.6970 -0.5944
v  0.0000 11.6970 4.4006
v  0.0000 11.6970 9.3957
v  -0.0000 11.6970 14.3907
v  -0.0000 20.9207 14.3907
v  -0.0000 30.1444 14.3907
v  -0.0000 39.3682 14.3907
v  -0.0000 39.3682 9.3957
v  -0.0000 39.3682 4.4006
v  0.0000 39.3682 -0.5944
v  0.0000 39.3682 -5.5895
v  0.0000 39.3682 -10.5845
v  0.0000 30.1444 -10.5845
v  0.0000 20.9207 -10.5845
v  -15.4468 11.6970 -10.5845
v  -15.4468 11.6970 -5.5895
v  -15.4468 11.6970 -0.5944
v  -15.4468 11.6970 4.4006
v  -15.4468 11.6970 9.3957
v  -15.4468 11.6970 14.3907
v  -15.4468 20.9207 14.3907
v  -15.4468 30.1444 14.3907
v  -15.4468 39.3682 14.3907
v  -15.4468 39.3682 9.3957
v  -15.4468 39.3682 4.4006
v  -15.4468 39.3682 -0.5944
v  -15.4468 39.3682 -5.5895
v  -15.4468 39.3682 -10.5845
v  -15.4468 30.1444 -10.5845
v  -15.4468 20.9207 -10.5845
v  34.4119 49.1346 6.2298
v  32.5099 49.1346 -1.5151
v  27.0333 49.1346 -11.0009
v  18.6427 49.1346 -18.0414
v  5.3884 49.1346 -21.7876
v  5.3883 49.1346 37.2891
v  18.6427 49.1346 33.5429
v  27.0333 49.1346 26.5023
v  32.5099 49.1346 17.0166
v  34.4119 50.6566 6.2298
v  32.5099 50.6566 -1.5151
v  27.0333 50.6566 -11.0009
v  18.6427 50.6566 -18.0414
v  5.3884 50.6566 -21.7876
v  5.3883 50.6566 37.2891
v  18.6427 50.6566 33.5429
v  27.0333 50.6566 26.5023
v  32.5099 50.6566 17.0166
v  34.4119 52.7005 6.2298
v  32.5099 52.7005 -1.5151
v  27.0333 52.7005 -11.0009
v  18.6427 52.7005 -18.0414
v  5.3884 52.7005 -21.7876
v  5.3883 52.7005 37.2891
v  18.6427 52.7005 33.5429
v  27.0333 52.7005 26.5023
v  32.5099 52.7005 17.0166
v  34.4119 55.7321 6.2298
v  32.5099 55.7321 -1.5151
v  27.0333 55.7321 -11.0009
v  18.6427 55.7321 -18.0414
v  5.3884 55.7321 -21.7876
v  5.3883 55.7321 37.2891
v  18.6427 55.7321 33.5429
v  27.0333 55.7321 26.5023
v  32.5099 55.7321 17.0166
v  29.4542 59.4758 6.2298
v  27.8512 59.4758 0.1805
v  23.2355 59.4758 -7.8141
v  16.1639 59.4758 -13.7479
v  4.5275 59.4758 -16.9052
v  4.5274 59.4758 32.4067
v  16.1639 59.4758 29.2493
v  23.2355 59.4758 23.3155
v  27.8512 59.4758 15.3210
v  20.2023 63.8647 6.2298
v  19.1572 63.8647 3.3449
v  16.1481 63.8647 -1.8671
v  11.5379 63.8647 -5.7355
v  2.9209 63.8647 -7.7938
v  2.9209 63.8647 23.2953
v  11.5379 63.8647 21.2369
v  16.1481 63.8647 17.3685
v  19.1572 63.8647 12.1566
v  -0.0882 49.1346 37.2891
v  -0.0882 50.6566 37.2891
v  -0.0882 52.7005 -21.7876
v  -0.0882 52.7005 37.2891
v  -0.0882 55.7321 -21.7876
v  -0.0882 55.7321 37.2891
v  -0.0882 59.4758 -16.9052
v  -0.0882 59.4758 32.4067
v  -32.6864 49.1346 17.0166
v  -27.2098 49.1346 26.5023
v  -18.8192 49.1346 33.5429
v  -5.5648 49.1346 37.2891
v  -0.0882 49.1346 -21.7876
v  -5.5648 49.1346 -21.7876
v  -18.8192 49.1346 -18.0414
v  -27.2098 49.1346 -11.0009
v  -32.6864 49.1346 -1.5151
v  -34.5884 49.1346 6.2298
v  -32.6864 50.6566 -1.5151
v  -34.5884 50.6566 6.2298
v  -27.2098 50.6566 -11.0009
v  -18.8192 50.6566 -18.0414
v  -5.5648 50.6566 -21.7876
v  -0.0882 50.6566 -21.7876
v  -18.8192 50.6566 33.5429
v  -5.5648 50.6566 37.2891
v  -27.2098 50.6566 26.5023
v  -32.6864 50.6566 17.0166
v  -32.6864 52.7005 -1.5151
v  -34.5884 52.7005 6.2298
v  -27.2098 52.7005 -11.0009
v  -18.8192 52.7005 -18.0414
v  -5.5648 52.7005 -21.7876
v  -18.8192 52.7005 33.5429
v  -5.5648 52.7005 37.2891
v  -27.2098 52.7005 26.5023
v  -32.6864 52.7005 17.0166
v  -32.6864 55.7321 -1.5151
v  -34.5884 55.7321 6.2298
v  -27.2098 55.7321 -11.0009
v  -18.8192 55.7321 -18.0414
v  -5.5648 55.7321 -21.7876
v  -18.8192 55.7321 33.5429
v  -5.5648 55.7321 37.2891
v  -27.2098 55.7321 26.5023
v  -32.6864 55.7321 17.0166
v  -28.0276 59.4758 0.1805
v  -29.6306 59.4758 6.2298
v  -23.4120 59.4758 -7.8141
v  -16.3403 59.4758 -13.7479
v  -4.7039 59.4758 -16.9052
v  -16.3403 59.4758 29.2493
v  -4.7039 59.4758 32.4067
v  -23.4119 59.4758 23.3155
v  -28.0276 59.4758 15.3210
v  -19.3337 63.8647 3.3449
v  -20.3787 63.8647 6.2298
v  -16.3246 63.8647 -1.8671
v  -11.7143 63.8647 -5.7355
v  -3.0973 63.8647 -7.7938
v  -0.0882 63.8647 -7.7938
v  -11.7143 63.8647 21.2369
v  -3.0973 63.8647 23.2953
v  -16.3246 63.8647 17.3685
v  -19.3337 63.8647 12.1566
v  -0.0882 68.0797 6.2298
v  -0.0882 63.8647 23.2953
# 922 vertices

vt 0.2206 0.5879 0.0000
vt 0.2395 0.5879 0.0000
vt 0.2395 0.6694 0.0000
vt 0.2206 0.6694 0.0000
vt 0.2679 0.6107 0.0000
vt 0.2679 0.6694 0.0000
vt 0.2395 0.7282 0.0000
vt 0.2206 0.7282 0.0000
vt 0.2679 0.7282 0.0000
vt 0.2395 0.7313 0.0000
vt 0.2206 0.7313 0.0000
vt 0.2679 0.7460 0.0000
vt 0.0607 0.7442 0.0000
vt 0.0506 0.7442 0.0000
vt 0.0506 0.8057 0.0000
vt 0.1996 0.2701 0.0000
vt 0.2209 0.2921 0.0000
vt 0.2209 0.3473 0.0000
vt 0.1996 0.3473 0.0000
vt 0.2422 0.3128 0.0000
vt 0.2422 0.3473 0.0000
vt 0.2209 0.4000 0.0000
vt 0.1996 0.4000 0.0000
vt 0.2422 0.4000 0.0000
vt 0.2209 0.4527 0.0000
vt 0.1996 0.4527 0.0000
vt 0.2470 0.4527 0.0000
vt 0.6495 0.5273 0.0000
vt 0.6969 0.5273 0.0000
vt 0.6969 0.5649 0.0000
vt 0.6495 0.5649 0.0000
vt 0.7442 0.5273 0.0000
vt 0.7442 0.5649 0.0000
vt 0.7586 0.5273 0.0000
vt 0.7586 0.5649 0.0000
vt 0.2579 0.7833 0.0000
vt 0.2323 0.7833 0.0000
vt 0.2323 0.8350 0.0000
vt 0.2638 0.8350 0.0000
vt 0.2114 0.7833 0.0000
vt 0.2114 0.8350 0.0000
vt 0.0607 0.8057 0.0000
vt 0.0810 0.7442 0.0000
vt 0.0810 0.8057 0.0000
vt 0.6495 0.4523 0.0000
vt 0.6495 0.4277 0.0000
vt 0.6957 0.4277 0.0000
vt 0.2010 0.7833 0.0000
vt 0.2010 0.8350 0.0000
vt 0.0691 0.5232 0.0000
vt 0.0584 0.5232 0.0000
vt 0.0584 0.5568 0.0000
vt 0.0691 0.5568 0.0000
vt 0.0906 0.5453 0.0000
vt 0.0906 0.5789 0.0000
vt 0.1120 0.5662 0.0000
vt 0.1012 0.7687 0.0000
vt 0.2112 0.5879 0.0000
vt 0.2209 0.5053 0.0000
vt 0.2112 0.6694 0.0000
vt 0.2112 0.7150 0.0000
vt 0.2112 0.7313 0.0000
vt 0.1120 0.6009 0.0000
vt 0.1996 0.5053 0.0000
vt 0.2530 0.5053 0.0000
vt 0.1889 0.2701 0.0000
vt 0.0584 0.6097 0.0000
vt 0.1012 0.8302 0.0000
vt 0.0691 0.6097 0.0000
vt 0.0906 0.6318 0.0000
vt 0.1120 0.6539 0.0000
vt 0.2017 0.5879 0.0000
vt 0.2017 0.6694 0.0000
vt 0.1829 0.6694 0.0000
vt 0.1829 0.5879 0.0000
vt 0.1545 0.6694 0.0000
vt 0.1545 0.6107 0.0000
vt 0.2017 0.7282 0.0000
vt 0.1829 0.7282 0.0000
vt 0.1545 0.7282 0.0000
vt 0.2017 0.7313 0.0000
vt 0.1829 0.7313 0.0000
vt 0.1545 0.7460 0.0000
vt 0.0405 0.7442 0.0000
vt 0.0405 0.8057 0.0000
vt 0.1889 0.3473 0.0000
vt 0.1889 0.4000 0.0000
vt 0.0202 0.7442 0.0000
vt 0.1889 0.4527 0.0000
vt 0.1889 0.5053 0.0000
vt 0.1782 0.2701 0.0000
vt 0.1782 0.3473 0.0000
vt 0.1569 0.3473 0.0000
vt 0.1569 0.2921 0.0000
vt 0.1356 0.3473 0.0000
vt 0.1356 0.3128 0.0000
vt 0.1782 0.4000 0.0000
vt 0.1569 0.4000 0.0000
vt 0.6557 0.3528 0.0000
vt 0.6557 0.3903 0.0000
vt 0.7030 0.3903 0.0000
vt 0.7030 0.3528 0.0000
vt 0.7503 0.3903 0.0000
vt 0.7503 0.3528 0.0000
vt 0.7647 0.3903 0.0000
vt 0.7647 0.3528 0.0000
vt 0.0584 0.6634 0.0000
vt 0.0691 0.6634 0.0000
vt 0.0906 0.6855 0.0000
vt 0.1168 0.7068 0.0000
vt 0.1440 0.7833 0.0000
vt 0.1381 0.8350 0.0000
vt 0.1696 0.8350 0.0000
vt 0.1696 0.7833 0.0000
vt 0.0202 0.8057 0.0000
vt 0.0000 0.7687 0.0000
vt 0.0000 0.8302 0.0000
vt 0.6894 0.2076 0.0000
vt 0.6937 0.2076 0.0000
vt 0.6557 0.2777 0.0000
vt 0.7019 0.2777 0.0000
vt 0.7019 0.2531 0.0000
vt 0.1905 0.8350 0.0000
vt 0.1905 0.7833 0.0000
vt 0.0477 0.5232 0.0000
vt 0.0477 0.5568 0.0000
vt 0.0262 0.5453 0.0000
vt 0.0262 0.5789 0.0000
vt 0.0048 0.5662 0.0000
vt 0.0048 0.6009 0.0000
vt 0.0477 0.6097 0.0000
vt 0.0262 0.6318 0.0000
vt 0.0048 0.6539 0.0000
vt 0.0477 0.6634 0.0000
vt 0.9320 0.2332 0.0000
vt 0.9276 0.2332 0.0000
vt 0.9276 0.2114 0.0000
vt 0.9320 0.2114 0.0000
vt 0.1356 0.4000 0.0000
vt 0.1782 0.4527 0.0000
vt 0.1569 0.4527 0.0000
vt 0.1308 0.4527 0.0000
vt 0.6937 0.1858 0.0000
vt 0.0262 0.6855 0.0000
vt 0.0000 0.7068 0.0000
vt 0.8904 0.0032 0.0000
vt 0.8850 0.0001 0.0000
vt 0.9224 0.2332 0.0000
vt 0.9224 0.2114 0.0000
vt 0.9168 0.2332 0.0000
vt 0.9168 0.2114 0.0000
vt 0.9115 0.2332 0.0000
vt 0.6557 0.2531 0.0000
vt 0.6557 0.3153 0.0000
vt 0.7019 0.3153 0.0000
vt 0.6894 0.1858 0.0000
vt 0.6990 0.2076 0.0000
vt 0.6990 0.1858 0.0000
vt 0.7046 0.2076 0.0000
vt 0.7046 0.1858 0.0000
vt 0.7098 0.2076 0.0000
vt 0.6957 0.4523 0.0000
vt 0.6495 0.4898 0.0000
vt 0.6957 0.4898 0.0000
vt 0.5934 0.2650 0.0000
vt 0.9115 0.2114 0.0000
vt 0.9073 0.2332 0.0000
vt 0.9073 0.2114 0.0000
vt 0.9276 0.1895 0.0000
vt 0.9320 0.1895 0.0000
vt 0.3305 0.3105 0.0000
vt 0.3305 0.3046 0.0000
vt 0.3134 0.3046 0.0000
vt 0.7098 0.1858 0.0000
vt 0.7141 0.2076 0.0000
vt 0.7141 0.1858 0.0000
vt 0.6937 0.1640 0.0000
vt 0.6894 0.1640 0.0000
vt 0.6990 0.1640 0.0000
vt 0.5934 0.2709 0.0000
vt 0.5763 0.2709 0.0000
vt 0.5763 0.2650 0.0000
vt 0.5934 0.2776 0.0000
vt 0.9224 0.1895 0.0000
vt 0.9168 0.1895 0.0000
vt 0.9115 0.1895 0.0000
vt 0.9073 0.1895 0.0000
vt 0.9276 0.1677 0.0000
vt 0.3134 0.3105 0.0000
vt 0.3305 0.2978 0.0000
vt 0.3134 0.2978 0.0000
vt 0.7046 0.1640 0.0000
vt 0.7098 0.1640 0.0000
vt 0.7141 0.1640 0.0000
vt 0.6937 0.1422 0.0000
vt 0.6894 0.1422 0.0000
vt 0.6990 0.1422 0.0000
vt 0.1782 0.5053 0.0000
vt 0.1569 0.5053 0.0000
vt 0.1248 0.5053 0.0000
vt 0.9331 0.1184 0.0000
vt 0.9320 0.1677 0.0000
vt 0.9224 0.1677 0.0000
vt 0.9168 0.1677 0.0000
vt 0.9115 0.1677 0.0000
vt 0.9073 0.1677 0.0000
vt 0.3305 0.2911 0.0000
vt 0.3134 0.2911 0.0000
vt 0.3305 0.2853 0.0000
vt 0.7046 0.1422 0.0000
vt 0.7098 0.1422 0.0000
vt 0.7141 0.1422 0.0000
vt 0.9820 0.0445 0.0000
vt 0.9838 0.0445 0.0000
vt 0.7622 0.1867 0.0000
vt 0.7604 0.1867 0.0000
vt 0.7604 0.1718 0.0000
vt 0.7622 0.1718 0.0000
vt 0.7581 0.1867 0.0000
vt 0.7581 0.1718 0.0000
vt 0.8792 0.0000 0.0000
vt 0.8738 0.0030 0.0000
vt 0.8693 0.0087 0.0000
vt 0.8664 0.0164 0.0000
vt 0.8654 0.0252 0.0000
vt 0.8663 0.0340 0.0000
vt 0.8691 0.0418 0.0000
vt 0.8735 0.0476 0.0000
vt 0.8789 0.0508 0.0000
vt 0.8847 0.0508 0.0000
vt 0.8901 0.0478 0.0000
vt 0.8946 0.0421 0.0000
vt 0.8975 0.0344 0.0000
vt 0.9304 0.1149 0.0000
vt 0.9287 0.1102 0.0000
vt 0.9331 0.1102 0.0000
vt 0.7560 0.2589 0.0000
vt 0.7546 0.2581 0.0000
vt 0.7535 0.2567 0.0000
vt 0.7560 0.2567 0.0000
vt 0.9510 0.0886 0.0000
vt 0.9538 0.0963 0.0000
vt 0.9477 0.0997 0.0000
vt 0.9460 0.0950 0.0000
vt 0.9548 0.1052 0.0000
vt 0.9838 0.0297 0.0000
vt 0.8985 0.0256 0.0000
vt 0.8976 0.0168 0.0000
vt 0.8947 0.0090 0.0000
vt 0.9966 0.1579 0.0000
vt 0.7558 0.1867 0.0000
vt 0.7558 0.1718 0.0000
vt 0.7536 0.1867 0.0000
vt 0.7536 0.1718 0.0000
vt 0.7518 0.1867 0.0000
vt 0.3134 0.2853 0.0000
vt 0.2963 0.3046 0.0000
vt 0.2963 0.3105 0.0000
vt 0.9820 0.0297 0.0000
vt 0.9860 0.0445 0.0000
vt 0.9860 0.0297 0.0000
vt 0.9883 0.0445 0.0000
vt 0.9883 0.0297 0.0000
vt 0.9905 0.0445 0.0000
vt 0.5763 0.2776 0.0000
vt 0.5934 0.2843 0.0000
vt 0.5763 0.2843 0.0000
vt 0.5934 0.2902 0.0000
vt 0.7518 0.1718 0.0000
vt 0.7604 0.1570 0.0000
vt 0.7622 0.1570 0.0000
vt 0.7581 0.1570 0.0000
vt 0.7558 0.1570 0.0000
vt 0.2963 0.2978 0.0000
vt 0.2963 0.2911 0.0000
vt 0.2963 0.2853 0.0000
vt 0.9905 0.0297 0.0000
vt 0.9923 0.0445 0.0000
vt 0.9923 0.0297 0.0000
vt 0.9838 0.0148 0.0000
vt 0.9820 0.0148 0.0000
vt 0.9860 0.0148 0.0000
vt 0.5763 0.2902 0.0000
vt 0.5592 0.2709 0.0000
vt 0.5592 0.2650 0.0000
vt 0.5592 0.2776 0.0000
vt 0.7536 0.1570 0.0000
vt 0.7518 0.1570 0.0000
vt 0.7604 0.1422 0.0000
vt 0.7622 0.1422 0.0000
vt 0.7581 0.1422 0.0000
vt 0.2792 0.3046 0.0000
vt 0.2792 0.3105 0.0000
vt 0.2792 0.2978 0.0000
vt 0.9883 0.0148 0.0000
vt 0.9905 0.0148 0.0000
vt 0.9923 0.0148 0.0000
vt 0.9838 0.0000 0.0000
vt 0.9820 0.0000 0.0000
vt 0.9860 0.0000 0.0000
vt 0.9483 0.1051 0.0000
vt 0.9537 0.1140 0.0000
vt 0.9476 0.1104 0.0000
vt 0.9508 0.1217 0.0000
vt 0.7558 0.1422 0.0000
vt 0.7536 0.1422 0.0000
vt 0.7518 0.1422 0.0000
vt 0.0312 0.3987 0.0000
vt 0.0251 0.3945 0.0000
vt 0.2792 0.2911 0.0000
vt 0.2792 0.2853 0.0000
vt 0.9851 0.3290 0.0000
vt 0.9883 0.0000 0.0000
vt 0.9905 0.0000 0.0000
vt 0.9923 0.0000 0.0000
vt 0.8483 0.1852 0.0000
vt 0.8438 0.1782 0.0000
vt 0.0287 0.3906 0.0000
vt 0.6127 0.4809 0.0000
vt 0.6089 0.5204 0.0000
vt 0.5832 0.5029 0.0000
vt 0.5853 0.4809 0.0000
vt 0.5982 0.5552 0.0000
vt 0.9943 0.1566 0.0000
vt 0.9919 0.1566 0.0000
vt 0.9896 0.1578 0.0000
vt 0.9877 0.1602 0.0000
vt 0.9865 0.1635 0.0000
vt 0.9861 0.1672 0.0000
vt 0.9865 0.1709 0.0000
vt 0.9876 0.1741 0.0000
vt 0.9895 0.1766 0.0000
vt 0.9918 0.1779 0.0000
vt 0.9942 0.1779 0.0000
vt 0.9965 0.1767 0.0000
vt 0.9983 0.1743 0.0000
vt 0.9459 0.1151 0.0000
vt 0.9464 0.1274 0.0000
vt 0.9432 0.1186 0.0000
vt 0.9409 0.1304 0.0000
vt 0.9399 0.1204 0.0000
vt 0.9352 0.1303 0.0000
vt 0.9364 0.1203 0.0000
vt 0.9298 0.1272 0.0000
vt 0.9254 0.1214 0.0000
vt 0.9226 0.1136 0.0000
vt 0.9216 0.1047 0.0000
vt 0.9281 0.1048 0.0000
vt 0.9227 0.0959 0.0000
vt 0.9288 0.0995 0.0000
vt 0.9256 0.0882 0.0000
vt 0.9305 0.0948 0.0000
vt 0.9300 0.0825 0.0000
vt 0.9332 0.0913 0.0000
vt 0.9355 0.0795 0.0000
vt 0.9365 0.0895 0.0000
vt 0.9412 0.0796 0.0000
vt 0.9400 0.0896 0.0000
vt 0.9466 0.0827 0.0000
vt 0.9433 0.0915 0.0000
vt 0.7621 0.2456 0.0000
vt 0.7633 0.2489 0.0000
vt 0.7607 0.2503 0.0000
vt 0.7600 0.2483 0.0000
vt 0.7637 0.2526 0.0000
vt 0.7610 0.2525 0.0000
vt 0.7633 0.2563 0.0000
vt 0.7607 0.2548 0.0000
vt 0.7620 0.2595 0.0000
vt 0.7599 0.2567 0.0000
vt 0.7602 0.2619 0.0000
vt 0.7588 0.2582 0.0000
vt 0.7579 0.2632 0.0000
vt 0.7574 0.2590 0.0000
vt 0.7555 0.2631 0.0000
vt 0.7532 0.2618 0.0000
vt 0.7514 0.2594 0.0000
vt 0.7502 0.2561 0.0000
vt 0.7527 0.2547 0.0000
vt 0.7498 0.2524 0.0000
vt 0.7525 0.2524 0.0000
vt 0.7502 0.2487 0.0000
vt 0.7528 0.2502 0.0000
vt 0.7514 0.2455 0.0000
vt 0.9995 0.1710 0.0000
vt 1.0000 0.1673 0.0000
vt 0.7535 0.2482 0.0000
vt 0.7533 0.2431 0.0000
vt 0.7547 0.2468 0.0000
vt 0.7556 0.2418 0.0000
vt 0.7560 0.2460 0.0000
vt 0.7580 0.2418 0.0000
vt 0.7575 0.2460 0.0000
vt 0.7603 0.2431 0.0000
vt 0.7589 0.2468 0.0000
vt 0.7574 0.2567 0.0000
vt 0.7560 0.2502 0.0000
vt 0.7560 0.2525 0.0000
vt 0.7575 0.2502 0.0000
vt 0.7575 0.2525 0.0000
vt 0.7575 0.2547 0.0000
vt 0.7560 0.2547 0.0000
vt 0.7560 0.2482 0.0000
vt 0.7575 0.2483 0.0000
vt 0.9432 0.1104 0.0000
vt 0.9364 0.1103 0.0000
vt 0.5592 0.2843 0.0000
vt 0.5592 0.2902 0.0000
vt 0.9996 0.1636 0.0000
vt 0.9984 0.1604 0.0000
vt 0.8992 0.7755 0.0000
vt 0.8800 0.7755 0.0000
vt 0.8800 0.7859 0.0000
vt 0.8992 0.7859 0.0000
vt 0.9851 0.3265 0.0000
vt 0.9735 0.3265 0.0000
vt 0.9735 0.3290 0.0000
vt 0.9399 0.1103 0.0000
vt 0.9332 0.0995 0.0000
vt 0.9332 0.1049 0.0000
vt 0.9364 0.1049 0.0000
vt 0.9365 0.0996 0.0000
vt 0.9400 0.0996 0.0000
vt 0.5421 0.2709 0.0000
vt 0.5421 0.2650 0.0000
vt 0.5421 0.2776 0.0000
vt 0.8564 0.7755 0.0000
vt 0.8564 0.7859 0.0000
vt 0.8314 0.7755 0.0000
vt 0.8314 0.7859 0.0000
vt 0.8078 0.7755 0.0000
vt 0.8078 0.7859 0.0000
vt 0.9851 0.3237 0.0000
vt 0.9735 0.3237 0.0000
vt 0.9851 0.3209 0.0000
vt 0.9399 0.1050 0.0000
vt 0.9433 0.0997 0.0000
vt 0.9432 0.1050 0.0000
vt 0.8019 0.3162 0.0000
vt 0.8211 0.3162 0.0000
vt 0.8211 0.3267 0.0000
vt 0.5421 0.2843 0.0000
vt 0.7886 0.7755 0.0000
vt 0.7886 0.7859 0.0000
vt 0.8078 0.7655 0.0000
vt 0.7886 0.7655 0.0000
vt 0.8314 0.7655 0.0000
vt 0.9735 0.3209 0.0000
vt 0.9851 0.3184 0.0000
vt 0.9735 0.3184 0.0000
vt 0.8019 0.3267 0.0000
vt 0.8447 0.3162 0.0000
vt 0.8447 0.3267 0.0000
vt 0.8697 0.3162 0.0000
vt 0.8697 0.3267 0.0000
vt 0.8933 0.3162 0.0000
vt 0.5421 0.2902 0.0000
vt 0.8564 0.7655 0.0000
vt 0.8800 0.7655 0.0000
vt 0.8992 0.7655 0.0000
vt 0.9619 0.3265 0.0000
vt 0.9619 0.3290 0.0000
vt 0.9619 0.3237 0.0000
vt 0.8933 0.3267 0.0000
vt 0.9124 0.3162 0.0000
vt 0.9124 0.3267 0.0000
vt 0.8933 0.3063 0.0000
vt 0.9124 0.3063 0.0000
vt 0.8697 0.3063 0.0000
vt 0.8339 0.1937 0.0000
vt 0.8376 0.2020 0.0000
vt 0.4105 0.5384 0.0000
vt 0.4143 0.4988 0.0000
vt 0.3869 0.4988 0.0000
vt 0.3848 0.5209 0.0000
vt 0.4105 0.4593 0.0000
vt 0.3848 0.4768 0.0000
vt 0.3998 0.4245 0.0000
vt 0.3788 0.4574 0.0000
vt 0.3833 0.3987 0.0000
vt 0.3696 0.4430 0.0000
vt 0.3631 0.3850 0.0000
vt 0.3584 0.4354 0.0000
vt 0.3416 0.3850 0.0000
vt 0.3464 0.4354 0.0000
vt 0.3214 0.3987 0.0000
vt 0.3351 0.4430 0.0000
vt 0.5772 0.5223 0.0000
vt 0.5817 0.5810 0.0000
vt 0.5680 0.5367 0.0000
vt 0.5615 0.5947 0.0000
vt 0.5568 0.5444 0.0000
vt 0.5401 0.5947 0.0000
vt 0.5448 0.5444 0.0000
vt 0.5199 0.5810 0.0000
vt 0.5335 0.5367 0.0000
vt 0.5034 0.5552 0.0000
vt 0.5244 0.5223 0.0000
vt 0.4927 0.5204 0.0000
vt 0.5184 0.5029 0.0000
vt 0.4889 0.4809 0.0000
vt 0.5163 0.4809 0.0000
vt 0.4927 0.4414 0.0000
vt 0.5184 0.4589 0.0000
vt 0.5034 0.4066 0.0000
vt 0.3050 0.4245 0.0000
vt 0.3259 0.4574 0.0000
vt 0.2942 0.4593 0.0000
vt 0.3200 0.4768 0.0000
vt 0.2905 0.4988 0.0000
vt 0.3179 0.4988 0.0000
vt 0.2942 0.5384 0.0000
vt 0.3200 0.5209 0.0000
vt 0.3050 0.5732 0.0000
vt 0.3259 0.5403 0.0000
vt 0.3214 0.5990 0.0000
vt 0.3351 0.5547 0.0000
vt 0.3416 0.6127 0.0000
vt 0.3464 0.5623 0.0000
vt 0.3631 0.6127 0.0000
vt 0.3584 0.5623 0.0000
vt 0.3833 0.5990 0.0000
vt 0.3696 0.5547 0.0000
vt 0.3998 0.5732 0.0000
vt 0.3788 0.5403 0.0000
vt 0.8677 0.2276 0.0000
vt 0.8698 0.2055 0.0000
vt 0.8523 0.2055 0.0000
vt 0.8513 0.2164 0.0000
vt 0.8677 0.1835 0.0000
vt 0.8513 0.1947 0.0000
vt 0.8618 0.1642 0.0000
vt 0.8526 0.1498 0.0000
vt 0.8414 0.1422 0.0000
vt 0.8383 0.1744 0.0000
vt 0.8294 0.1422 0.0000
vt 0.8324 0.1744 0.0000
vt 0.8181 0.1498 0.0000
vt 0.8269 0.1782 0.0000
vt 0.8090 0.1642 0.0000
vt 0.8224 0.1852 0.0000
vt 0.5244 0.4395 0.0000
vt 0.5199 0.3808 0.0000
vt 0.5335 0.4251 0.0000
vt 0.5401 0.3671 0.0000
vt 0.5448 0.4174 0.0000
vt 0.5615 0.3671 0.0000
vt 0.5568 0.4174 0.0000
vt 0.5817 0.3808 0.0000
vt 0.5680 0.4251 0.0000
vt 0.5982 0.4066 0.0000
vt 0.5772 0.4395 0.0000
vt 0.6089 0.4414 0.0000
vt 0.5832 0.4589 0.0000
vt 0.0689 0.3641 0.0000
vt 0.0668 0.3861 0.0000
vt 0.0521 0.3761 0.0000
vt 0.0533 0.3641 0.0000
vt 0.0609 0.4054 0.0000
vt 0.0489 0.3866 0.0000
vt 0.0517 0.4198 0.0000
vt 0.0439 0.3945 0.0000
vt 0.0404 0.4275 0.0000
vt 0.0377 0.3987 0.0000
vt 0.0285 0.4275 0.0000
vt 0.0172 0.4198 0.0000
vt 0.0081 0.4054 0.0000
vt 0.0200 0.3866 0.0000
vt 0.0021 0.3861 0.0000
vt 0.0168 0.3761 0.0000
vt 0.0000 0.3641 0.0000
vt 0.0156 0.3641 0.0000
vt 0.0021 0.3420 0.0000
vt 0.0168 0.3520 0.0000
vt 0.0081 0.3227 0.0000
vt 0.0200 0.3415 0.0000
vt 0.0172 0.3083 0.0000
vt 0.0251 0.3336 0.0000
vt 0.0285 0.3007 0.0000
vt 0.0312 0.3295 0.0000
vt 0.0404 0.3007 0.0000
vt 0.0377 0.3295 0.0000
vt 0.0517 0.3083 0.0000
vt 0.0439 0.3336 0.0000
vt 0.0609 0.3227 0.0000
vt 0.0489 0.3415 0.0000
vt 0.0668 0.3420 0.0000
vt 0.0521 0.3520 0.0000
vt 0.0447 0.3733 0.0000
vt 0.0496 0.3680 0.0000
vt 0.0224 0.3701 0.0000
vt 0.0256 0.3806 0.0000
vt 0.0384 0.3528 0.0000
vt 0.0433 0.3475 0.0000
vt 0.0466 0.3580 0.0000
vt 0.0417 0.3633 0.0000
vt 0.0328 0.3588 0.0000
vt 0.0273 0.3648 0.0000
vt 0.0361 0.3693 0.0000
vt 0.0305 0.3754 0.0000
vt 0.0392 0.3793 0.0000
vt 0.0336 0.3853 0.0000
vt 0.3425 0.7480 0.0000
vt 0.3450 0.7399 0.0000
vt 0.3487 0.7438 0.0000
vt 0.5288 0.1138 0.0000
vt 0.5562 0.1138 0.0000
vt 0.5583 0.1359 0.0000
vt 0.5326 0.1533 0.0000
vt 0.5643 0.1552 0.0000
vt 0.8030 0.1835 0.0000
vt 0.8195 0.1947 0.0000
vt 0.8009 0.2055 0.0000
vt 0.8184 0.2055 0.0000
vt 0.8030 0.2276 0.0000
vt 0.8195 0.2164 0.0000
vt 0.8090 0.2469 0.0000
vt 0.8224 0.2259 0.0000
vt 0.8181 0.2613 0.0000
vt 0.8269 0.2329 0.0000
vt 0.8294 0.2689 0.0000
vt 0.8324 0.2367 0.0000
vt 0.8414 0.2689 0.0000
vt 0.8383 0.2367 0.0000
vt 0.8526 0.2613 0.0000
vt 0.8438 0.2329 0.0000
vt 0.8618 0.2469 0.0000
vt 0.8483 0.2259 0.0000
vt 0.8447 0.3063 0.0000
vt 0.8211 0.3063 0.0000
vt 0.8019 0.3063 0.0000
vt 0.0616 0.4747 0.0000
vt 0.0509 0.4747 0.0000
vt 0.0509 0.4648 0.0000
vt 0.0616 0.4648 0.0000
vt 0.0378 0.4747 0.0000
vt 0.0378 0.4648 0.0000
vt 0.0238 0.4747 0.0000
vt 0.8413 0.2103 0.0000
vt 0.8306 0.1864 0.0000
vt 0.0238 0.4648 0.0000
vt 0.0107 0.4747 0.0000
vt 0.9619 0.3209 0.0000
vt 0.9619 0.3184 0.0000
vt 0.9503 0.3265 0.0000
vt 0.9503 0.3290 0.0000
vt 0.1688 0.9462 0.0000
vt 0.1795 0.9462 0.0000
vt 0.1795 0.9363 0.0000
vt 0.1688 0.9363 0.0000
vt 0.1926 0.9462 0.0000
vt 0.1926 0.9363 0.0000
vt 0.2066 0.9462 0.0000
vt 0.2066 0.9363 0.0000
vt 0.2197 0.9462 0.0000
vt 0.2197 0.9363 0.0000
vt 0.2304 0.9462 0.0000
vt 0.2304 0.9363 0.0000
vt 0.8800 0.7959 0.0000
vt 0.8992 0.7959 0.0000
vt 0.9851 0.2705 0.0000
vt 0.9851 0.2730 0.0000
vt 0.9735 0.2730 0.0000
vt 0.9735 0.2705 0.0000
vt 0.9851 0.2758 0.0000
vt 0.9735 0.2758 0.0000
vt 0.0107 0.4648 0.0000
vt 0.0000 0.4747 0.0000
vt 0.0000 0.4648 0.0000
vt 0.8211 0.3366 0.0000
vt 0.8019 0.3366 0.0000
vt 0.8447 0.3366 0.0000
vt 0.8697 0.3366 0.0000
vt 0.8933 0.3366 0.0000
vt 0.9124 0.3366 0.0000
vt 0.6853 0.9077 0.0000
vt 0.6960 0.9077 0.0000
vt 0.6960 0.9176 0.0000
vt 0.9503 0.3237 0.0000
vt 0.9503 0.3209 0.0000
vt 0.5433 0.1881 0.0000
vt 0.5734 0.1696 0.0000
vt 0.5598 0.2139 0.0000
vt 0.8446 0.2176 0.0000
vt 0.8261 0.1935 0.0000
vt 0.8294 0.2008 0.0000
vt 0.8331 0.2091 0.0000
vt 0.8368 0.2174 0.0000
vt 0.8401 0.2247 0.0000
vt 0.8224 0.4183 0.0000
vt 0.8331 0.4351 0.0000
vt 0.8368 0.4268 0.0000
vt 0.8269 0.4112 0.0000
vt 0.3853 0.2949 0.0000
vt 0.4110 0.2774 0.0000
vt 0.4089 0.2554 0.0000
vt 0.3815 0.2554 0.0000
vt 0.4110 0.2333 0.0000
vt 0.3853 0.2158 0.0000
vt 0.4170 0.2139 0.0000
vt 0.3960 0.1811 0.0000
vt 0.4262 0.1995 0.0000
vt 0.4125 0.1553 0.0000
vt 0.4374 0.1919 0.0000
vt 0.4327 0.1415 0.0000
vt 0.4494 0.1919 0.0000
vt 0.4542 0.1415 0.0000
vt 0.4607 0.1995 0.0000
vt 0.4744 0.1553 0.0000
vt 0.4698 0.2139 0.0000
vt 0.4908 0.1811 0.0000
vt 0.4758 0.2333 0.0000
vt 0.5016 0.2158 0.0000
vt 0.4779 0.2554 0.0000
vt 0.5053 0.2554 0.0000
vt 0.4758 0.2774 0.0000
vt 0.5016 0.2949 0.0000
vt 0.4698 0.2968 0.0000
vt 0.4908 0.3297 0.0000
vt 0.5847 0.1773 0.0000
vt 0.5799 0.2276 0.0000
vt 0.5967 0.1773 0.0000
vt 0.6014 0.2276 0.0000
vt 0.6079 0.1696 0.0000
vt 0.6216 0.2139 0.0000
vt 0.6171 0.1552 0.0000
vt 0.6381 0.1881 0.0000
vt 0.6231 0.1359 0.0000
vt 0.6488 0.1533 0.0000
vt 0.6252 0.1138 0.0000
vt 0.6526 0.1138 0.0000
vt 0.6231 0.0918 0.0000
vt 0.6488 0.0743 0.0000
vt 0.6171 0.0724 0.0000
vt 0.6381 0.0395 0.0000
vt 0.6079 0.0580 0.0000
vt 0.6216 0.0137 0.0000
vt 0.5967 0.0504 0.0000
vt 0.6014 0.0000 0.0000
vt 0.5847 0.0504 0.0000
vt 0.5799 0.0000 0.0000
vt 0.5734 0.0580 0.0000
vt 0.5598 0.0137 0.0000
vt 0.5643 0.0724 0.0000
vt 0.5433 0.0395 0.0000
vt 0.5583 0.0918 0.0000
vt 0.5326 0.0743 0.0000
vt 0.3048 0.7134 0.0000
vt 0.3205 0.7134 0.0000
vt 0.3216 0.7254 0.0000
vt 0.3069 0.7354 0.0000
vt 0.3249 0.7360 0.0000
vt 0.3129 0.7548 0.0000
vt 0.3299 0.7438 0.0000
vt 0.3220 0.7692 0.0000
vt 0.9503 0.3184 0.0000
vt 0.6853 0.9176 0.0000
vt 0.7092 0.9077 0.0000
vt 0.7092 0.9176 0.0000
vt 0.7231 0.9077 0.0000
vt 0.7231 0.9176 0.0000
vt 0.7363 0.9077 0.0000
vt 0.9851 0.2786 0.0000
vt 0.9735 0.2786 0.0000
vt 0.9851 0.2811 0.0000
vt 0.8564 0.7959 0.0000
vt 0.8314 0.7959 0.0000
vt 0.8078 0.7959 0.0000
vt 0.4607 0.3112 0.0000
vt 0.4744 0.3555 0.0000
vt 0.4494 0.3189 0.0000
vt 0.4542 0.3692 0.0000
vt 0.4374 0.3189 0.0000
vt 0.4327 0.3692 0.0000
vt 0.4262 0.3112 0.0000
vt 0.4125 0.3555 0.0000
vt 0.4170 0.2968 0.0000
vt 0.3960 0.3297 0.0000
vt 0.8030 0.4606 0.0000
vt 0.8195 0.4494 0.0000
vt 0.8184 0.4386 0.0000
vt 0.8009 0.4386 0.0000
vt 0.8195 0.4278 0.0000
vt 0.8030 0.4166 0.0000
vt 0.8090 0.3972 0.0000
vt 0.8181 0.3828 0.0000
vt 0.7886 0.7959 0.0000
vt 0.3296 0.9491 0.0000
vt 0.3189 0.9491 0.0000
vt 0.9735 0.2811 0.0000
vt 0.9619 0.2730 0.0000
vt 0.9619 0.2705 0.0000
vt 0.7363 0.9176 0.0000
vt 0.7470 0.9077 0.0000
vt 0.7470 0.9176 0.0000
vt 0.9063 0.5493 0.0000
vt 0.9063 0.5597 0.0000
vt 0.8871 0.5597 0.0000
vt 0.3360 0.7480 0.0000
vt 0.3333 0.7768 0.0000
vt 0.3453 0.7768 0.0000
vt 0.3565 0.7692 0.0000
vt 0.3537 0.7360 0.0000
vt 0.3657 0.7548 0.0000
vt 0.3569 0.7254 0.0000
vt 0.3717 0.7354 0.0000
vt 0.3581 0.7134 0.0000
vt 0.3737 0.7134 0.0000
vt 0.3569 0.7014 0.0000
vt 0.3717 0.6914 0.0000
vt 0.3537 0.6908 0.0000
vt 0.3657 0.6720 0.0000
vt 0.3487 0.6830 0.0000
vt 0.3565 0.6577 0.0000
vt 0.3425 0.6788 0.0000
vt 0.3453 0.6500 0.0000
vt 0.3360 0.6788 0.0000
vt 0.3333 0.6500 0.0000
vt 0.3299 0.6830 0.0000
vt 0.3220 0.6577 0.0000
vt 0.3249 0.6908 0.0000
vt 0.3129 0.6720 0.0000
vt 0.3216 0.7014 0.0000
vt 0.3069 0.6914 0.0000
vt 0.3241 0.7173 0.0000
vt 0.3290 0.7226 0.0000
vt 0.3481 0.7300 0.0000
vt 0.3514 0.7194 0.0000
vt 0.3353 0.7021 0.0000
vt 0.3321 0.7127 0.0000
vt 0.3272 0.7074 0.0000
vt 0.3304 0.6968 0.0000
vt 0.3465 0.7141 0.0000
vt 0.3409 0.7081 0.0000
vt 0.3432 0.7247 0.0000
vt 0.3376 0.7187 0.0000
vt 0.3401 0.7346 0.0000
vt 0.3346 0.7286 0.0000
vt 0.8282 0.0000 0.0000
vt 0.8282 0.0210 0.0000
vt 0.7935 0.0210 0.0000
vt 0.7935 0.0000 0.0000
vt 0.8282 0.0419 0.0000
vt 0.7935 0.0419 0.0000
vt 0.8282 0.0629 0.0000
vt 0.7935 0.0629 0.0000
vt 0.8324 0.4074 0.0000
vt 0.8294 0.3752 0.0000
vt 0.8383 0.4074 0.0000
vt 0.8414 0.3752 0.0000
vt 0.8438 0.4112 0.0000
vt 0.8526 0.3828 0.0000
vt 0.8483 0.4183 0.0000
vt 0.8618 0.3972 0.0000
vt 0.8513 0.4278 0.0000
vt 0.8677 0.4166 0.0000
vt 0.8523 0.4386 0.0000
vt 0.8698 0.4386 0.0000
vt 0.8513 0.4494 0.0000
vt 0.8677 0.4606 0.0000
vt 0.8483 0.4589 0.0000
vt 0.8618 0.4800 0.0000
vt 0.8871 0.5493 0.0000
vt 0.8636 0.5597 0.0000
vt 0.8636 0.5493 0.0000
vt 0.8385 0.5597 0.0000
vt 0.8385 0.5493 0.0000
vt 0.8150 0.5597 0.0000
vt 0.8150 0.5493 0.0000
vt 0.7958 0.5597 0.0000
vt 0.9619 0.2758 0.0000
vt 0.9619 0.2786 0.0000
vt 0.9619 0.2811 0.0000
vt 0.9503 0.2730 0.0000
vt 0.9503 0.2705 0.0000
vt 0.9503 0.2758 0.0000
vt 0.9503 0.2786 0.0000
vt 0.9503 0.2811 0.0000
vt 0.4178 0.8972 0.0000
vt 0.4508 0.8972 0.0000
vt 0.4508 0.9047 0.0000
vt 0.4178 0.9047 0.0000
vt 0.4797 0.8972 0.0000
vt 0.4797 0.9047 0.0000
vt 0.3560 0.8972 0.0000
vt 0.3849 0.8972 0.0000
vt 0.3849 0.9047 0.0000
vt 0.3560 0.9047 0.0000
vt 0.4178 0.8901 0.0000
vt 0.4508 0.8901 0.0000
vt 0.3849 0.8901 0.0000
vt 0.3560 0.8901 0.0000
vt 0.4797 0.8901 0.0000
vt 0.9743 0.4978 0.0000
vt 0.9257 0.6731 0.0000
vt 0.8967 0.6731 0.0000
vt 0.8967 0.6805 0.0000
vt 0.9257 0.6805 0.0000
vt 0.8638 0.6731 0.0000
vt 0.8638 0.6805 0.0000
vt 0.8309 0.6731 0.0000
vt 0.8309 0.6805 0.0000
vt 0.8019 0.6731 0.0000
vt 0.8019 0.6805 0.0000
vt 0.8309 0.6660 0.0000
vt 0.8019 0.6660 0.0000
vt 0.8638 0.6660 0.0000
vt 0.8967 0.6660 0.0000
vt 0.9257 0.6660 0.0000
vt 0.5009 0.9714 0.0000
vt 0.5193 0.9714 0.0000
vt 0.5193 0.9643 0.0000
vt 0.5009 0.9643 0.0000
vt 0.5354 0.9714 0.0000
vt 0.5354 0.9643 0.0000
vt 0.4664 0.9714 0.0000
vt 0.4826 0.9714 0.0000
vt 0.4826 0.9643 0.0000
vt 0.8438 0.4660 0.0000
vt 0.8526 0.4943 0.0000
vt 0.8383 0.4697 0.0000
vt 0.8414 0.5020 0.0000
vt 0.8324 0.4697 0.0000
vt 0.8294 0.5020 0.0000
vt 0.8269 0.4660 0.0000
vt 0.8181 0.4943 0.0000
vt 0.8224 0.4589 0.0000
vt 0.8090 0.4800 0.0000
vt 0.8294 0.4434 0.0000
vt 0.8401 0.4195 0.0000
vt 0.8261 0.4506 0.0000
vt 0.8446 0.4265 0.0000
vt 0.8413 0.4338 0.0000
vt 0.8376 0.4421 0.0000
vt 0.8339 0.4504 0.0000
vt 0.8306 0.4577 0.0000
vt 0.7515 0.8704 0.0000
vt 0.7515 0.8494 0.0000
vt 0.7168 0.8494 0.0000
vt 0.7168 0.8704 0.0000
vt 0.7515 0.8284 0.0000
vt 0.7168 0.8284 0.0000
vt 0.7515 0.8075 0.0000
vt 0.7168 0.8075 0.0000
vt 0.7515 0.7865 0.0000
vt 0.7168 0.7865 0.0000
vt 0.7515 0.7655 0.0000
vt 0.7168 0.7655 0.0000
vt 0.7958 0.5493 0.0000
vt 0.7958 0.5393 0.0000
vt 0.8150 0.5393 0.0000
vt 0.8385 0.5393 0.0000
vt 0.8636 0.5393 0.0000
vt 0.8871 0.5393 0.0000
vt 0.9063 0.5393 0.0000
vt 0.3007 0.8241 0.0000
vt 0.3007 0.8141 0.0000
vt 0.3114 0.8141 0.0000
vt 0.3114 0.8241 0.0000
vt 0.3246 0.8141 0.0000
vt 0.3246 0.8241 0.0000
vt 0.3385 0.8141 0.0000
vt 0.3385 0.8241 0.0000
vt 0.3516 0.8141 0.0000
vt 0.3516 0.8241 0.0000
vt 0.3624 0.8141 0.0000
vt 0.3624 0.8241 0.0000
vt 0.9063 0.5696 0.0000
vt 0.8282 0.0839 0.0000
vt 0.7935 0.0839 0.0000
vt 0.8282 0.1048 0.0000
vt 0.7935 0.1048 0.0000
vt 0.7588 0.0210 0.0000
vt 0.7588 0.0000 0.0000
vt 0.7588 0.0419 0.0000
vt 0.7588 0.0629 0.0000
vt 0.7588 0.0839 0.0000
vt 0.7588 0.1048 0.0000
vt 0.7241 0.0210 0.0000
vt 0.7241 0.0000 0.0000
vt 0.7241 0.0419 0.0000
vt 0.7241 0.0629 0.0000
vt 0.7241 0.0839 0.0000
vt 0.7241 0.1048 0.0000
vt 0.6894 0.0210 0.0000
vt 0.6894 0.0000 0.0000
vt 0.6894 0.0419 0.0000
vt 0.6894 0.0629 0.0000
vt 0.6894 0.0839 0.0000
vt 0.6894 0.1048 0.0000
vt 0.1646 0.1384 0.0000
vt 0.1601 0.1730 0.0000
vt 0.1490 0.1654 0.0000
vt 0.1528 0.1384 0.0000
vt 0.1470 0.2153 0.0000
vt 0.1380 0.2010 0.0000
vt 0.1270 0.2466 0.0000
vt 0.1211 0.2275 0.0000
vt 0.3189 0.9590 0.0000
vt 0.3296 0.9590 0.0000
vt 0.3058 0.9491 0.0000
vt 0.3058 0.9590 0.0000
vt 0.2918 0.9491 0.0000
vt 0.2918 0.9590 0.0000
vt 0.2787 0.9491 0.0000
vt 0.2787 0.9590 0.0000
vt 0.2680 0.9491 0.0000
vt 0.2680 0.9590 0.0000
vt 0.7886 0.8431 0.0000
vt 0.7886 0.8536 0.0000
vt 0.8078 0.8536 0.0000
vt 0.8078 0.8431 0.0000
vt 0.8314 0.8536 0.0000
vt 0.8314 0.8431 0.0000
vt 0.8564 0.8536 0.0000
vt 0.8564 0.8431 0.0000
vt 0.8800 0.8536 0.0000
vt 0.8800 0.8431 0.0000
vt 0.6821 0.8494 0.0000
vt 0.6821 0.8704 0.0000
vt 0.6821 0.8284 0.0000
vt 0.6821 0.8075 0.0000
vt 0.6821 0.7865 0.0000
vt 0.8871 0.5696 0.0000
vt 0.8636 0.5696 0.0000
vt 0.8385 0.5696 0.0000
vt 0.9581 0.4978 0.0000
vt 0.9581 0.4907 0.0000
vt 0.9743 0.4907 0.0000
vt 0.8992 0.8536 0.0000
vt 0.8992 0.8431 0.0000
vt 0.8992 0.8332 0.0000
vt 0.8150 0.5696 0.0000
vt 0.7958 0.5696 0.0000
vt 0.4288 0.9491 0.0000
vt 0.9397 0.4978 0.0000
vt 0.9397 0.4907 0.0000
vt 0.9214 0.4978 0.0000
vt 0.8800 0.8332 0.0000
vt 0.8564 0.8332 0.0000
vt 0.8314 0.8332 0.0000
vt 0.4288 0.9590 0.0000
vt 0.4181 0.9590 0.0000
vt 0.4181 0.9491 0.0000
vt 0.9214 0.4907 0.0000
vt 0.0954 0.2633 0.0000
vt 0.0933 0.2416 0.0000
vt 0.0823 0.2633 0.0000
vt 0.0823 0.2416 0.0000
vt 0.0954 0.0000 0.0000
vt 0.4050 0.9590 0.0000
vt 0.4050 0.9491 0.0000
vt 0.3910 0.9590 0.0000
vt 0.1270 0.0167 0.0000
vt 0.8078 0.8332 0.0000
vt 0.7886 0.8332 0.0000
vt 0.7470 0.9649 0.0000
vt 0.7470 0.9550 0.0000
vt 0.7363 0.9550 0.0000
vt 0.7363 0.9649 0.0000
vt 0.6821 0.7655 0.0000
vt 0.6474 0.8494 0.0000
vt 0.6474 0.8704 0.0000
vt 0.6474 0.8284 0.0000
vt 0.1211 0.0358 0.0000
vt 0.0933 0.0218 0.0000
vt 0.1470 0.0481 0.0000
vt 0.1380 0.0623 0.0000
vt 0.1601 0.0904 0.0000
vt 0.1490 0.0979 0.0000
vt 0.1282 0.1513 0.0000
vt 0.1307 0.1384 0.0000
vt 0.1211 0.1745 0.0000
vt 0.1101 0.1918 0.0000
vt 0.0895 0.2010 0.0000
vt 0.0823 0.2010 0.0000
vt 0.1101 0.0716 0.0000
vt 0.0895 0.0624 0.0000
vt 0.1211 0.0888 0.0000
vt 0.1282 0.1120 0.0000
vt 0.0823 0.1384 0.0000
vt 0.0823 0.0000 0.0000
vt 0.0823 0.0218 0.0000
vt 0.0823 0.0624 0.0000
vt 0.0000 0.1384 0.0000
vt 0.0118 0.1384 0.0000
vt 0.6474 0.8075 0.0000
vt 0.7231 0.9550 0.0000
vt 0.6474 0.7865 0.0000
vt 0.3910 0.9491 0.0000
vt 0.7231 0.9649 0.0000
vt 0.7092 0.9550 0.0000
vt 0.3779 0.9590 0.0000
vt 0.7092 0.9649 0.0000
vt 0.6960 0.9550 0.0000
vt 0.3779 0.9491 0.0000
vt 0.0157 0.1654 0.0000
vt 0.6960 0.9649 0.0000
vt 0.0045 0.1730 0.0000
vt 0.3672 0.9590 0.0000
vt 0.0267 0.2010 0.0000
vt 0.0176 0.2153 0.0000
vt 0.0435 0.2275 0.0000
vt 0.0376 0.2466 0.0000
vt 0.6474 0.7655 0.0000
vt 0.6127 0.8494 0.0000
vt 0.6127 0.8704 0.0000
vt 0.6127 0.8284 0.0000
vt 0.6127 0.8075 0.0000
vt 0.6127 0.7865 0.0000
vt 0.6127 0.7655 0.0000
vt 0.3523 0.0851 0.0000
vt 0.3399 0.0453 0.0000
vt 0.3211 0.0157 0.0000
vt 0.2913 0.0000 0.0000
vt 0.4664 0.9643 0.0000
vt 0.8967 0.6876 0.0000
vt 0.6853 0.9550 0.0000
vt 0.6853 0.9649 0.0000
vt 0.7886 0.8635 0.0000
vt 0.8078 0.8635 0.0000
vt 0.8314 0.8635 0.0000
vt 0.8564 0.8635 0.0000
vt 0.8800 0.8635 0.0000
vt 0.3672 0.9491 0.0000
vt 0.5757 0.6320 0.0000
vt 0.5757 0.6673 0.0000
vt 0.5376 0.6673 0.0000
vt 0.5376 0.6320 0.0000
vt 0.5757 0.7027 0.0000
vt 0.9257 0.6876 0.0000
vt 0.8638 0.6876 0.0000
vt 0.8309 0.6876 0.0000
vt 0.8019 0.6876 0.0000
vt 0.8992 0.8635 0.0000
vt 0.9052 0.3739 0.0000
vt 0.9052 0.3839 0.0000
vt 0.9159 0.3839 0.0000
vt 0.9159 0.3739 0.0000
vt 0.9291 0.3839 0.0000
vt 0.9291 0.3739 0.0000
vt 0.5376 0.7027 0.0000
vt 0.5757 0.7380 0.0000
vt 0.5376 0.7380 0.0000
vt 0.9438 0.9598 0.0000
vt 0.0713 0.2416 0.0000
vt 0.0693 0.2633 0.0000
vt 0.0693 0.0000 0.0000
vt 0.0713 0.0218 0.0000
vt 0.0435 0.0358 0.0000
vt 0.9430 0.3839 0.0000
vt 0.9430 0.3739 0.0000
vt 0.9562 0.3839 0.0000
vt 0.9562 0.3739 0.0000
vt 0.4996 0.6673 0.0000
vt 0.4996 0.6320 0.0000
vt 0.4996 0.7027 0.0000
vt 0.0376 0.0167 0.0000
vt 0.0267 0.0623 0.0000
vt 0.0176 0.0481 0.0000
vt 0.0157 0.0979 0.0000
vt 0.0045 0.0904 0.0000
vt 0.0339 0.1384 0.0000
vt 0.0364 0.1513 0.0000
vt 0.0436 0.1745 0.0000
vt 0.0546 0.1918 0.0000
vt 0.0751 0.2010 0.0000
vt 0.0751 0.0624 0.0000
vt 0.0546 0.0716 0.0000
vt 0.0436 0.0888 0.0000
vt 0.0364 0.1120 0.0000
vt 0.2790 0.0000 0.0000
vt 0.2790 0.2480 0.0000
vt 0.2913 0.2480 0.0000
vt 0.3211 0.2322 0.0000
vt 0.3399 0.2027 0.0000
vt 0.3523 0.1629 0.0000
vt 0.3565 0.1304 0.0000
vt 0.2058 0.0851 0.0000
vt 0.2015 0.1304 0.0000
vt 0.2058 0.1629 0.0000
vt 0.2181 0.2027 0.0000
vt 0.2369 0.2322 0.0000
vt 0.4996 0.7380 0.0000
vt 0.4615 0.6673 0.0000
vt 0.4615 0.6320 0.0000
vt 0.4615 0.7027 0.0000
vt 0.2667 0.2480 0.0000
vt 0.2667 0.0000 0.0000
vt 0.2369 0.0157 0.0000
vt 0.4615 0.7380 0.0000
vt 0.4235 0.6673 0.0000
vt 0.4235 0.6320 0.0000
vt 0.4235 0.7027 0.0000
vt 0.4235 0.7380 0.0000
vt 0.2627 0.8723 0.0000
vt 0.2972 0.8723 0.0000
vt 0.2972 0.8785 0.0000
vt 0.2627 0.8785 0.0000
vt 0.3190 0.8723 0.0000
vt 0.3190 0.8785 0.0000
vt 0.2972 0.8867 0.0000
vt 0.2627 0.8867 0.0000
vt 0.3190 0.8867 0.0000
vt 0.2972 0.8990 0.0000
vt 0.2627 0.8990 0.0000
vt 0.3190 0.8990 0.0000
vt 0.2485 0.8723 0.0000
vt 0.2181 0.0453 0.0000
vt 0.9052 0.4978 0.0000
vt 0.9052 0.4907 0.0000
vt 0.4508 0.9118 0.0000
vt 0.4178 0.9118 0.0000
vt 0.4797 0.9118 0.0000
vt 0.3849 0.9118 0.0000
vt 0.3560 0.9118 0.0000
vt 0.9073 0.4212 0.0000
vt 0.9234 0.4212 0.0000
vt 0.9234 0.4283 0.0000
vt 0.9073 0.4283 0.0000
vt 0.9418 0.4212 0.0000
vt 0.9418 0.4283 0.0000
vt 0.9602 0.4212 0.0000
vt 0.9602 0.4283 0.0000
vt 0.9763 0.4212 0.0000
vt 0.9763 0.4283 0.0000
vt 0.9257 0.6141 0.0000
vt 0.9257 0.6215 0.0000
vt 0.8967 0.6215 0.0000
vt 0.8967 0.6141 0.0000
vt 0.8638 0.6215 0.0000
vt 0.8638 0.6141 0.0000
vt 0.8309 0.6215 0.0000
vt 0.8309 0.6141 0.0000
vt 0.8019 0.6215 0.0000
vt 0.8019 0.6141 0.0000
vt 0.8019 0.6070 0.0000
vt 0.8309 0.6070 0.0000
vt 0.8638 0.6070 0.0000
vt 0.8967 0.6070 0.0000
vt 0.9257 0.6070 0.0000
vt 0.8191 0.9669 0.0000
vt 0.8191 0.9598 0.0000
vt 0.8374 0.9598 0.0000
vt 0.8374 0.9669 0.0000
vt 0.8536 0.9598 0.0000
vt 0.8536 0.9669 0.0000
vt 0.7845 0.9669 0.0000
vt 0.7845 0.9598 0.0000
vt 0.8007 0.9598 0.0000
vt 0.8007 0.9669 0.0000
vt 0.9257 0.6286 0.0000
vt 0.8967 0.6286 0.0000
vt 0.8638 0.6286 0.0000
vt 0.8309 0.6286 0.0000
vt 0.8019 0.6286 0.0000
vt 0.2022 0.5426 0.0000
vt 0.2022 0.5497 0.0000
vt 0.1838 0.5497 0.0000
vt 0.1838 0.5426 0.0000
vt 0.1655 0.5497 0.0000
vt 0.1655 0.5426 0.0000
vt 0.1493 0.5497 0.0000
vt 0.1493 0.5426 0.0000
vt 0.2184 0.5426 0.0000
vt 0.2184 0.5497 0.0000
vt 0.4769 0.0000 0.0000
vt 0.4769 0.0258 0.0000
vt 0.4601 0.0258 0.0000
vt 0.4601 0.0000 0.0000
vt 0.4432 0.0258 0.0000
vt 0.4432 0.0000 0.0000
vt 0.4264 0.0258 0.0000
vt 0.4264 0.0000 0.0000
vt 0.4096 0.0258 0.0000
vt 0.4096 0.0000 0.0000
vt 0.3928 0.0258 0.0000
vt 0.3928 0.0000 0.0000
vt 0.4769 0.0517 0.0000
vt 0.4601 0.0517 0.0000
vt 0.4432 0.0517 0.0000
vt 0.4264 0.0517 0.0000
vt 0.4096 0.0517 0.0000
vt 0.3928 0.0517 0.0000
vt 0.4769 0.0775 0.0000
vt 0.4601 0.0775 0.0000
vt 0.4432 0.0775 0.0000
vt 0.4264 0.0775 0.0000
vt 0.4096 0.0775 0.0000
vt 0.3928 0.0775 0.0000
vt 0.5878 0.9077 0.0000
vt 0.6150 0.9077 0.0000
vt 0.6150 0.9121 0.0000
vt 0.5878 0.9121 0.0000
vt 0.6483 0.9077 0.0000
vt 0.6483 0.9121 0.0000
vt 0.5166 0.9077 0.0000
vt 0.5499 0.9077 0.0000
vt 0.5499 0.9121 0.0000
vt 0.5166 0.9121 0.0000
vt 0.6150 0.9181 0.0000
vt 0.5878 0.9181 0.0000
vt 0.6483 0.9181 0.0000
vt 0.5499 0.9181 0.0000
vt 0.5166 0.9181 0.0000
vt 0.6150 0.9270 0.0000
vt 0.5878 0.9270 0.0000
vt 0.6483 0.9270 0.0000
vt 0.5499 0.9270 0.0000
vt 0.5166 0.9270 0.0000
vt 0.9254 0.9598 0.0000
vt 0.9254 0.9669 0.0000
vt 0.9438 0.9669 0.0000
vt 0.9071 0.9598 0.0000
vt 0.9071 0.9669 0.0000
vt 0.8909 0.9598 0.0000
vt 0.8909 0.9669 0.0000
vt 0.9599 0.9598 0.0000
vt 0.9599 0.9669 0.0000
vt 0.8505 0.9079 0.0000
vt 0.8505 0.9154 0.0000
vt 0.8834 0.9154 0.0000
vt 0.8834 0.9079 0.0000
vt 0.9124 0.9154 0.0000
vt 0.9124 0.9079 0.0000
vt 0.7886 0.9079 0.0000
vt 0.7886 0.9154 0.0000
vt 0.8176 0.9154 0.0000
vt 0.8176 0.9079 0.0000
vt 0.8834 0.9008 0.0000
vt 0.8505 0.9008 0.0000
vt 0.8176 0.9008 0.0000
vt 0.7886 0.9008 0.0000
vt 0.9124 0.9008 0.0000
vt 0.0690 1.0000 0.0000
vt 0.0690 0.9929 0.0000
vt 0.0529 0.9929 0.0000
vt 0.0529 1.0000 0.0000
vt 0.0345 0.9929 0.0000
vt 0.0345 1.0000 0.0000
vt 0.0161 0.9929 0.0000
vt 0.0161 1.0000 0.0000
vt 0.0000 0.9929 0.0000
vt 0.0000 1.0000 0.0000
vt 0.8505 0.9225 0.0000
vt 0.8834 0.9225 0.0000
vt 0.9124 0.9225 0.0000
vt 0.7886 0.9225 0.0000
vt 0.8176 0.9225 0.0000
vt 0.5728 0.9643 0.0000
vt 0.5728 0.9714 0.0000
vt 0.5890 0.9714 0.0000
vt 0.5890 0.9643 0.0000
vt 0.6073 0.9714 0.0000
vt 0.6073 0.9643 0.0000
vt 0.6257 0.9714 0.0000
vt 0.6257 0.9643 0.0000
vt 0.6418 0.9714 0.0000
vt 0.6418 0.9643 0.0000
vt 0.4922 0.7753 0.0000
vt 0.4754 0.7753 0.0000
vt 0.4754 0.8011 0.0000
vt 0.4922 0.8011 0.0000
vt 0.4586 0.7753 0.0000
vt 0.4586 0.8011 0.0000
vt 0.4418 0.7753 0.0000
vt 0.4418 0.8011 0.0000
vt 0.4249 0.7753 0.0000
vt 0.4249 0.8011 0.0000
vt 0.4081 0.7753 0.0000
vt 0.4081 0.8011 0.0000
vt 0.4754 0.8270 0.0000
vt 0.4922 0.8270 0.0000
vt 0.4586 0.8270 0.0000
vt 0.4418 0.8270 0.0000
vt 0.4249 0.8270 0.0000
vt 0.4081 0.8270 0.0000
vt 0.4754 0.8528 0.0000
vt 0.4922 0.8528 0.0000
vt 0.4586 0.8528 0.0000
vt 0.4418 0.8528 0.0000
vt 0.4249 0.8528 0.0000
vt 0.4081 0.8528 0.0000
vt 0.0712 0.9363 0.0000
vt 0.0712 0.9407 0.0000
vt 0.0984 0.9407 0.0000
vt 0.0984 0.9363 0.0000
vt 0.1318 0.9407 0.0000
vt 0.1318 0.9363 0.0000
vt 0.0000 0.9363 0.0000
vt 0.0000 0.9407 0.0000
vt 0.0333 0.9407 0.0000
vt 0.0333 0.9363 0.0000
vt 0.0712 0.9467 0.0000
vt 0.0984 0.9467 0.0000
vt 0.1318 0.9467 0.0000
vt 0.0000 0.9467 0.0000
vt 0.0333 0.9467 0.0000
vt 0.0712 0.9556 0.0000
vt 0.0984 0.9556 0.0000
vt 0.1318 0.9556 0.0000
vt 0.0000 0.9556 0.0000
vt 0.0333 0.9556 0.0000
vt 0.9669 0.3839 0.0000
vt 0.9669 0.3739 0.0000
vt 0.7649 0.7282 0.0000
vt 0.7649 0.6929 0.0000
vt 0.7269 0.6929 0.0000
vt 0.7269 0.7282 0.0000
vt 0.7649 0.6576 0.0000
vt 0.7269 0.6576 0.0000
vt 0.7649 0.6223 0.0000
vt 0.7269 0.6223 0.0000
vt 0.6888 0.6929 0.0000
vt 0.6888 0.7282 0.0000
vt 0.6888 0.6576 0.0000
vt 0.6888 0.6223 0.0000
vt 0.6508 0.6929 0.0000
vt 0.6508 0.7282 0.0000
vt 0.6508 0.6576 0.0000
vt 0.6508 0.6223 0.0000
vt 0.6127 0.6929 0.0000
vt 0.6127 0.7282 0.0000
vt 0.6127 0.6576 0.0000
vt 0.6127 0.6223 0.0000
vt 0.1410 0.8723 0.0000
vt 0.1192 0.8723 0.0000
vt 0.1192 0.8785 0.0000
vt 0.1410 0.8785 0.0000
vt 0.0847 0.8723 0.0000
vt 0.0847 0.8785 0.0000
vt 0.0705 0.8723 0.0000
vt 0.0705 0.8785 0.0000
vt 0.1192 0.8867 0.0000
vt 0.1410 0.8867 0.0000
vt 0.0847 0.8867 0.0000
vt 0.0705 0.8867 0.0000
vt 0.1192 0.8990 0.0000
vt 0.1410 0.8990 0.0000
vt 0.0847 0.8990 0.0000
vt 0.0705 0.8990 0.0000
vt 0.0000 0.8723 0.0000
vt 0.0000 0.8785 0.0000
vt 0.0218 0.8785 0.0000
vt 0.0218 0.8723 0.0000
vt 0.0563 0.8785 0.0000
vt 0.0563 0.8723 0.0000
vt 0.0000 0.8867 0.0000
vt 0.0218 0.8867 0.0000
vt 0.0563 0.8867 0.0000
vt 0.0000 0.8990 0.0000
vt 0.0218 0.8990 0.0000
vt 0.0563 0.8990 0.0000
vt 0.2485 0.8785 0.0000
vt 0.2485 0.8867 0.0000
vt 0.2485 0.8990 0.0000
vt 0.2342 0.8723 0.0000
vt 0.2342 0.8785 0.0000
vt 0.1998 0.8785 0.0000
vt 0.1998 0.8723 0.0000
vt 0.1780 0.8785 0.0000
vt 0.1780 0.8723 0.0000
vt 0.2342 0.8867 0.0000
vt 0.1998 0.8867 0.0000
vt 0.1780 0.8867 0.0000
vt 0.2342 0.8990 0.0000
vt 0.1998 0.8990 0.0000
vt 0.1780 0.8990 0.0000
# 1468 texture coords

o drone
g drone
usemtl wire_198225087
f 4/1 5/2 8/3 7/4 
f 5/2 6/5 9/6 8/3 
f 7/4 8/3 11/7 10/8 
f 8/3 9/6 12/9 11/7 
f 10/8 11/7 14/10 13/11 
f 11/7 12/9 15/12 14/10 
f 1/16 2/17 17/18 16/19 
f 2/17 3/20 18/21 17/18 
f 16/19 17/18 20/22 19/23 
f 17/18 18/21 21/24 20/22 
f 19/23 20/22 23/25 22/26 
f 20/22 21/24 24/27 23/25 
f 22/26 23/25 5/59 4/64 
f 23/25 24/27 6/65 5/59 
f 24/28 40/29 9/30 6/31 
f 40/29 25/32 12/33 9/30 
f 25/32 26/34 15/35 12/33 
f 26/36 27/37 14/38 15/39 
f 27/37 28/40 13/41 14/38 
f 28/40 79/48 80/49 13/41 
f 1/13 41/14 81/15 29/42 
f 2/43 1/13 29/42 30/44 
f 3/57 2/43 30/44 31/68 
f 18/45 3/46 31/47 34/162 
f 21/163 18/45 34/162 37/164 
f 24/28 21/163 37/164 40/29 
f 29/50 81/51 87/52 32/53 
f 30/54 29/50 32/53 33/55 
f 31/56 30/54 33/55 34/63 
f 32/53 87/52 48/67 35/69 
f 33/55 32/53 35/69 36/70 
f 34/63 33/55 36/70 37/71 
f 35/69 48/67 49/107 38/108 
f 36/70 35/69 38/108 39/109 
f 37/71 36/70 39/109 40/110 
f 42/58 4/1 7/4 43/60 
f 43/60 7/4 10/8 44/61 
f 44/61 10/8 13/11 80/62 
f 41/66 1/16 16/19 45/86 
f 45/86 16/19 19/23 46/87 
f 46/87 19/23 22/26 47/89 
f 47/89 22/26 4/64 42/90 
f 50/72 53/73 52/74 51/75 
f 51/75 52/74 55/76 54/77 
f 53/73 57/78 56/79 52/74 
f 52/74 56/79 58/80 55/76 
f 57/78 60/81 59/82 56/79 
f 56/79 59/82 61/83 58/80 
f 62/91 65/92 64/93 63/94 
f 63/94 64/93 67/95 66/96 
f 65/92 69/97 68/98 64/93 
f 64/93 68/98 70/139 67/95 
f 69/97 72/140 71/141 68/98 
f 68/98 71/141 73/142 70/139 
f 72/140 50/198 51/199 71/141 
f 71/141 51/199 54/200 73/142 
f 73/99 54/100 55/101 74/102 
f 74/102 55/101 58/103 75/104 
f 75/104 58/103 61/105 76/106 
f 76/111 61/112 59/113 77/114 
f 77/114 59/113 60/123 78/124 
f 78/124 60/123 80/49 79/48 
f 62/84 82/85 81/15 41/14 
f 63/88 83/115 82/85 62/84 
f 66/116 84/117 83/115 63/88 
f 67/120 85/121 84/122 66/153 
f 70/154 86/155 85/121 67/120 
f 73/99 74/102 86/155 70/154 
f 82/125 88/126 87/52 81/51 
f 83/127 89/128 88/126 82/125 
f 84/129 85/130 89/128 83/127 
f 88/126 90/131 48/67 87/52 
f 89/128 91/132 90/131 88/126 
f 85/130 86/133 91/132 89/128 
f 90/131 92/134 49/107 48/67 
f 91/132 93/144 92/134 90/131 
f 86/133 74/145 93/144 91/132 
f 42/58 43/60 53/73 50/72 
f 43/60 44/61 57/78 53/73 
f 44/61 80/62 60/81 57/78 
f 41/66 45/86 65/92 62/91 
f 45/86 46/87 69/97 65/92 
f 46/87 47/89 72/140 69/97 
f 47/89 42/90 50/198 72/140 
f 111/146 110/147 109/221 108/222 107/223 106/224 105/225 104/226 103/227 102/228 101/229 100/230 99/231 98/232 97/233 96/247 95/248 94/249 
f 94/165 95/180 113/181 112/182 
f 95/180 96/183 114/265 113/181 
f 96/183 97/266 115/267 114/265 
f 97/266 98/268 116/283 115/267 
f 98/135 99/136 117/137 116/138 
f 99/136 100/148 118/149 117/137 
f 100/148 101/150 119/151 118/149 
f 101/150 102/152 120/166 119/151 
f 102/152 103/167 121/168 120/166 
f 103/171 104/172 122/173 121/189 
f 104/172 105/190 123/191 122/173 
f 105/190 106/207 124/208 123/191 
f 106/207 107/209 125/256 124/208 
f 107/118 108/119 126/143 125/156 
f 108/119 109/157 127/158 126/143 
f 109/157 110/159 128/160 127/158 
f 110/159 111/161 129/174 128/160 
f 111/161 94/175 112/176 129/174 
f 112/182 113/181 131/284 130/285 
f 113/181 114/265 132/286 131/284 
f 114/265 115/267 133/407 132/286 
f 115/267 116/283 134/408 133/407 
f 116/138 117/137 135/169 134/170 
f 117/137 118/149 136/184 135/169 
f 118/149 119/151 137/185 136/184 
f 119/151 120/166 138/186 137/185 
f 120/166 121/168 139/187 138/186 
f 121/189 122/173 140/257 139/258 
f 122/173 123/191 141/274 140/257 
f 123/191 124/208 142/275 141/274 
f 124/208 125/256 143/276 142/275 
f 125/156 126/143 144/177 143/178 
f 126/143 127/158 145/179 144/177 
f 127/158 128/160 146/192 145/179 
f 128/160 129/174 147/193 146/192 
f 129/174 112/176 130/194 147/193 
f 130/285 131/284 149/424 148/425 
f 131/284 132/286 150/426 149/424 
f 132/286 133/407 151/442 150/426 
f 133/407 134/408 152/457 151/442 
f 134/170 135/169 153/188 152/202 
f 135/169 136/184 154/203 153/188 
f 136/184 137/185 155/204 154/203 
f 137/185 138/186 156/205 155/204 
f 138/186 139/187 157/206 156/205 
f 139/258 140/257 158/292 157/293 
f 140/257 141/274 159/294 158/292 
f 141/274 142/275 160/310 159/294 
f 142/275 143/276 161/311 160/310 
f 143/178 144/177 162/195 161/196 
f 144/177 145/179 163/197 162/195 
f 145/179 146/192 164/210 163/197 
f 146/192 147/193 165/211 164/210 
f 147/193 130/194 148/212 165/211 
f 246/201 247/234 248/235 292/236 
f 183/250 182/324 181/325 180/326 179/327 178/328 177/329 176/330 175/331 174/332 173/333 172/334 171/335 170/336 169/385 168/386 167/409 166/410 
f 166/661 167/662 185/663 184/664 
f 167/662 168/665 186/666 185/663 
f 168/665 169/763 187/764 186/666 
f 169/763 170/765 188/790 187/764 
f 170/215 171/216 189/217 188/218 
f 171/216 172/219 190/220 189/217 
f 172/219 173/251 191/252 190/220 
f 173/251 174/253 192/254 191/252 
f 174/253 175/255 193/269 192/254 
f 175/312 176/415 194/416 193/417 
f 176/415 177/433 195/434 194/416 
f 177/433 178/435 196/448 195/434 
f 178/435 179/449 197/450 196/448 
f 179/213 180/214 198/246 197/259 
f 180/214 181/260 199/261 198/246 
f 181/260 182/262 200/263 199/261 
f 182/262 183/264 201/277 200/263 
f 183/264 166/278 184/279 201/277 
f 184/664 185/663 203/791 202/792 
f 185/663 186/666 204/871 203/791 
f 186/666 187/764 205/872 204/871 
f 187/764 188/790 206/873 205/872 
f 188/218 189/217 207/270 206/271 
f 189/217 190/220 208/272 207/270 
f 190/220 191/252 209/273 208/272 
f 191/252 192/254 210/287 209/273 
f 192/254 193/269 211/288 210/287 
f 193/417 194/416 212/461 211/462 
f 194/416 195/434 213/463 212/461 
f 195/434 196/448 214/643 213/463 
f 196/448 197/450 215/644 214/643 
f 197/259 198/246 216/280 215/281 
f 198/246 199/261 217/282 216/280 
f 199/261 200/263 218/295 217/282 
f 200/263 201/277 219/296 218/295 
f 201/277 184/279 202/297 219/296 
f 202/792 203/791 221/874 220/875 
f 203/791 204/871 222/876 221/874 
f 204/871 205/872 223/877 222/876 
f 205/872 206/873 224/878 223/877 
f 206/271 207/270 225/289 224/290 
f 207/270 208/272 226/291 225/289 
f 208/272 209/273 227/305 226/291 
f 209/273 210/287 228/306 227/305 
f 210/287 211/288 229/307 228/306 
f 211/462 212/461 230/645 229/646 
f 212/461 213/463 231/679 230/645 
f 213/463 214/643 232/680 231/679 
f 214/643 215/644 233/756 232/680 
f 215/281 216/280 234/298 233/299 
f 216/280 217/282 235/300 234/298 
f 217/282 218/295 236/313 235/300 
f 218/295 219/296 237/314 236/313 
f 219/296 202/297 220/315 237/314 
f 263/237 264/238 265/239 282/240 
f 148/241 149/242 239/243 238/244 
f 149/242 150/245 240/301 239/243 
f 150/245 151/302 241/303 240/301 
f 151/302 152/304 242/337 241/303 
f 152/304 153/338 243/339 242/337 
f 153/338 154/340 244/341 243/339 
f 154/340 155/342 245/343 244/341 
f 155/342 156/344 246/201 245/343 
f 156/344 157/345 247/234 246/201 
f 157/345 158/346 248/235 247/234 
f 158/346 159/347 249/348 248/235 
f 159/347 160/349 250/350 249/348 
f 160/349 161/351 251/352 250/350 
f 161/351 162/353 252/354 251/352 
f 162/353 163/355 253/356 252/354 
f 163/355 164/357 254/358 253/356 
f 164/357 165/359 255/360 254/358 
f 165/359 148/241 238/244 255/360 
f 220/361 221/362 257/363 256/364 
f 221/362 222/365 258/366 257/363 
f 222/365 223/367 259/368 258/366 
f 223/367 224/369 260/370 259/368 
f 224/369 225/371 261/372 260/370 
f 225/371 226/373 262/374 261/372 
f 226/373 227/375 263/237 262/374 
f 227/375 228/376 264/238 263/237 
f 228/376 229/377 265/239 264/238 
f 229/377 230/378 266/379 265/239 
f 230/378 231/380 267/381 266/379 
f 231/380 232/382 268/383 267/381 
f 232/382 233/384 269/387 268/383 
f 233/384 234/388 270/389 269/387 
f 234/388 235/390 271/391 270/389 
f 235/390 236/392 272/393 271/391 
f 236/392 237/394 273/395 272/393 
f 237/394 220/361 256/364 273/395 
f 260/370 261/372 262/374 283/396 
f 262/374 263/237 282/240 283/396 
f 267/381 268/383 278/397 277/398 
f 277/398 278/397 279/399 276/400 
f 276/400 279/399 257/363 258/366 
f 258/366 259/368 275/401 276/400 
f 276/400 275/401 274/402 277/398 
f 277/398 274/402 266/379 267/381 
f 269/387 270/389 271/391 281/403 
f 281/403 271/391 272/393 280/404 
f 280/404 272/393 273/395 256/364 
f 256/364 257/363 279/399 280/404 
f 280/404 279/399 278/397 281/403 
f 281/403 278/397 268/383 269/387 
f 265/239 266/379 274/402 282/240 
f 282/240 274/402 275/401 283/396 
f 283/396 275/401 259/368 260/370 
f 241/303 242/337 243/339 293/405 
f 244/341 245/343 284/406 285/418 
f 249/348 250/350 290/419 291/420 
f 287/421 288/422 289/423 286/436 
f 295/437 239/243 240/301 294/438 
f 240/301 241/303 293/405 294/438 
f 286/436 285/418 284/406 287/421 
f 292/236 248/235 249/348 291/420 
f 250/350 251/352 252/354 290/419 
f 288/422 253/356 254/358 289/423 
f 255/360 238/244 239/243 295/437 
f 252/354 253/356 288/422 290/419 
f 290/419 288/422 287/421 291/420 
f 291/420 287/421 284/406 292/236 
f 292/236 284/406 245/343 246/201 
f 243/339 244/341 285/418 293/405 
f 293/405 285/418 286/436 294/438 
f 294/438 286/436 289/423 295/437 
f 295/437 289/423 254/358 255/360 
f 476/316 477/317 491/470 492/471 
f 296/879 297/880 315/881 314/882 
f 297/880 298/883 316/884 315/881 
f 298/411 299/412 317/413 316/414 
f 299/412 300/427 318/428 317/413 
f 300/427 301/429 319/430 318/428 
f 301/429 302/431 320/432 319/430 
f 302/431 303/443 321/444 320/432 
f 303/895 304/896 322/897 321/898 
f 304/896 305/899 323/900 322/897 
f 305/899 306/901 324/902 323/900 
f 306/901 307/903 325/904 324/902 
f 307/439 308/440 326/441 325/451 
f 308/440 309/452 327/453 326/441 
f 309/452 310/454 328/455 327/453 
f 310/454 311/456 329/464 328/455 
f 311/456 312/465 330/466 329/464 
f 312/885 313/886 331/887 330/888 
f 313/886 296/879 314/882 331/887 
f 445/308 446/309 472/318 
f 368/472 369/473 386/474 387/475 
f 369/473 370/476 403/477 386/474 
f 370/476 371/478 402/479 403/477 
f 371/478 372/480 401/481 402/479 
f 372/480 373/482 400/483 401/481 
f 373/482 374/484 399/485 400/483 
f 374/484 375/486 398/487 399/485 
f 375/486 376/506 397/507 398/487 
f 376/506 377/508 396/509 397/507 
f 377/508 378/510 395/511 396/509 
f 378/510 379/512 394/513 395/511 
f 379/512 380/514 393/515 394/513 
f 380/514 381/516 392/517 393/515 
f 381/516 382/518 391/519 392/517 
f 382/518 383/520 390/521 391/519 
f 383/520 384/522 389/523 390/521 
f 384/522 385/524 388/525 389/523 
f 385/524 368/472 387/475 388/525 
f 404/319 405/320 422/321 423/322 
f 405/320 406/323 439/488 422/321 
f 406/323 407/489 438/490 439/488 
f 407/489 408/491 437/492 438/490 
f 408/491 409/493 436/494 437/492 
f 409/493 410/495 435/496 436/494 
f 410/495 411/497 434/498 435/496 
f 411/497 412/499 433/500 434/498 
f 412/499 413/501 432/502 433/500 
f 413/501 414/503 431/504 432/502 
f 414/503 415/505 430/542 431/504 
f 415/505 416/543 429/544 430/542 
f 416/543 417/545 428/546 429/544 
f 417/545 418/547 427/548 428/546 
f 418/547 419/549 426/550 427/548 
f 419/549 420/551 425/552 426/550 
f 420/551 421/553 424/554 425/552 
f 421/553 404/319 423/322 424/554 
f 297/880 296/879 369/889 368/890 
f 296/879 313/886 370/891 369/889 
f 313/886 312/885 371/892 370/891 
f 312/465 311/456 372/467 371/468 
f 311/456 310/454 373/469 372/467 
f 310/454 309/452 374/629 373/469 
f 309/452 308/440 375/630 374/629 
f 308/440 307/439 376/631 375/630 
f 307/903 306/901 377/905 376/906 
f 306/901 305/899 378/907 377/905 
f 305/899 304/896 379/908 378/907 
f 304/896 303/895 380/909 379/908 
f 303/443 302/431 381/445 380/446 
f 302/431 301/429 382/447 381/445 
f 301/429 300/427 383/458 382/447 
f 300/427 299/412 384/459 383/458 
f 299/412 298/411 385/460 384/459 
f 298/883 297/880 368/890 385/893 
f 333/910 332/911 387/912 386/913 
f 332/911 349/914 388/915 387/912 
f 349/632 348/633 389/634 388/635 
f 348/633 347/636 390/637 389/634 
f 347/636 346/638 391/641 390/637 
f 346/638 345/642 392/667 391/641 
f 345/642 344/668 393/669 392/667 
f 344/894 343/1027 394/1028 393/1029 
f 343/1027 342/1036 395/1037 394/1028 
f 342/1036 341/1038 396/1045 395/1037 
f 341/1038 340/1210 397/1211 396/1045 
f 340/647 339/648 398/649 397/650 
f 339/648 338/651 399/652 398/649 
f 338/651 337/653 400/654 399/652 
f 337/653 336/655 401/656 400/654 
f 336/655 335/657 402/658 401/656 
f 335/916 334/917 403/918 402/1116 
f 334/917 333/910 386/913 403/918 
f 314/882 315/881 405/1212 404/1213 
f 315/881 316/884 406/1214 405/1212 
f 316/414 317/413 407/659 406/660 
f 317/413 318/428 408/766 407/659 
f 318/428 319/430 409/767 408/766 
f 319/430 320/432 410/768 409/767 
f 320/432 321/444 411/787 410/768 
f 321/898 322/897 412/1117 411/1131 
f 322/897 323/900 413/1132 412/1117 
f 323/900 324/902 414/1133 413/1132 
f 324/902 325/904 415/1134 414/1133 
f 325/451 326/441 416/670 415/671 
f 326/441 327/453 417/672 416/670 
f 327/453 328/455 418/673 417/672 
f 328/455 329/464 419/674 418/673 
f 329/464 330/466 420/675 419/674 
f 330/888 331/887 421/1215 420/1216 
f 331/887 314/882 404/1213 421/1215 
f 351/1145 350/1311 423/1312 422/1313 
f 350/1311 367/1314 424/1315 423/1312 
f 367/1314 366/1316 425/1317 424/1315 
f 366/788 365/789 426/999 425/1000 
f 365/789 364/1001 427/1002 426/999 
f 364/1001 363/1003 428/1004 427/1002 
f 363/1003 362/1005 429/1006 428/1004 
f 362/1005 361/1007 430/1008 429/1006 
f 361/1217 360/1218 431/1219 430/1220 
f 360/1218 359/1221 432/1222 431/1219 
f 359/1221 358/1223 433/1224 432/1222 
f 358/1223 357/1225 434/1226 433/1224 
f 357/676 356/677 435/678 434/757 
f 356/677 355/758 436/759 435/678 
f 355/758 354/760 437/761 436/759 
f 354/760 353/762 438/793 437/761 
f 353/762 352/794 439/795 438/793 
f 352/1318 351/1145 422/1313 439/1319 
f 350/555 351/556 441/557 440/558 
f 351/556 352/559 442/560 441/557 
f 352/559 353/561 443/562 442/560 
f 353/561 354/563 444/564 443/562 
f 354/563 355/565 445/308 444/564 
f 355/565 356/566 446/309 445/308 
f 356/566 357/567 447/568 446/309 
f 357/567 358/569 448/570 447/568 
f 358/569 359/571 449/572 448/570 
f 359/571 360/573 450/574 449/572 
f 360/573 361/575 451/576 450/574 
f 361/575 362/577 452/578 451/576 
f 362/577 363/579 453/580 452/578 
f 363/579 364/581 454/582 453/580 
f 364/581 365/583 455/584 454/582 
f 365/583 366/585 456/586 455/584 
f 366/585 367/587 457/588 456/586 
f 367/587 350/555 440/558 457/588 
f 441/557 442/560 464/589 469/590 
f 447/568 448/570 470/591 471/592 
f 466/593 467/594 468/595 465/596 
f 448/570 449/572 450/574 470/591 
f 453/580 454/582 467/594 466/593 
f 446/309 447/568 471/592 472/318 
f 465/596 468/595 469/590 464/589 
f 451/576 452/578 459/597 461/598 
f 461/598 459/597 458/599 462/600 
f 462/600 458/599 460/601 463/602 
f 463/602 460/601 443/562 444/564 
f 442/560 443/562 460/601 464/589 
f 464/589 460/601 458/599 465/596 
f 465/596 458/599 459/597 466/593 
f 466/593 459/597 452/578 453/580 
f 454/582 455/584 456/586 467/594 
f 467/594 456/586 457/588 468/595 
f 468/595 457/588 440/558 469/590 
f 469/590 440/558 441/557 
f 450/574 451/576 461/598 470/591 
f 470/591 461/598 462/600 471/592 
f 471/592 462/600 463/602 472/318 
f 472/318 463/602 444/564 445/308 
f 332/526 333/527 474/528 473/529 
f 333/527 334/530 475/531 474/528 
f 334/530 335/532 476/316 475/531 
f 335/532 336/533 477/317 476/316 
f 336/533 337/534 478/535 477/317 
f 337/534 338/536 479/537 478/535 
f 338/536 339/538 480/539 479/537 
f 339/538 340/540 481/541 480/539 
f 340/540 341/611 482/612 481/541 
f 341/611 342/613 483/614 482/612 
f 342/613 343/615 484/616 483/614 
f 343/615 344/617 485/618 484/616 
f 344/617 345/619 486/620 485/618 
f 345/619 346/621 487/622 486/620 
f 346/621 347/623 488/624 487/622 
f 347/623 348/625 489/626 488/624 
f 348/625 349/627 490/628 489/626 
f 349/627 332/526 473/529 490/628 
f 493/639 475/531 476/316 492/471 
f 478/535 479/537 480/539 500/640 
f 474/528 475/531 493/639 498/684 
f 481/541 482/612 483/614 499/685 
f 496/686 484/616 485/618 495/687 
f 495/687 485/618 486/620 494/688 
f 494/688 486/620 487/622 497/689 
f 498/684 493/639 494/688 497/689 
f 494/688 493/639 492/471 495/687 
f 495/687 492/471 491/470 496/686 
f 500/640 480/539 481/541 499/685 
f 487/622 488/624 489/626 497/689 
f 497/689 489/626 490/628 498/684 
f 498/684 490/628 473/529 474/528 
f 483/614 484/616 496/686 499/685 
f 499/685 496/686 491/470 500/640 
f 500/640 491/470 477/317 478/535 
f 501/690 504/691 503/692 502/693 
f 505/1320 508/1321 507/1322 506/1323 
f 506/1323 507/1322 510/1324 509/1325 
f 509/1009 510/1010 512/1011 511/1012 
f 511/1012 512/1011 514/1013 513/1014 
f 513/1014 514/1013 516/1015 515/1016 
f 515/1016 516/1015 518/1017 517/1018 
f 517/1018 518/1017 520/1030 519/1031 
f 519/1227 520/1228 522/1229 521/1230 
f 521/1230 522/1229 524/1231 523/1232 
f 523/1232 524/1231 526/1233 525/1234 
f 525/1234 526/1233 528/1235 527/1236 
f 527/796 528/797 530/798 529/863 
f 529/863 530/798 532/864 531/865 
f 531/865 532/864 534/866 533/867 
f 533/867 534/866 536/868 535/869 
f 535/869 536/868 538/870 537/949 
f 537/1326 538/1327 540/1328 539/1329 
f 539/1329 540/1328 508/1321 505/1320 
f 541/603 543/604 542/605 
f 544/694 547/695 546/696 545/697 
f 545/697 546/696 549/698 548/699 
f 548/699 549/698 551/700 550/701 
f 550/701 551/700 553/702 552/703 
f 552/703 553/702 555/704 554/705 
f 554/705 555/704 557/706 556/707 
f 556/707 557/706 559/708 558/709 
f 558/709 559/708 561/710 560/711 
f 560/711 561/710 563/712 562/713 
f 562/713 563/712 565/714 564/715 
f 564/715 565/714 567/716 566/717 
f 566/717 567/716 569/718 568/719 
f 568/719 569/718 571/769 570/770 
f 570/770 571/769 573/771 572/772 
f 572/772 573/771 575/773 574/774 
f 574/774 575/773 577/775 576/776 
f 576/776 577/775 579/777 578/778 
f 578/778 579/777 547/695 544/694 
f 580/606 583/607 582/608 581/609 
f 581/609 582/608 585/610 584/681 
f 584/681 585/610 587/682 586/683 
f 586/683 587/682 589/720 588/721 
f 588/721 589/720 591/722 590/723 
f 590/723 591/722 593/724 592/725 
f 592/725 593/724 595/726 594/727 
f 594/727 595/726 597/728 596/729 
f 596/729 597/728 599/730 598/731 
f 598/731 599/730 601/732 600/733 
f 600/733 601/732 603/734 602/735 
f 602/735 603/734 605/736 604/737 
f 604/737 605/736 607/738 606/739 
f 606/739 607/738 609/740 608/741 
f 608/741 609/740 611/742 610/743 
f 610/743 611/742 613/744 612/745 
f 612/745 613/744 615/746 614/747 
f 614/747 615/746 583/607 580/606 
f 506/1323 544/1330 545/1331 505/1320 
f 505/1320 545/1331 548/1332 539/1329 
f 539/1329 548/1332 550/1333 537/1326 
f 537/949 550/950 552/951 535/869 
f 535/869 552/951 554/952 533/867 
f 533/867 554/952 556/953 531/865 
f 531/865 556/953 558/954 529/863 
f 529/863 558/954 560/955 527/796 
f 527/1236 560/1237 562/1238 525/1234 
f 525/1234 562/1238 564/1239 523/1232 
f 523/1232 564/1239 566/1240 521/1230 
f 521/1230 566/1240 568/1241 519/1227 
f 519/1031 568/1032 570/1039 517/1018 
f 517/1018 570/1039 572/1040 515/1016 
f 515/1016 572/1040 574/1041 513/1014 
f 513/1014 574/1041 576/1055 511/1012 
f 511/1012 576/1055 578/1056 509/1009 
f 509/1325 578/1334 544/1330 506/1323 
f 616/1242 546/1243 547/1244 617/1245 
f 617/1245 547/1244 579/1246 618/1247 
f 618/956 579/957 577/958 619/959 
f 619/959 577/958 575/960 620/961 
f 620/961 575/960 573/962 621/963 
f 621/963 573/962 571/964 622/965 
f 622/965 571/964 569/966 623/967 
f 623/1335 569/1336 567/1337 624/1338 
f 624/1338 567/1337 565/1339 625/1340 
f 625/1340 565/1339 563/1341 626/1342 
f 626/1342 563/1341 561/1343 627/1344 
f 627/1057 561/1058 559/1059 628/1060 
f 628/1060 559/1059 557/1088 629/1091 
f 629/1091 557/1088 555/1092 630/1094 
f 630/1094 555/1092 553/1095 631/1098 
f 631/1098 553/1095 551/1118 632/1119 
f 632/1248 551/1249 549/1250 633/1251 
f 633/1251 549/1250 546/1243 616/1242 
f 508/1321 580/1345 581/1346 507/1322 
f 507/1322 581/1346 584/1347 510/1324 
f 510/1010 584/1120 586/1121 512/1011 
f 512/1011 586/1121 588/1122 514/1013 
f 514/1013 588/1122 590/1123 516/1015 
f 516/1015 590/1123 592/1124 518/1017 
f 518/1017 592/1124 594/1135 520/1030 
f 520/1228 594/1252 596/1253 522/1229 
f 522/1229 596/1253 598/1254 524/1231 
f 524/1231 598/1254 600/1255 526/1233 
f 526/1233 600/1255 602/1256 528/1235 
f 528/797 602/968 604/1024 530/798 
f 530/798 604/1024 606/1025 532/864 
f 532/864 606/1025 608/1026 534/866 
f 534/866 608/1026 610/1033 536/868 
f 536/868 610/1033 612/1034 538/870 
f 538/1327 612/1348 614/1349 540/1328 
f 540/1328 614/1349 580/1345 508/1321 
f 634/1257 582/1258 583/1259 635/1260 
f 635/1260 583/1259 615/1261 636/1262 
f 636/1262 615/1261 613/1263 637/1264 
f 637/1136 613/1137 611/1138 638/1139 
f 638/1139 611/1138 609/1140 639/1141 
f 639/1141 609/1140 607/1151 640/1152 
f 640/1152 607/1151 605/1153 641/1154 
f 641/1154 605/1153 603/1404 642/1405 
f 642/1350 603/1351 601/1352 643/1353 
f 643/1353 601/1352 599/1354 644/1355 
f 644/1355 599/1354 597/1356 645/1357 
f 645/1357 597/1356 595/1358 646/1359 
f 646/1035 595/1042 593/1043 647/1044 
f 647/1044 593/1043 591/1051 648/1052 
f 648/1052 591/1051 589/1053 649/1090 
f 649/1090 589/1053 587/1093 650/1096 
f 650/1096 587/1093 585/1100 651/1125 
f 651/1265 585/1266 582/1258 634/1257 
f 635/748 653/749 652/750 634/751 
f 634/751 652/750 654/752 651/753 
f 651/753 654/752 655/754 650/755 
f 650/755 655/754 656/799 649/800 
f 649/800 656/799 541/603 648/801 
f 648/801 541/603 542/605 647/802 
f 647/802 542/605 657/803 646/804 
f 646/804 657/803 658/805 645/806 
f 645/806 658/805 659/807 644/808 
f 644/808 659/807 660/809 643/810 
f 643/810 660/809 661/811 642/812 
f 642/812 661/811 662/813 641/814 
f 641/814 662/813 663/815 640/816 
f 640/816 663/815 664/817 639/818 
f 639/818 664/817 665/819 638/820 
f 638/820 665/819 666/821 637/822 
f 637/822 666/821 667/823 636/824 
f 636/824 667/823 653/749 635/748 
f 652/750 669/825 668/826 654/752 
f 657/803 671/827 670/828 658/805 
f 672/829 675/830 674/831 673/832 
f 658/805 670/828 660/809 659/807 
f 663/815 672/829 673/832 664/817 
f 542/605 543/604 671/827 657/803 
f 675/830 668/826 669/825 674/831 
f 661/811 677/833 676/834 662/813 
f 677/833 679/835 678/836 676/834 
f 679/835 681/837 680/838 678/836 
f 681/837 656/799 655/754 680/838 
f 654/752 668/826 680/838 655/754 
f 668/826 675/830 678/836 680/838 
f 675/830 672/829 676/834 678/836 
f 672/829 663/815 662/813 676/834 
f 664/817 673/832 666/821 665/819 
f 673/832 674/831 667/823 666/821 
f 674/831 669/825 653/749 667/823 
f 669/825 652/750 653/749 
f 660/809 670/828 677/833 661/811 
f 670/828 671/827 679/835 677/833 
f 671/827 543/604 681/837 679/835 
f 543/604 541/603 656/799 681/837 
f 617/779 683/780 682/781 616/782 
f 616/782 682/781 684/783 633/784 
f 633/784 684/783 501/690 632/785 
f 632/785 501/690 502/693 631/786 
f 631/786 502/693 685/847 630/848 
f 630/848 685/847 686/849 629/850 
f 629/850 686/849 687/851 628/852 
f 628/852 687/851 688/853 627/854 
f 627/854 688/853 689/855 626/856 
f 626/856 689/855 690/857 625/858 
f 625/858 690/857 691/859 624/860 
f 624/860 691/859 692/861 623/862 
f 623/862 692/861 693/919 622/920 
f 622/920 693/919 694/921 621/922 
f 621/922 694/921 695/923 620/924 
f 620/924 695/923 696/925 619/926 
f 619/926 696/925 697/927 618/928 
f 618/928 697/927 683/780 617/779 
f 698/929 504/691 501/690 684/783 
f 685/847 699/930 687/851 686/849 
f 682/781 700/931 698/929 684/783 
f 688/853 701/932 690/857 689/855 
f 702/933 703/934 692/861 691/859 
f 703/934 704/935 693/919 692/861 
f 704/935 705/936 694/921 693/919 
f 700/931 705/936 704/935 698/929 
f 704/935 703/934 504/691 698/929 
f 703/934 702/933 503/692 504/691 
f 699/930 701/932 688/853 687/851 
f 694/921 705/936 696/925 695/923 
f 705/936 700/931 697/927 696/925 
f 700/931 682/781 683/780 697/927 
f 690/857 701/932 702/933 691/859 
f 701/932 699/930 503/692 702/933 
f 699/930 685/847 502/693 503/692 
f 706/1267 712/1268 713/1269 707/1270 
f 707/1270 713/1269 714/1271 708/1272 
f 708/1272 714/1271 715/1273 709/1274 
f 709/1274 715/1273 716/1275 710/1276 
f 710/1276 716/1275 717/1277 711/1278 
f 712/1268 718/1279 719/1280 713/1269 
f 713/1269 719/1280 720/1281 714/1271 
f 714/1271 720/1281 721/1282 715/1273 
f 715/1273 721/1282 722/1283 716/1275 
f 716/1275 722/1283 723/1284 717/1277 
f 718/1279 724/1285 725/1286 719/1280 
f 719/1280 725/1286 726/1287 720/1281 
f 720/1281 726/1287 727/1288 721/1282 
f 721/1282 727/1288 728/1289 722/1283 
f 722/1283 728/1289 729/1290 723/1284 
f 730/1360 731/1361 737/1362 736/1363 
f 731/1361 732/1364 738/1365 737/1362 
f 732/1364 733/1366 739/1367 738/1365 
f 733/1366 734/1368 740/1369 739/1367 
f 734/1368 735/1370 741/1371 740/1369 
f 736/1363 737/1362 743/1372 742/1373 
f 737/1362 738/1365 744/1374 743/1372 
f 738/1365 739/1367 745/1375 744/1374 
f 739/1367 740/1369 746/1376 745/1375 
f 740/1369 741/1371 747/1377 746/1376 
f 742/1373 743/1372 749/1378 748/1379 
f 743/1372 744/1374 750/1380 749/1378 
f 744/1374 745/1375 751/1381 750/1380 
f 745/1375 746/1376 752/1382 751/1381 
f 746/1376 747/1377 753/1383 752/1382 
f 706/937 707/938 755/939 754/940 
f 707/938 708/941 756/942 755/939 
f 708/941 709/943 757/944 756/942 
f 709/943 710/945 758/946 757/944 
f 710/945 711/947 759/948 758/946 
f 754/940 755/939 771/1019 770/1020 
f 755/939 756/942 772/1021 771/1019 
f 756/942 757/944 773/1022 772/1021 
f 757/944 758/946 774/1023 773/1022 
f 758/946 759/948 775/1061 774/1023 
f 770/1020 771/1019 787/1062 786/1063 
f 771/1019 772/1021 788/1064 787/1062 
f 772/1021 773/1022 789/1087 788/1064 
f 773/1022 774/1023 790/1089 789/1087 
f 774/1023 775/1061 791/1105 790/1089 
f 786/1063 787/1062 731/1106 730/1107 
f 787/1062 788/1064 732/1108 731/1106 
f 788/1064 789/1087 733/1109 732/1108 
f 789/1087 790/1089 734/1110 733/1109 
f 790/1089 791/1105 735/1111 734/1110 
f 711/1126 717/1127 760/1128 759/1129 
f 717/1127 723/1130 761/1142 760/1128 
f 723/1130 729/1143 762/1144 761/1142 
f 759/1129 760/1128 776/1155 775/1156 
f 760/1128 761/1142 777/1157 776/1155 
f 761/1142 762/1144 778/1184 777/1157 
f 775/1156 776/1155 792/1185 791/1186 
f 776/1155 777/1157 793/1187 792/1185 
f 777/1157 778/1184 794/1191 793/1187 
f 791/1186 792/1185 741/1192 735/1193 
f 792/1185 793/1187 747/1194 741/1192 
f 793/1187 794/1191 753/1195 747/1194 
f 729/839 728/840 763/841 762/842 
f 728/840 727/843 764/844 763/841 
f 727/843 726/845 765/846 764/844 
f 726/845 725/969 766/970 765/846 
f 725/969 724/971 767/972 766/970 
f 762/842 763/841 779/973 778/974 
f 763/841 764/844 780/975 779/973 
f 764/844 765/846 781/976 780/975 
f 765/846 766/970 782/977 781/976 
f 766/970 767/972 783/978 782/977 
f 778/974 779/973 795/979 794/980 
f 779/973 780/975 796/981 795/979 
f 780/975 781/976 797/982 796/981 
f 781/976 782/977 798/983 797/982 
f 782/977 783/978 799/984 798/983 
f 794/980 795/979 752/985 753/986 
f 795/979 796/981 751/987 752/985 
f 796/981 797/982 750/988 751/987 
f 797/982 798/983 749/989 750/988 
f 798/983 799/984 748/990 749/989 
f 724/1406 718/1407 768/1408 767/1409 
f 718/1407 712/1410 769/1411 768/1408 
f 712/1410 706/1412 754/1413 769/1411 
f 767/1409 768/1408 784/1414 783/1415 
f 768/1408 769/1411 785/1416 784/1414 
f 769/1411 754/1413 770/1417 785/1416 
f 783/1415 784/1414 800/1418 799/1419 
f 784/1414 785/1416 801/1420 800/1418 
f 785/1416 770/1417 786/1421 801/1420 
f 799/1419 800/1418 742/1422 748/1423 
f 800/1418 801/1420 736/1424 742/1422 
f 801/1420 786/1421 730/1425 736/1424 
f 810/1112 809/1113 808/1114 807/1115 856/1172 868/1173 806/1174 805/1175 804/1176 803/1177 802/1178 
f 802/1291 803/1292 812/1293 811/1294 
f 803/1292 804/1295 813/1296 812/1293 
f 804/1426 805/1427 814/1428 813/1429 
f 805/1427 806/1430 815/1431 814/1428 
f 806/1430 868/1432 879/1433 815/1431 
f 807/1196 808/1197 817/1198 816/1199 
f 808/1197 809/1200 818/1201 817/1198 
f 809/1297 810/1298 819/1299 818/1300 
f 810/1298 802/1291 811/1294 819/1299 
f 811/1294 812/1293 821/1301 820/1302 
f 812/1293 813/1296 822/1303 821/1301 
f 813/1429 814/1428 823/1434 822/1435 
f 814/1428 815/1431 824/1436 823/1434 
f 815/1431 879/1433 858/1437 824/1436 
f 816/1199 817/1198 826/1202 825/1203 
f 817/1198 818/1201 827/1204 826/1202 
f 818/1300 819/1299 828/1304 827/1305 
f 819/1299 811/1294 820/1302 828/1304 
f 820/1302 821/1301 830/1306 829/1307 
f 821/1301 822/1303 831/1308 830/1306 
f 822/1435 823/1434 832/1438 831/1439 
f 823/1434 824/1436 833/1440 832/1438 
f 824/1436 858/1437 860/1441 833/1440 
f 825/1203 826/1202 835/1205 834/1206 
f 826/1202 827/1204 836/1207 835/1205 
f 827/1305 828/1304 837/1309 836/1310 
f 828/1304 820/1302 829/1307 837/1309 
f 829/991 830/992 839/993 838/994 
f 830/992 831/995 840/996 839/993 
f 831/995 832/997 841/998 840/996 
f 832/997 833/1046 842/1047 841/998 
f 833/1046 860/1048 862/1049 842/1047 
f 834/1050 835/1054 844/1065 843/1066 
f 835/1054 836/1067 845/1068 844/1065 
f 836/1067 837/1069 846/1070 845/1068 
f 837/1069 829/991 838/994 846/1070 
f 838/994 839/993 848/1071 847/1072 
f 839/993 840/996 849/1073 848/1071 
f 840/996 841/998 850/1074 849/1073 
f 841/998 842/1047 851/1075 850/1074 
f 842/1047 862/1049 916/1076 851/1075 
f 843/1066 844/1065 853/1077 852/1078 
f 844/1065 845/1068 854/1079 853/1077 
f 845/1068 846/1070 855/1080 854/1079 
f 846/1070 838/994 847/1072 855/1080 
f 847/1072 848/1071 921/1081 
f 848/1071 849/1073 921/1081 
f 849/1073 850/1074 921/1081 
f 850/1074 851/1075 921/1081 
f 851/1075 916/1076 921/1081 
f 852/1078 853/1077 921/1081 
f 853/1077 854/1079 921/1081 
f 854/1079 855/1080 921/1081 
f 855/1080 847/1072 921/1081 
f 856/1208 807/1196 816/1199 857/1454 
f 857/1454 816/1199 825/1203 859/1455 
f 859/1455 825/1203 834/1206 861/1456 
f 861/1082 834/1050 843/1066 863/1083 
f 863/1083 843/1066 852/1078 922/1084 
f 922/1084 852/1078 921/1081 
f 864/1179 873/1180 872/1181 871/1182 870/1183 869/1188 868/1173 856/1172 867/1189 866/1190 865/1209 
f 873/1384 875/1385 874/1386 872/1387 
f 872/1387 874/1386 876/1388 871/1389 
f 871/1442 876/1443 877/1444 870/1445 
f 870/1445 877/1444 878/1446 869/1447 
f 869/1447 878/1446 879/1433 868/1432 
f 867/1457 881/1458 880/1459 866/1460 
f 866/1460 880/1459 882/1461 865/1462 
f 865/1390 882/1391 883/1392 864/1393 
f 864/1393 883/1392 875/1385 873/1384 
f 875/1385 885/1394 884/1395 874/1386 
f 874/1386 884/1395 886/1396 876/1388 
f 876/1443 886/1448 887/1449 877/1444 
f 877/1444 887/1449 888/1450 878/1446 
f 878/1446 888/1450 858/1437 879/1433 
f 881/1458 890/1463 889/1464 880/1459 
f 880/1459 889/1464 891/1465 882/1461 
f 882/1391 891/1397 892/1398 883/1392 
f 883/1392 892/1398 885/1394 875/1385 
f 885/1394 894/1399 893/1400 884/1395 
f 884/1395 893/1400 895/1401 886/1396 
f 886/1448 895/1451 896/1452 887/1449 
f 887/1449 896/1452 897/1453 888/1450 
f 888/1450 897/1453 860/1441 858/1437 
f 890/1463 899/1466 898/1467 889/1464 
f 889/1464 898/1467 900/1468 891/1465 
f 891/1397 900/1402 901/1403 892/1398 
f 892/1398 901/1403 894/1399 885/1394 
f 894/1085 903/1086 902/1097 893/1099 
f 893/1099 902/1097 904/1101 895/1102 
f 895/1102 904/1101 905/1103 896/1104 
f 896/1104 905/1103 906/1146 897/1147 
f 897/1147 906/1146 862/1049 860/1048 
f 899/1148 908/1149 907/1150 898/1158 
f 898/1158 907/1150 909/1159 900/1160 
f 900/1160 909/1159 910/1161 901/1162 
f 901/1162 910/1161 903/1086 894/1085 
f 903/1086 912/1163 911/1164 902/1097 
f 902/1097 911/1164 913/1165 904/1101 
f 904/1101 913/1165 914/1166 905/1103 
f 905/1103 914/1166 915/1167 906/1146 
f 906/1146 915/1167 916/1076 862/1049 
f 908/1149 918/1168 917/1169 907/1150 
f 907/1150 917/1169 919/1170 909/1159 
f 909/1159 919/1170 920/1171 910/1161 
f 910/1161 920/1171 912/1163 903/1086 
f 912/1163 921/1081 911/1164 
f 911/1164 921/1081 913/1165 
f 913/1165 921/1081 914/1166 
f 914/1166 921/1081 915/1167 
f 915/1167 921/1081 916/1076 
f 918/1168 921/1081 917/1169 
f 917/1169 921/1081 919/1170 
f 919/1170 921/1081 920/1171 
f 920/1171 921/1081 912/1163 
f 856/1208 857/1454 881/1458 867/1457 
f 857/1454 859/1455 890/1463 881/1458 
f 859/1455 861/1456 899/1466 890/1463 
f 861/1082 863/1083 908/1149 899/1148 
f 863/1083 922/1084 918/1168 908/1149 
f 922/1084 921/1081 918/1168 
# 868 polygons - 24 triangles

